{"glyphs":{"0":{"ha":642,"x_min":49,"x_max":593,"o":"m 81 736 l 69 733 l 61 739 l 68 750 l 81 746 l 81 736 m 593 431 l 591 401 l 581 382 l 579 361 l 579 349 l 572 336 l 568 309 l 572 298 l 568 283 l 561 254 l 559 228 l 550 196 l 545 170 l 530 135 l 529 123 l 519 117 l 513 103 l 494 90 l 485 66 l 478 58 l 461 54 l 450 47 l 447 39 l 411 21 l 378 9 l 350 9 l 335 17 l 319 17 l 296 26 l 281 26 l 264 35 l 228 52 l 215 60 l 197 78 l 164 100 l 154 118 l 147 123 l 142 132 l 134 149 l 119 183 l 107 227 l 90 265 l 81 310 l 69 354 l 64 404 l 57 444 l 52 472 l 52 498 l 49 521 l 52 539 l 58 570 l 58 582 l 65 596 l 68 635 l 78 675 l 87 701 l 96 737 l 122 800 l 135 827 l 153 851 l 171 868 l 176 879 l 203 896 l 232 916 l 256 913 l 294 911 l 315 896 l 330 888 l 343 878 l 347 871 l 358 852 l 359 846 l 357 833 l 351 822 l 340 817 l 314 798 l 286 770 l 260 745 l 252 733 l 243 729 l 237 718 l 232 711 l 215 686 l 200 660 l 176 614 l 164 579 l 147 550 l 135 533 l 132 503 l 132 468 l 127 440 l 129 392 l 134 350 l 142 309 l 153 271 l 160 245 l 164 232 l 171 205 l 180 175 l 196 151 l 215 125 l 236 107 l 257 92 l 279 81 l 307 71 l 325 68 l 338 65 l 372 56 l 404 65 l 429 71 l 456 92 l 485 113 l 486 123 l 504 142 l 517 176 l 519 200 l 526 205 l 525 221 l 530 233 l 538 271 l 538 315 l 533 343 l 529 374 l 538 400 l 543 437 l 543 476 l 529 550 l 524 571 l 524 583 l 507 611 l 497 637 l 485 663 l 475 669 l 472 681 l 450 701 l 436 724 l 427 746 l 421 768 l 421 790 l 422 802 l 429 807 l 435 807 l 440 804 l 447 790 l 461 757 l 478 729 l 498 711 l 513 694 l 518 685 l 541 656 l 554 629 l 561 623 l 567 608 l 572 582 l 581 559 l 587 534 l 593 507 l 589 482 l 593 472 l 593 431 m 275 250 l 273 241 l 264 241 l 257 250 l 267 258 l 275 250 z "},"1":{"ha":437,"x_min":-18,"x_max":329,"o":"m 66 840 l 58 832 l 45 829 l 33 842 l 37 854 l 53 860 l 65 851 l 66 840 m 329 893 l 326 885 l 326 871 l 322 860 l 315 836 l 315 819 l 309 808 l 314 783 l 314 755 l 307 726 l 301 665 l 296 637 l 297 603 l 294 570 l 294 541 l 296 515 l 292 488 l 290 464 l 290 427 l 283 401 l 283 375 l 278 343 l 272 317 l 265 260 l 264 227 l 262 212 l 256 203 l 262 182 l 260 151 l 262 118 l 262 87 l 264 75 l 262 66 l 271 49 l 275 33 l 271 9 l 264 3 l 253 3 l 244 9 l 236 36 l 231 60 l 225 98 l 224 125 l 220 170 l 221 214 l 221 258 l 225 315 l 225 446 l 220 500 l 212 545 l 208 586 l 200 624 l 195 661 l 193 705 l 195 729 l 193 749 l 189 757 l 180 762 l 160 757 l 142 746 l 127 729 l 110 714 l 79 673 l 65 653 l 61 640 l 54 629 l 45 611 l 22 599 l 9 596 l -4 597 l -11 604 l -17 616 l -18 633 l -14 650 l -4 672 l 3 685 l 9 711 l 14 733 l 22 753 l 41 778 l 58 789 l 77 808 l 85 819 l 90 832 l 90 842 l 97 859 l 104 867 l 118 878 l 129 884 l 161 924 l 174 943 l 182 957 l 193 961 l 207 971 l 231 975 l 253 974 l 275 966 l 296 957 l 314 943 l 326 925 l 329 909 l 329 893 z "},"2":{"ha":575,"x_min":-39,"x_max":514,"o":"m -17 768 l -20 758 l -32 758 l -39 771 l -32 778 l -25 781 l -17 777 l -17 768 m 514 686 l 513 656 l 503 629 l 490 616 l 468 579 l 457 571 l 432 547 l 424 538 l 411 530 l 403 515 l 379 500 l 359 484 l 335 457 l 317 440 l 309 427 l 292 414 l 290 393 l 272 387 l 262 372 l 245 349 l 232 325 l 224 309 l 200 278 l 186 254 l 157 193 l 144 182 l 136 167 l 111 142 l 103 138 l 104 132 l 93 113 l 77 93 l 78 87 l 138 87 l 160 83 l 174 87 l 195 86 l 224 87 l 256 83 l 294 78 l 317 71 l 329 75 l 359 71 l 371 72 l 400 71 l 431 66 l 454 71 l 463 65 l 471 65 l 484 58 l 482 49 l 481 46 l 469 46 l 449 41 l 416 46 l 379 47 l 346 47 l 304 41 l 253 47 l 167 47 l 127 41 l 115 41 l 85 36 l 66 35 l 52 24 l 33 26 l 22 33 l 20 40 l 20 58 l 16 75 l 28 92 l 47 119 l 64 150 l 83 174 l 98 191 l 118 227 l 136 254 l 149 285 l 187 349 l 211 389 l 233 415 l 249 431 l 257 444 l 269 458 l 288 475 l 335 530 l 358 551 l 374 571 l 387 582 l 399 597 l 410 614 l 416 632 l 427 648 l 432 711 l 431 743 l 419 765 l 397 778 l 385 789 l 368 790 l 347 794 l 319 787 l 301 777 l 278 765 l 262 750 l 243 736 l 212 725 l 192 717 l 180 714 l 168 707 l 123 704 l 111 705 l 90 713 l 78 725 l 69 736 l 66 753 l 69 768 l 77 777 l 89 796 l 103 810 l 111 822 l 129 836 l 150 848 l 172 860 l 186 861 l 195 872 l 231 879 l 269 890 l 294 896 l 326 892 l 354 892 l 385 888 l 411 878 l 436 864 l 452 859 l 457 847 l 482 821 l 496 800 l 510 781 l 513 758 l 513 737 l 510 717 l 514 686 z "},"3":{"ha":610,"x_min":-43,"x_max":539,"o":"m 539 892 l 538 880 l 528 871 l 507 848 l 489 832 l 472 822 l 450 802 l 429 785 l 406 768 l 386 746 l 376 733 l 361 725 l 347 707 l 326 685 l 302 663 l 283 640 l 268 621 l 252 602 l 241 582 l 227 562 l 225 554 l 232 551 l 257 538 l 273 539 l 296 541 l 310 534 l 325 533 l 342 525 l 353 518 l 367 515 l 376 509 l 403 498 l 416 478 l 428 464 l 444 450 l 450 433 l 463 424 l 467 400 l 472 387 l 482 357 l 492 330 l 498 309 l 498 283 l 493 257 l 482 227 l 476 201 l 461 171 l 454 150 l 437 122 l 421 118 l 416 103 l 393 86 l 371 72 l 353 58 l 322 46 l 293 29 l 262 20 l 241 16 l 227 16 l 207 17 l 195 21 l 175 26 l 160 29 l 143 40 l 127 54 l 115 66 l 109 81 l 109 87 l 115 93 l 126 92 l 139 90 l 149 83 l 174 49 l 184 39 l 210 36 l 237 40 l 254 41 l 269 52 l 294 68 l 321 81 l 335 92 l 366 122 l 396 176 l 408 203 l 416 228 l 425 254 l 429 292 l 425 317 l 424 350 l 406 385 l 379 395 l 355 399 l 338 411 l 319 422 l 294 433 l 264 436 l 227 443 l 207 446 l 195 443 l 175 446 l 149 450 l 136 458 l 127 463 l 121 471 l 114 482 l 111 493 l 121 513 l 126 519 l 136 526 l 155 530 l 179 550 l 200 578 l 207 599 l 229 629 l 250 654 l 269 681 l 288 694 l 289 701 l 340 750 l 347 764 l 366 775 l 385 798 l 406 819 l 425 836 l 440 852 l 447 868 l 444 873 l 436 873 l 410 871 l 378 861 l 357 852 l 335 851 l 314 840 l 275 836 l 250 827 l 222 819 l 211 808 l 184 800 l 168 796 l 154 798 l 135 796 l 122 798 l 90 802 l 58 804 l 32 810 l 11 815 l -8 822 l -25 840 l -37 860 l -43 872 l -39 892 l -25 905 l -4 917 l 28 920 l 62 920 l 75 924 l 94 925 l 129 929 l 160 924 l 197 930 l 236 935 l 257 935 l 283 929 l 309 929 l 322 930 l 379 930 l 416 935 l 447 936 l 472 935 l 493 936 l 518 936 l 534 930 l 539 911 l 539 892 z "},"4":{"ha":619,"x_min":33,"x_max":585,"o":"m 525 510 l 522 505 l 511 509 l 511 515 l 521 517 l 525 510 m 585 472 l 583 463 l 572 453 l 557 453 l 549 454 l 533 453 l 522 446 l 514 440 l 509 436 l 479 427 l 453 421 l 428 415 l 400 411 l 383 410 l 376 396 l 376 273 l 379 243 l 370 228 l 351 218 l 347 215 l 349 203 l 355 183 l 355 158 l 338 144 l 338 125 l 343 100 l 349 65 l 354 49 l 351 33 l 351 17 l 347 -3 l 345 -18 l 342 -26 l 332 -26 l 325 -25 l 322 -18 l 313 5 l 313 29 l 322 50 l 317 77 l 315 102 l 310 122 l 311 149 l 310 183 l 302 205 l 302 236 l 300 269 l 298 306 l 300 340 l 302 372 l 296 390 l 293 401 l 279 403 l 264 408 l 232 410 l 208 414 l 175 410 l 149 408 l 134 399 l 117 389 l 98 378 l 75 367 l 62 364 l 54 370 l 43 372 l 35 383 l 36 401 l 33 422 l 40 443 l 50 465 l 54 482 l 65 509 l 75 525 l 93 557 l 102 589 l 111 618 l 113 640 l 113 663 l 118 682 l 132 701 l 143 711 l 153 728 l 170 755 l 180 775 l 187 799 l 200 838 l 208 854 l 207 871 l 210 875 l 212 889 l 215 908 l 229 922 l 249 933 l 261 935 l 272 933 l 283 933 l 298 926 l 319 916 l 345 896 l 355 875 l 351 863 l 347 848 l 342 842 l 336 829 l 319 812 l 304 791 l 290 771 l 272 753 l 258 729 l 244 707 l 233 694 l 227 692 l 222 675 l 215 659 l 210 637 l 207 621 l 184 586 l 178 567 l 165 547 l 153 530 l 143 517 l 138 498 l 134 486 l 136 478 l 144 473 l 161 468 l 182 465 l 201 465 l 221 463 l 240 465 l 260 467 l 273 468 l 281 473 l 281 497 l 273 515 l 278 549 l 292 572 l 290 596 l 290 628 l 292 639 l 292 660 l 296 676 l 306 684 l 317 684 l 328 676 l 338 663 l 351 652 l 361 639 l 364 619 l 364 576 l 363 559 l 363 541 l 364 525 l 364 510 l 363 498 l 368 492 l 376 478 l 387 475 l 403 478 l 419 482 l 525 482 l 533 489 l 554 485 l 572 492 l 572 482 l 583 478 l 585 472 z "},"5":{"ha":593,"x_min":43,"x_max":593,"o":"m 593 779 l 583 775 l 576 781 l 582 787 l 590 790 l 593 779 m 570 775 l 567 766 l 567 758 l 561 749 l 538 736 l 514 728 l 489 726 l 486 721 l 472 715 l 444 708 l 424 703 l 403 703 l 358 701 l 222 692 l 197 688 l 174 676 l 168 660 l 163 632 l 153 602 l 153 589 l 149 562 l 147 538 l 153 510 l 158 503 l 178 496 l 192 492 l 199 493 l 216 492 l 229 486 l 243 489 l 264 478 l 290 472 l 313 468 l 347 456 l 374 440 l 396 411 l 410 390 l 412 378 l 428 353 l 431 339 l 440 326 l 441 313 l 454 301 l 457 273 l 456 243 l 444 212 l 429 192 l 424 183 l 412 172 l 399 146 l 372 119 l 354 96 l 335 81 l 306 56 l 289 45 l 261 36 l 227 20 l 205 14 l 187 12 l 154 7 l 122 14 l 96 26 l 75 41 l 65 57 l 64 75 l 60 83 l 62 90 l 64 97 l 75 100 l 87 90 l 96 78 l 111 62 l 127 56 l 155 52 l 186 56 l 204 62 l 229 68 l 254 83 l 278 93 l 296 114 l 319 134 l 345 164 l 361 191 l 383 216 l 396 235 l 404 248 l 410 262 l 408 275 l 403 300 l 389 321 l 374 350 l 361 372 l 342 392 l 334 403 l 319 410 l 294 415 l 262 415 l 231 427 l 155 427 l 127 424 l 109 427 l 92 435 l 79 454 l 75 485 l 65 518 l 65 550 l 64 589 l 65 612 l 71 644 l 71 672 l 58 684 l 45 703 l 43 715 l 45 733 l 53 753 l 53 760 l 58 774 l 56 794 l 56 811 l 65 827 l 83 838 l 102 843 l 114 846 l 143 839 l 174 827 l 199 817 l 218 807 l 257 799 l 288 790 l 315 787 l 342 781 l 376 781 l 406 786 l 428 786 l 454 781 l 481 781 l 504 785 l 528 790 l 551 787 l 567 785 l 570 775 z "},"6":{"ha":538,"x_min":43,"x_max":493,"o":"m 329 478 l 321 475 l 315 482 l 321 489 l 329 486 l 329 478 m 493 309 l 492 296 l 486 267 l 481 232 l 479 212 l 472 200 l 457 179 l 457 167 l 444 146 l 425 117 l 415 100 l 404 90 l 383 71 l 354 62 l 325 50 l 290 49 l 225 41 l 211 46 l 192 45 l 174 49 l 153 52 l 135 62 l 114 75 l 85 117 l 65 146 l 56 176 l 46 205 l 43 218 l 50 228 l 53 244 l 60 256 l 65 286 l 64 315 l 64 408 l 69 447 l 75 489 l 79 528 l 90 562 l 97 600 l 111 631 l 127 669 l 149 690 l 174 721 l 191 753 l 199 766 l 210 791 l 225 807 l 232 825 l 245 836 l 257 857 l 262 878 l 268 896 l 282 921 l 301 933 l 322 932 l 340 933 l 364 921 l 374 916 l 389 893 l 385 873 l 378 864 l 372 863 l 357 851 l 340 836 l 321 807 l 288 760 l 278 754 l 261 728 l 243 696 l 222 663 l 179 591 l 174 576 l 165 568 l 160 547 l 147 529 l 147 515 l 142 504 l 143 493 l 136 475 l 129 431 l 126 363 l 123 326 l 123 286 l 121 248 l 127 232 l 139 203 l 153 179 l 167 158 l 187 139 l 220 122 l 254 121 l 271 121 l 293 125 l 313 129 l 325 140 l 342 165 l 354 193 l 357 235 l 353 267 l 342 289 l 326 311 l 310 326 l 283 338 l 264 332 l 250 318 l 231 306 l 222 298 l 212 296 l 192 294 l 184 296 l 178 300 l 171 311 l 168 321 l 174 347 l 186 375 l 204 395 l 225 421 l 243 435 l 264 447 l 289 453 l 306 456 l 322 450 l 346 450 l 357 443 l 392 429 l 403 427 l 418 415 l 449 403 l 468 382 l 481 364 l 486 350 l 492 319 l 493 309 m 227 268 l 220 257 l 205 256 l 195 260 l 195 275 l 204 281 l 222 279 l 227 268 z "},"7":{"ha":587,"x_min":-21,"x_max":542,"o":"m 542 829 l 538 825 l 538 817 l 528 811 l 513 798 l 493 775 l 469 755 l 450 739 l 436 721 l 418 707 l 416 692 l 396 671 l 371 621 l 367 607 l 354 578 l 342 542 l 330 517 l 319 496 l 313 485 l 309 465 l 298 439 l 285 412 l 275 379 l 261 343 l 256 317 l 244 271 l 233 236 l 222 195 l 216 176 l 205 143 l 195 109 l 182 78 l 170 54 l 161 40 l 147 39 l 149 49 l 154 62 l 186 171 l 195 208 l 207 249 l 212 281 l 222 311 l 232 350 l 258 429 l 268 465 l 282 503 l 296 534 l 306 559 l 315 587 l 326 621 l 342 660 l 364 696 l 374 715 l 389 734 l 406 758 l 412 775 l 410 786 l 385 786 l 354 781 l 326 786 l 293 787 l 257 790 l 220 786 l 179 779 l 143 774 l 121 768 l 102 774 l 83 774 l 65 781 l 39 786 l 14 799 l -4 818 l -18 838 l -18 846 l -21 857 l -20 873 l -12 882 l -4 888 l 12 896 l 37 896 l 56 895 l 75 889 l 96 875 l 143 863 l 178 861 l 211 864 l 315 864 l 351 869 l 379 871 l 396 871 l 408 873 l 441 871 l 479 868 l 500 863 l 524 864 l 532 859 l 534 850 l 542 832 l 542 829 z "},"8":{"ha":653,"x_min":-32,"x_max":593,"o":"m 410 817 l 403 812 l 396 817 l 393 822 l 397 828 l 408 827 l 410 817 m 593 342 l 587 317 l 587 296 l 581 283 l 582 264 l 574 245 l 561 232 l 555 207 l 550 186 l 539 170 l 518 149 l 493 131 l 488 122 l 469 111 l 454 93 l 424 81 l 389 71 l 372 68 l 346 66 l 309 66 l 273 68 l 239 71 l 210 79 l 184 93 l 165 110 l 142 125 l 122 150 l 104 170 l 90 187 l 82 215 l 65 239 l 53 311 l 52 342 l 52 368 l 65 421 l 71 456 l 77 493 l 87 514 l 103 530 l 123 541 l 134 557 l 153 567 l 174 579 l 186 591 l 191 603 l 186 614 l 175 629 l 160 654 l 154 673 l 149 704 l 149 726 l 154 753 l 155 777 l 163 804 l 178 821 l 192 846 l 216 860 l 237 873 l 257 885 l 269 903 l 283 917 l 300 930 l 340 943 l 358 936 l 372 930 l 379 917 l 393 911 l 397 893 l 396 879 l 393 871 l 385 868 l 374 861 l 353 861 l 340 852 l 321 842 l 302 828 l 288 804 l 273 785 l 264 764 l 254 749 l 243 737 l 241 717 l 239 693 l 241 669 l 245 656 l 252 646 l 264 648 l 268 640 l 262 631 l 268 618 l 275 611 l 283 599 l 294 583 l 309 579 l 321 570 l 332 558 l 357 550 l 393 547 l 416 545 l 436 545 l 461 551 l 476 567 l 496 576 l 507 578 l 514 590 l 530 611 l 532 640 l 534 661 l 530 700 l 521 713 l 511 739 l 501 768 l 493 789 l 486 800 l 481 807 l 468 815 l 444 822 l 425 829 l 406 833 l 399 842 l 403 851 l 410 864 l 418 872 l 429 879 l 444 878 l 468 878 l 482 871 l 498 861 l 514 852 l 518 847 l 532 842 l 545 827 l 555 808 l 555 794 l 558 785 l 555 775 l 564 768 l 574 743 l 576 725 l 586 705 l 590 679 l 586 653 l 582 629 l 574 602 l 562 582 l 554 567 l 545 562 l 542 554 l 530 551 l 507 528 l 489 518 l 481 515 l 482 513 l 496 505 l 518 498 l 532 488 l 550 476 l 567 463 l 582 443 l 587 424 l 593 374 l 593 342 m -7 93 l -8 83 l -24 79 l -32 92 l -28 100 l -12 107 l -7 93 m 518 379 l 518 416 l 501 432 l 488 446 l 469 456 l 450 458 l 428 465 l 408 478 l 389 478 l 364 484 l 338 482 l 322 482 l 314 489 l 302 500 l 300 513 l 283 521 l 264 525 l 252 515 l 243 515 l 237 505 l 229 500 l 218 482 l 204 463 l 197 436 l 195 416 l 195 393 l 199 383 l 205 367 l 199 346 l 197 317 l 196 296 l 197 269 l 204 264 l 208 244 l 232 208 l 248 193 l 261 175 l 289 161 l 314 127 l 372 119 l 407 127 l 437 140 l 461 155 l 471 172 l 481 179 l 489 196 l 497 208 l 507 222 l 510 271 l 501 309 l 501 328 l 513 340 l 513 368 l 518 379 m 476 229 l 457 214 l 447 196 l 437 171 l 410 176 l 399 200 l 386 205 l 379 233 l 347 258 l 346 281 l 367 290 l 396 267 l 418 262 l 437 268 l 457 264 l 476 244 l 476 229 z "},"9":{"ha":559,"x_min":-85,"x_max":489,"o":"m 489 692 l 486 665 l 486 640 l 481 614 l 476 581 l 469 545 l 450 497 l 449 473 l 440 463 l 425 421 l 410 396 l 406 379 l 393 350 l 376 321 l 358 292 l 345 264 l 325 237 l 306 205 l 290 193 l 282 174 l 262 151 l 239 127 l 222 103 l 207 83 l 187 62 l 174 39 l 163 17 l 153 0 l 139 -16 l 134 -21 l 123 -16 l 127 -1 l 129 20 l 163 97 l 187 135 l 199 146 l 210 167 l 229 200 l 243 225 l 262 254 l 278 288 l 296 313 l 329 370 l 366 461 l 378 485 l 378 497 l 385 509 l 397 541 l 408 572 l 416 600 l 421 621 l 421 646 l 418 675 l 418 690 l 408 688 l 404 671 l 399 650 l 385 633 l 371 607 l 340 581 l 315 561 l 268 536 l 239 534 l 200 529 l 165 534 l 143 545 l 109 555 l 85 568 l 71 587 l 69 596 l 56 619 l 45 652 l 43 679 l 37 701 l 31 733 l 37 768 l 40 806 l 50 836 l 53 859 l 64 878 l 77 895 l 97 916 l 139 937 l 163 951 l 191 957 l 216 958 l 250 958 l 281 954 l 315 947 l 345 937 l 361 925 l 379 914 l 408 895 l 410 888 l 421 880 l 428 871 l 437 854 l 450 836 l 468 804 l 479 775 l 486 746 l 488 721 l 489 704 l 489 692 m -58 734 l -62 726 l -75 721 l -83 724 l -85 733 l -79 746 l -65 746 l -58 734 m 109 -12 l 103 -25 l 87 -16 l 90 -3 l 103 -3 l 109 -12 m 393 758 l 392 778 l 379 799 l 364 819 l 345 836 l 329 843 l 321 846 l 309 854 l 288 854 l 269 850 l 250 843 l 227 836 l 210 827 l 205 819 l 197 818 l 191 810 l 179 804 l 163 785 l 153 762 l 143 742 l 136 729 l 136 714 l 142 701 l 139 688 l 142 672 l 147 669 l 155 656 l 163 643 l 171 639 l 187 625 l 212 625 l 231 632 l 239 646 l 241 663 l 245 682 l 250 696 l 258 711 l 269 724 l 283 729 l 306 736 l 329 739 l 346 729 l 361 726 l 376 726 l 392 743 l 393 758 z "}," ":{"ha":389,"x_min":0,"x_max":0,"o":""},"!":{"ha":346,"x_min":85,"x_max":261,"o":"m 236 818 l 232 799 l 225 778 l 220 755 l 216 733 l 212 704 l 210 671 l 205 632 l 204 599 l 200 561 l 197 489 l 197 456 l 192 390 l 191 357 l 192 325 l 195 296 l 195 218 l 178 184 l 167 179 l 155 184 l 149 200 l 153 215 l 147 244 l 146 277 l 139 339 l 134 359 l 127 385 l 127 440 l 123 461 l 123 485 l 129 498 l 126 515 l 126 554 l 122 572 l 121 591 l 111 612 l 103 664 l 103 692 l 97 726 l 102 753 l 102 779 l 97 798 l 92 818 l 85 839 l 85 857 l 87 871 l 92 884 l 107 896 l 126 903 l 149 903 l 174 901 l 191 893 l 205 884 l 216 871 l 227 857 l 232 843 l 236 818 m 261 68 l 254 50 l 241 7 l 220 -1 l 207 -14 l 191 -32 l 167 -39 l 143 -45 l 126 -7 l 111 5 l 107 26 l 114 39 l 122 56 l 139 71 l 160 82 l 179 87 l 197 81 l 211 78 l 227 82 l 241 89 l 257 82 l 261 68 z "},"\"":{"ha":385,"x_min":43,"x_max":275,"o":"m 275 871 l 272 864 l 272 846 l 273 817 l 272 790 l 272 757 l 268 733 l 264 707 l 261 685 l 258 659 l 260 631 l 258 604 l 261 578 l 264 562 l 264 538 l 261 529 l 260 524 l 257 518 l 252 513 l 245 509 l 239 513 l 232 518 l 229 538 l 225 554 l 220 572 l 212 591 l 210 610 l 212 621 l 207 643 l 204 665 l 200 694 l 195 729 l 187 762 l 180 787 l 179 802 l 176 815 l 168 828 l 165 831 l 158 832 l 153 831 l 150 827 l 150 808 l 149 800 l 144 781 l 143 758 l 139 734 l 136 713 l 132 676 l 129 648 l 127 618 l 127 591 l 129 570 l 129 549 l 126 529 l 121 525 l 111 524 l 102 528 l 87 567 l 85 599 l 85 625 l 81 652 l 79 675 l 82 703 l 79 726 l 82 765 l 85 794 l 85 828 l 82 857 l 77 880 l 72 904 l 62 920 l 60 937 l 60 961 l 65 977 l 74 991 l 92 1008 l 107 1010 l 127 1003 l 144 994 l 155 982 l 158 974 l 171 968 l 212 968 l 231 961 l 248 956 l 257 942 l 271 922 l 275 896 l 275 871 m 60 607 l 50 602 l 43 608 l 50 614 l 60 614 l 60 607 m 228 380 l 221 375 l 210 379 l 208 385 l 220 395 l 228 389 l 228 380 z "},"#":{"ha":1476,"x_min":56,"x_max":1421,"o":"m 1421 399 l 1417 392 l 1389 392 l 1357 389 l 1317 383 l 1279 382 l 1242 378 l 1206 378 l 1169 372 l 1126 372 l 1079 367 l 940 357 l 920 351 l 901 350 l 897 339 l 895 319 l 889 288 l 889 264 l 884 235 l 878 211 l 876 184 l 869 161 l 864 139 l 863 110 l 859 78 l 856 33 l 857 14 l 857 -3 l 843 -5 l 832 5 l 827 24 l 832 81 l 836 113 l 839 146 l 839 172 l 846 204 l 848 236 l 844 267 l 843 298 l 846 319 l 848 343 l 825 346 l 787 343 l 766 339 l 746 334 l 729 328 l 667 328 l 593 325 l 561 321 l 532 319 l 513 311 l 505 296 l 501 268 l 500 237 l 494 215 l 504 180 l 504 129 l 501 100 l 500 75 l 494 50 l 492 25 l 492 -22 l 488 -39 l 488 -58 l 482 -74 l 468 -77 l 454 -60 l 454 -37 l 460 -5 l 463 57 l 463 93 l 460 125 l 457 153 l 453 180 l 447 204 l 447 228 l 449 249 l 454 273 l 460 292 l 453 311 l 431 313 l 239 311 l 210 309 l 165 309 l 135 306 l 97 307 l 72 315 l 58 326 l 56 339 l 68 353 l 89 358 l 114 364 l 140 370 l 161 371 l 186 367 l 218 363 l 235 370 l 243 389 l 256 401 l 267 411 l 273 403 l 271 390 l 271 372 l 277 367 l 300 364 l 325 363 l 354 363 l 378 358 l 421 359 l 441 359 l 457 364 l 457 385 l 460 408 l 454 467 l 463 525 l 457 545 l 461 566 l 461 583 l 450 602 l 421 599 l 378 596 l 342 591 l 269 589 l 239 582 l 200 582 l 161 583 l 135 590 l 110 599 l 103 616 l 107 635 l 126 646 l 151 653 l 175 660 l 200 660 l 229 661 l 250 660 l 264 665 l 275 681 l 286 693 l 301 704 l 309 693 l 306 663 l 318 654 l 339 656 l 366 653 l 386 654 l 408 653 l 429 648 l 449 654 l 453 692 l 453 714 l 447 736 l 450 755 l 450 783 l 431 804 l 399 808 l 389 828 l 371 846 l 374 860 l 386 861 l 404 854 l 416 851 l 433 851 l 443 859 l 436 872 l 429 888 l 425 903 l 429 917 l 440 925 l 461 932 l 481 935 l 505 930 l 524 924 l 536 911 l 532 896 l 536 879 l 543 867 l 554 851 l 557 833 l 554 810 l 550 785 l 543 770 l 545 755 l 538 736 l 536 717 l 532 694 l 530 679 l 538 663 l 554 653 l 582 648 l 607 648 l 637 646 l 696 646 l 718 648 l 742 648 l 775 643 l 800 642 l 827 642 l 836 660 l 839 688 l 838 725 l 843 755 l 852 781 l 857 807 l 859 821 l 852 833 l 857 851 l 863 867 l 865 879 l 863 892 l 868 909 l 890 917 l 916 922 l 940 917 l 966 916 l 987 913 l 1000 911 l 1004 900 l 1017 892 l 1022 879 l 1017 864 l 1006 851 l 993 839 l 987 827 l 983 808 l 972 794 l 961 777 l 953 757 l 949 739 l 940 729 l 939 711 l 932 694 l 926 672 l 922 653 l 933 642 l 953 642 l 978 640 l 1004 640 l 1032 642 l 1051 642 l 1074 640 l 1100 637 l 1121 640 l 1145 640 l 1169 637 l 1210 637 l 1231 635 l 1250 640 l 1270 637 l 1282 633 l 1289 623 l 1274 616 l 1253 614 l 1229 611 l 1198 610 l 1165 610 l 1121 611 l 1086 608 l 1054 610 l 1017 610 l 979 608 l 958 604 l 940 602 l 926 596 l 917 583 l 909 566 l 908 546 l 904 525 l 901 431 l 904 414 l 901 392 l 917 383 l 936 378 l 960 379 l 985 382 l 1036 382 l 1093 385 l 1166 385 l 1196 389 l 1223 385 l 1254 390 l 1286 392 l 1324 392 l 1365 395 l 1401 401 l 1421 399 m 1004 -97 l 996 -104 l 981 -106 l 971 -86 l 981 -77 l 999 -78 l 1004 -97 m 850 372 l 850 390 l 846 414 l 843 518 l 839 554 l 839 583 l 833 602 l 804 604 l 772 604 l 729 608 l 684 602 l 647 603 l 612 602 l 575 599 l 547 596 l 526 583 l 526 570 l 525 546 l 521 526 l 514 472 l 514 408 l 513 385 l 519 370 l 538 363 l 564 359 l 596 363 l 665 363 l 708 364 l 743 364 l 787 370 l 850 372 z "},"$":{"ha":493,"x_min":0,"x_max":450,"o":"m 33 749 l 18 739 l 1 747 l 0 765 l 18 775 l 31 765 l 33 749 m 450 301 l 447 277 l 440 245 l 428 215 l 410 186 l 393 163 l 374 144 l 357 132 l 336 119 l 340 107 l 334 86 l 338 61 l 332 36 l 335 14 l 332 -17 l 332 -60 l 323 -68 l 332 -79 l 342 -98 l 351 -113 l 354 -132 l 346 -138 l 338 -138 l 325 -127 l 315 -106 l 309 -74 l 306 -35 l 304 -3 l 306 36 l 304 58 l 301 81 l 292 100 l 272 104 l 257 103 l 243 103 l 229 92 l 232 69 l 231 41 l 228 18 l 229 -4 l 229 -25 l 227 -50 l 227 -77 l 222 -100 l 222 -138 l 227 -153 l 227 -161 l 215 -153 l 215 -143 l 211 -129 l 210 -106 l 210 -69 l 208 -35 l 210 -7 l 207 56 l 208 83 l 204 103 l 184 107 l 158 109 l 134 111 l 109 117 l 90 119 l 69 125 l 56 134 l 56 146 l 71 142 l 87 139 l 107 132 l 129 131 l 157 127 l 178 125 l 207 122 l 208 143 l 204 161 l 201 191 l 200 215 l 201 245 l 201 273 l 200 292 l 204 306 l 204 321 l 201 349 l 204 379 l 200 406 l 197 429 l 195 450 l 171 457 l 149 464 l 125 472 l 104 485 l 87 505 l 74 525 l 66 547 l 64 572 l 66 599 l 72 631 l 83 665 l 92 688 l 103 711 l 114 733 l 127 755 l 143 771 l 174 790 l 175 818 l 175 848 l 178 873 l 175 889 l 178 916 l 176 947 l 183 971 l 175 983 l 183 1013 l 186 1039 l 178 1054 l 176 1076 l 184 1089 l 197 1099 l 216 1107 l 236 1108 l 257 1097 l 269 1092 l 293 1107 l 302 1112 l 315 1114 l 350 1121 l 357 1114 l 361 1101 l 364 1076 l 367 1065 l 364 1054 l 353 1036 l 338 1018 l 326 991 l 322 971 l 321 940 l 313 929 l 319 899 l 315 872 l 314 854 l 329 854 l 347 848 l 368 842 l 389 831 l 412 810 l 415 798 l 431 783 l 429 758 l 427 743 l 406 725 l 385 721 l 358 721 l 338 725 l 322 732 l 310 717 l 302 693 l 300 660 l 302 629 l 296 583 l 296 551 l 301 524 l 296 496 l 306 475 l 326 465 l 353 457 l 382 443 l 403 424 l 421 408 l 440 383 l 446 359 l 447 325 l 450 301 m 267 880 l 258 926 l 260 989 l 241 962 l 236 889 l 231 850 l 231 829 l 245 839 l 262 847 l 267 880 m 261 555 l 257 589 l 254 623 l 260 663 l 258 704 l 258 743 l 227 726 l 229 690 l 228 679 l 227 665 l 225 628 l 229 564 l 235 505 l 260 493 l 261 555 m 189 515 l 187 547 l 184 576 l 180 604 l 175 681 l 158 633 l 147 607 l 144 587 l 149 561 l 146 542 l 168 525 l 189 515 m 419 277 l 419 311 l 414 340 l 403 361 l 383 382 l 345 411 l 334 414 l 322 414 l 310 404 l 314 378 l 315 350 l 319 325 l 321 289 l 321 208 l 322 174 l 329 143 l 346 151 l 347 158 l 366 172 l 382 193 l 399 221 l 410 248 l 419 277 m 293 129 l 283 158 l 283 184 l 281 215 l 281 235 l 277 248 l 277 271 l 275 310 l 278 335 l 277 358 l 271 376 l 275 412 l 258 427 l 245 440 l 237 436 l 239 424 l 236 406 l 231 385 l 233 355 l 232 326 l 237 293 l 236 258 l 231 241 l 228 216 l 232 187 l 229 135 l 231 122 l 278 122 l 293 129 z "},"%":{"ha":729,"x_min":43,"x_max":686,"o":"m 248 861 l 239 854 l 232 864 l 243 869 l 248 861 m 350 768 l 347 754 l 345 729 l 347 711 l 340 694 l 325 682 l 313 675 l 294 663 l 273 656 l 254 648 l 228 643 l 205 640 l 170 637 l 147 643 l 117 653 l 102 663 l 82 682 l 65 701 l 56 724 l 50 743 l 46 764 l 43 783 l 43 802 l 45 821 l 54 842 l 60 861 l 62 889 l 62 913 l 69 929 l 83 951 l 97 966 l 113 979 l 134 989 l 160 989 l 179 985 l 197 979 l 216 971 l 236 961 l 252 947 l 258 932 l 264 922 l 264 905 l 254 899 l 239 889 l 210 884 l 189 868 l 171 848 l 158 829 l 150 810 l 147 787 l 139 743 l 149 724 l 170 707 l 191 701 l 216 701 l 236 707 l 258 711 l 278 724 l 290 729 l 296 746 l 300 765 l 301 794 l 296 817 l 293 836 l 288 854 l 290 878 l 294 890 l 306 893 l 319 884 l 325 871 l 332 850 l 335 832 l 343 817 l 347 790 l 350 768 m 644 957 l 642 945 l 635 932 l 625 922 l 616 913 l 602 888 l 591 871 l 587 854 l 576 836 l 570 817 l 553 802 l 545 781 l 534 771 l 524 749 l 509 725 l 507 714 l 496 701 l 488 682 l 486 663 l 476 643 l 465 619 l 449 590 l 435 562 l 415 536 l 407 518 l 399 513 l 389 489 l 378 468 l 368 463 l 367 447 l 357 431 l 345 412 l 334 393 l 329 382 l 315 372 l 310 357 l 300 336 l 294 322 l 285 313 l 278 292 l 268 267 l 257 244 l 245 229 l 243 216 l 233 201 l 225 183 l 210 164 l 200 144 l 200 134 l 196 123 l 186 104 l 176 83 l 171 68 l 163 58 l 158 46 l 149 28 l 143 8 l 143 -12 l 147 -29 l 150 -41 l 147 -50 l 146 -68 l 139 -79 l 129 -86 l 111 -92 l 93 -96 l 83 -98 l 72 -92 l 65 -79 l 61 -62 l 61 -41 l 71 -18 l 83 4 l 94 17 l 107 28 l 122 39 l 134 58 l 139 77 l 147 97 l 157 119 l 167 140 l 171 163 l 184 183 l 195 205 l 196 218 l 205 236 l 212 254 l 222 275 l 229 297 l 237 317 l 249 338 l 258 359 l 264 379 l 273 400 l 283 414 l 293 436 l 302 457 l 314 479 l 325 509 l 338 530 l 347 557 l 357 581 l 364 602 l 372 621 l 379 640 l 382 663 l 387 685 l 399 704 l 415 726 l 429 749 l 436 764 l 460 800 l 472 817 l 482 839 l 486 854 l 486 873 l 492 890 l 503 913 l 511 932 l 514 957 l 517 979 l 525 994 l 534 1003 l 553 1008 l 574 1008 l 591 1006 l 611 999 l 627 989 l 639 975 l 644 957 m 444 367 l 437 359 l 429 357 l 428 364 l 436 371 l 444 367 m 686 160 l 684 134 l 675 111 l 664 90 l 650 77 l 637 65 l 629 49 l 616 41 l 597 28 l 579 18 l 564 14 l 549 7 l 532 7 l 518 0 l 503 -1 l 484 -3 l 467 4 l 447 4 l 427 14 l 407 20 l 387 36 l 378 49 l 367 68 l 358 86 l 354 104 l 350 123 l 343 143 l 342 164 l 345 183 l 353 208 l 358 227 l 367 241 l 378 258 l 392 269 l 408 289 l 427 307 l 444 326 l 449 347 l 450 367 l 457 380 l 465 390 l 482 400 l 498 401 l 522 400 l 541 395 l 553 385 l 564 372 l 574 354 l 576 343 l 570 334 l 554 322 l 541 321 l 524 318 l 509 309 l 496 301 l 482 286 l 467 268 l 456 250 l 440 236 l 429 218 l 416 201 l 412 180 l 407 160 l 407 140 l 415 111 l 421 90 l 431 72 l 440 58 l 463 47 l 484 41 l 513 39 l 543 39 l 574 47 l 597 58 l 623 78 l 639 100 l 650 121 l 659 140 l 659 163 l 657 183 l 648 203 l 635 221 l 618 235 l 603 241 l 587 248 l 574 249 l 564 254 l 554 254 l 551 260 l 553 269 l 564 277 l 582 277 l 600 275 l 618 268 l 635 258 l 647 248 l 660 227 l 673 212 l 679 200 l 686 176 l 686 160 z "},"&":{"ha":729,"x_min":43,"x_max":686,"o":"m 114 873 l 111 860 l 103 852 l 90 856 l 77 861 l 75 869 l 79 879 l 69 876 l 60 876 l 52 879 l 43 890 l 43 903 l 56 907 l 71 905 l 79 895 l 83 884 l 97 885 l 109 880 l 114 873 m 389 574 l 385 566 l 371 561 l 364 570 l 364 578 l 372 585 l 383 583 l 389 574 m 686 475 l 679 463 l 669 456 l 644 456 l 627 453 l 606 456 l 555 456 l 532 453 l 513 449 l 501 439 l 493 424 l 492 401 l 489 379 l 489 355 l 492 332 l 493 309 l 496 289 l 500 267 l 504 243 l 504 221 l 513 200 l 519 180 l 525 158 l 528 135 l 532 107 l 543 54 l 549 31 l 555 14 l 555 3 l 564 -4 l 575 -21 l 576 -29 l 583 -33 l 586 -50 l 593 -61 l 595 -72 l 590 -81 l 582 -82 l 574 -82 l 564 -75 l 551 -56 l 539 -40 l 525 -22 l 511 -9 l 472 24 l 460 36 l 447 46 l 436 37 l 435 31 l 418 16 l 393 0 l 351 -14 l 329 -16 l 290 -16 l 271 -17 l 261 -11 l 231 -5 l 204 5 l 178 18 l 155 31 l 135 46 l 111 61 l 87 81 l 72 100 l 62 118 l 53 139 l 50 157 l 52 180 l 56 203 l 58 228 l 64 249 l 65 271 l 72 285 l 83 297 l 90 318 l 97 332 l 103 349 l 107 359 l 117 372 l 129 387 l 142 400 l 155 416 l 171 431 l 186 446 l 199 461 l 207 473 l 211 481 l 212 490 l 205 493 l 191 501 l 171 505 l 158 519 l 146 530 l 135 545 l 123 566 l 121 589 l 117 612 l 122 635 l 123 659 l 127 681 l 129 703 l 135 726 l 143 749 l 153 768 l 158 785 l 160 793 l 160 803 l 154 819 l 147 832 l 143 848 l 146 865 l 158 876 l 175 878 l 192 878 l 204 880 l 220 884 l 250 914 l 264 925 l 282 935 l 302 940 l 321 942 l 342 940 l 367 935 l 389 928 l 412 922 l 436 907 l 457 900 l 467 889 l 479 885 l 496 869 l 509 856 l 524 842 l 538 821 l 539 802 l 543 781 l 543 757 l 538 745 l 521 733 l 504 728 l 486 724 l 467 728 l 457 733 l 440 739 l 428 750 l 416 768 l 416 781 l 421 794 l 410 808 l 393 819 l 371 825 l 345 823 l 321 819 l 309 810 l 294 799 l 283 785 l 269 772 l 252 746 l 236 726 l 225 705 l 218 682 l 207 660 l 204 643 l 197 635 l 199 623 l 195 600 l 204 578 l 220 559 l 237 547 l 257 538 l 275 530 l 302 524 l 338 521 l 361 525 l 378 536 l 397 553 l 421 576 l 421 585 l 429 595 l 436 600 l 447 606 l 468 607 l 492 606 l 513 599 l 525 590 l 539 576 l 545 561 l 549 555 l 545 543 l 539 530 l 542 521 l 551 515 l 571 510 l 603 509 l 627 505 l 642 505 l 646 513 l 654 513 l 660 501 l 671 494 l 684 485 l 686 475 m 521 -61 l 513 -68 l 501 -60 l 511 -49 l 521 -54 l 521 -61 m 436 58 l 436 72 l 435 96 l 431 119 l 428 139 l 418 158 l 416 176 l 415 205 l 415 231 l 410 257 l 408 281 l 403 304 l 399 325 l 399 343 l 393 359 l 392 380 l 389 406 l 389 425 l 379 440 l 371 457 l 357 467 l 335 467 l 310 461 l 290 456 l 278 444 l 258 433 l 239 419 l 222 401 l 205 389 l 192 379 l 167 343 l 154 335 l 153 323 l 134 293 l 122 273 l 117 257 l 107 244 l 103 221 l 97 203 l 94 157 l 102 144 l 103 127 l 111 111 l 126 93 l 146 78 l 160 64 l 178 50 l 200 32 l 227 21 l 249 12 l 268 8 l 290 4 l 329 4 l 357 7 l 383 16 l 404 26 l 421 41 l 436 58 z "},"'":{"ha":237,"x_min":43,"x_max":167,"o":"m 167 937 l 160 932 l 158 913 l 149 888 l 146 872 l 142 868 l 142 851 l 136 842 l 136 832 l 129 817 l 127 794 l 123 779 l 126 757 l 126 739 l 121 714 l 121 693 l 115 675 l 117 667 l 115 654 l 121 633 l 111 614 l 104 608 l 94 608 l 85 621 l 81 637 l 81 660 l 79 692 l 81 711 l 79 743 l 75 762 l 75 785 l 69 790 l 69 828 l 64 857 l 64 885 l 62 911 l 54 929 l 50 945 l 43 966 l 46 987 l 58 1004 l 72 1013 l 97 1014 l 115 1010 l 132 1004 l 136 996 l 146 987 l 160 971 l 167 954 l 167 937 m 97 589 l 92 582 l 83 582 l 83 589 l 90 593 l 97 589 z "},"(":{"ha":555,"x_min":144,"x_max":555,"o":"m 555 1099 l 539 1090 l 539 1072 l 524 1059 l 504 1039 l 482 1025 l 456 1010 l 443 1000 l 429 991 l 419 977 l 401 961 l 389 954 l 385 942 l 375 933 l 367 914 l 347 889 l 334 868 l 317 846 l 309 821 l 294 802 l 283 774 l 277 750 l 265 729 l 256 721 l 249 697 l 241 676 l 229 650 l 221 625 l 215 599 l 207 571 l 201 545 l 196 515 l 193 492 l 186 456 l 184 428 l 184 396 l 183 370 l 183 315 l 184 288 l 186 273 l 191 250 l 192 225 l 195 205 l 201 174 l 205 147 l 212 123 l 225 96 l 231 74 l 243 57 l 256 25 l 264 9 l 275 0 l 286 -26 l 302 -47 l 311 -58 l 343 -98 l 351 -114 l 372 -131 l 389 -144 l 396 -154 l 412 -167 l 418 -178 l 403 -183 l 393 -178 l 380 -165 l 363 -155 l 357 -139 l 339 -127 l 325 -111 l 307 -96 l 297 -77 l 281 -57 l 269 -33 l 250 -17 l 240 7 l 229 32 l 216 50 l 208 71 l 201 93 l 192 111 l 187 129 l 180 154 l 176 174 l 172 197 l 164 222 l 158 262 l 158 290 l 151 319 l 149 349 l 149 372 l 144 392 l 149 416 l 144 444 l 149 468 l 149 498 l 153 529 l 154 550 l 154 576 l 160 604 l 163 628 l 171 648 l 174 665 l 176 684 l 186 703 l 187 724 l 197 743 l 201 768 l 212 790 l 222 821 l 229 846 l 239 879 l 245 908 l 256 935 l 277 961 l 286 986 l 298 1003 l 322 1028 l 342 1042 l 357 1060 l 370 1079 l 375 1107 l 385 1124 l 392 1145 l 404 1160 l 427 1173 l 446 1175 l 478 1174 l 500 1165 l 517 1156 l 534 1145 l 545 1131 l 555 1117 l 555 1099 z "},")":{"ha":555,"x_min":9,"x_max":421,"o":"m 421 547 l 416 524 l 416 493 l 412 463 l 411 441 l 411 415 l 406 387 l 403 364 l 395 343 l 392 326 l 389 309 l 379 289 l 378 268 l 368 249 l 364 224 l 353 201 l 343 171 l 336 146 l 326 113 l 319 83 l 310 57 l 289 31 l 279 5 l 267 -11 l 243 -36 l 224 -50 l 208 -68 l 196 -87 l 191 -115 l 180 -132 l 174 -153 l 161 -168 l 139 -180 l 119 -183 l 87 -182 l 65 -174 l 49 -164 l 31 -153 l 21 -139 l 9 -125 l 9 -107 l 26 -98 l 26 -81 l 41 -66 l 61 -47 l 83 -33 l 110 -18 l 122 -8 l 136 0 l 146 16 l 164 31 l 176 37 l 180 50 l 191 58 l 199 78 l 218 103 l 232 123 l 249 146 l 257 171 l 271 191 l 282 218 l 289 241 l 300 262 l 310 271 l 317 294 l 323 315 l 336 342 l 345 367 l 350 393 l 358 421 l 364 447 l 370 476 l 372 500 l 379 536 l 380 564 l 380 596 l 382 623 l 382 676 l 380 704 l 379 718 l 375 742 l 374 766 l 371 786 l 364 818 l 359 844 l 353 868 l 340 896 l 335 918 l 322 935 l 310 966 l 301 982 l 290 991 l 279 1018 l 262 1039 l 254 1050 l 222 1090 l 214 1105 l 193 1122 l 176 1136 l 170 1146 l 153 1158 l 147 1169 l 163 1175 l 172 1169 l 184 1157 l 203 1147 l 208 1131 l 227 1120 l 240 1103 l 258 1088 l 268 1068 l 285 1048 l 296 1025 l 315 1008 l 325 985 l 336 960 l 349 942 l 357 921 l 364 899 l 374 880 l 378 863 l 385 838 l 389 818 l 393 794 l 401 770 l 407 729 l 407 701 l 414 672 l 416 643 l 416 619 l 421 600 l 416 575 l 421 547 z "},"*":{"ha":532,"x_min":43,"x_max":489,"o":"m 489 825 l 482 819 l 467 817 l 439 817 l 399 812 l 364 817 l 300 817 l 278 818 l 302 798 l 335 768 l 363 736 l 375 708 l 386 682 l 382 671 l 368 667 l 357 676 l 342 697 l 302 742 l 281 771 l 261 781 l 262 745 l 258 722 l 258 694 l 261 637 l 267 619 l 257 608 l 248 603 l 236 612 l 227 633 l 222 664 l 222 701 l 215 749 l 216 770 l 200 739 l 175 701 l 158 669 l 144 637 l 126 625 l 111 628 l 102 639 l 102 659 l 117 686 l 136 715 l 171 754 l 195 790 l 192 807 l 69 812 l 46 825 l 43 836 l 50 851 l 69 857 l 93 859 l 121 857 l 157 852 l 165 850 l 187 854 l 171 873 l 143 892 l 114 916 l 103 936 l 100 961 l 114 974 l 136 975 l 168 945 l 183 935 l 195 932 l 199 937 l 200 965 l 205 993 l 216 1019 l 236 1031 l 257 1028 l 264 1013 l 272 989 l 272 971 l 267 909 l 262 890 l 283 913 l 306 947 l 330 977 l 354 994 l 378 989 l 403 974 l 399 961 l 386 958 l 366 958 l 345 951 l 330 932 l 310 908 l 293 880 l 288 854 l 301 850 l 345 846 l 378 843 l 415 848 l 454 847 l 479 846 l 489 825 m 111 753 l 104 739 l 93 733 l 81 746 l 82 766 l 102 765 l 111 753 z "},"+":{"ha":803,"x_min":8,"x_max":745,"o":"m 745 322 l 710 313 l 677 313 l 635 317 l 589 310 l 553 311 l 518 310 l 481 307 l 453 304 l 432 292 l 432 261 l 429 171 l 422 117 l 414 83 l 380 78 l 363 111 l 371 170 l 363 220 l 367 257 l 367 292 l 355 310 l 326 307 l 294 301 l 175 297 l 144 290 l 106 290 l 66 292 l 40 298 l 16 307 l 8 325 l 12 343 l 32 354 l 57 361 l 81 368 l 106 368 l 135 370 l 155 368 l 192 368 l 224 363 l 244 364 l 271 361 l 292 363 l 314 361 l 335 357 l 354 363 l 358 400 l 358 422 l 353 444 l 355 464 l 355 492 l 353 513 l 353 538 l 349 567 l 342 581 l 335 596 l 330 611 l 335 625 l 346 633 l 367 640 l 386 643 l 411 639 l 429 632 l 441 619 l 437 604 l 441 587 l 449 575 l 460 559 l 463 542 l 460 518 l 456 493 l 449 478 l 450 464 l 443 444 l 441 425 l 437 403 l 436 387 l 443 371 l 460 361 l 488 357 l 513 357 l 543 354 l 602 354 l 624 357 l 647 357 l 681 351 l 705 350 l 733 347 l 745 322 m 411 31 l 404 17 l 393 11 l 380 24 l 382 45 l 401 43 l 411 31 z "},",":{"ha":340,"x_min":97,"x_max":241,"o":"m 241 14 l 239 -8 l 229 -60 l 220 -89 l 208 -111 l 200 -129 l 187 -147 l 176 -163 l 164 -179 l 155 -193 l 144 -208 l 129 -220 l 118 -227 l 111 -225 l 106 -220 l 107 -205 l 123 -193 l 134 -180 l 143 -163 l 158 -142 l 175 -118 l 184 -92 l 191 -74 l 195 -57 l 195 -26 l 184 -18 l 171 -26 l 158 -33 l 144 -37 l 129 -37 l 117 -32 l 107 -21 l 100 0 l 97 20 l 104 39 l 123 58 l 132 78 l 165 97 l 195 97 l 210 100 l 228 96 l 236 83 l 240 68 l 240 29 l 241 14 z "},"-":{"ha":511,"x_min":43,"x_max":468,"o":"m 468 218 l 460 214 l 435 208 l 406 208 l 389 215 l 374 214 l 347 215 l 315 218 l 290 215 l 268 214 l 239 208 l 195 205 l 178 200 l 135 191 l 114 191 l 75 196 l 60 203 l 50 215 l 43 232 l 43 257 l 52 277 l 72 290 l 92 297 l 180 297 l 205 296 l 436 244 l 450 237 l 463 228 l 468 218 z "},".":{"ha":340,"x_min":85,"x_max":254,"o":"m 254 56 l 252 41 l 227 20 l 220 7 l 210 -7 l 204 -12 l 195 -26 l 168 -46 l 153 -47 l 134 -45 l 122 -35 l 115 -16 l 111 -7 l 94 7 l 90 16 l 90 25 l 86 36 l 85 50 l 102 65 l 134 83 l 163 97 l 200 97 l 216 90 l 222 81 l 237 78 l 252 69 l 254 56 m 216 -53 l 210 -58 l 201 -47 l 208 -43 l 216 -46 l 216 -53 z "},"/":{"ha":657,"x_min":0,"x_max":657,"o":"m 657 1023 l 654 1010 l 647 996 l 635 975 l 616 968 l 600 950 l 583 921 l 549 854 l 500 768 l 469 732 l 456 697 l 437 659 l 419 624 l 403 586 l 382 549 l 357 510 l 340 485 l 335 465 l 325 453 l 300 408 l 281 375 l 264 353 l 250 322 l 239 300 l 220 260 l 201 228 l 180 187 l 160 146 l 149 119 l 142 97 l 127 75 l 114 49 l 104 21 l 96 0 l 86 -25 l 75 -47 l 56 -68 l 43 -87 l 32 -109 l 18 -125 l 3 -127 l 0 -118 l 1 -102 l 14 -74 l 31 -37 l 46 -5 l 69 26 l 87 65 l 106 107 l 126 149 l 136 176 l 160 236 l 183 286 l 200 329 l 220 371 l 240 412 l 258 457 l 285 514 l 330 628 l 347 660 l 364 697 l 376 733 l 396 764 l 410 789 l 449 868 l 481 922 l 500 961 l 503 979 l 507 1014 l 501 1040 l 490 1060 l 489 1079 l 501 1092 l 528 1097 l 551 1093 l 564 1083 l 576 1075 l 591 1080 l 612 1076 l 635 1067 l 654 1051 l 657 1023 z "},":":{"ha":340,"x_min":85,"x_max":254,"o":"m 254 436 l 252 424 l 227 401 l 220 389 l 210 374 l 204 370 l 195 354 l 180 343 l 168 336 l 153 334 l 134 338 l 122 347 l 115 367 l 111 374 l 103 382 l 94 389 l 90 396 l 90 406 l 86 416 l 85 432 l 102 446 l 134 465 l 163 478 l 200 478 l 216 472 l 222 463 l 237 458 l 252 452 l 254 436 m 254 56 l 252 41 l 227 20 l 220 7 l 210 -7 l 204 -12 l 195 -26 l 180 -37 l 168 -46 l 153 -47 l 134 -45 l 122 -35 l 115 -16 l 111 -7 l 94 7 l 90 16 l 90 25 l 86 36 l 85 50 l 102 65 l 134 83 l 163 97 l 200 97 l 216 90 l 222 81 l 237 78 l 252 69 l 254 56 m 216 -53 l 210 -58 l 201 -47 l 208 -43 l 216 -46 l 216 -53 z "},";":{"ha":340,"x_min":85,"x_max":254,"o":"m 254 436 l 252 424 l 227 401 l 220 389 l 210 374 l 204 370 l 195 354 l 180 343 l 168 336 l 153 334 l 134 338 l 122 347 l 115 367 l 111 374 l 103 382 l 94 389 l 90 396 l 90 406 l 86 416 l 85 432 l 102 446 l 134 465 l 163 478 l 200 478 l 216 472 l 222 463 l 237 458 l 252 452 l 254 436 m 240 14 l 236 -8 l 232 -37 l 228 -60 l 216 -89 l 207 -111 l 197 -129 l 184 -147 l 175 -163 l 163 -179 l 153 -193 l 143 -208 l 126 -220 l 117 -227 l 107 -225 l 104 -220 l 106 -205 l 121 -193 l 132 -180 l 139 -163 l 157 -142 l 171 -118 l 183 -92 l 189 -74 l 191 -57 l 191 -26 l 183 -18 l 170 -26 l 157 -33 l 143 -37 l 126 -37 l 114 -32 l 106 -21 l 97 0 l 94 20 l 102 39 l 113 49 l 121 58 l 129 78 l 146 87 l 164 97 l 191 97 l 208 100 l 227 96 l 233 83 l 239 68 l 239 29 l 240 14 z "},"<":{"ha":628,"x_min":46,"x_max":567,"o":"m 567 374 l 561 353 l 534 334 l 481 322 l 443 309 l 416 301 l 387 293 l 366 289 l 345 282 l 319 275 l 293 269 l 265 257 l 243 249 l 221 245 l 201 244 l 200 236 l 241 215 l 278 201 l 286 196 l 318 182 l 338 171 l 354 171 l 372 160 l 389 153 l 404 140 l 421 134 l 433 119 l 441 110 l 441 100 l 433 93 l 421 94 l 406 103 l 387 114 l 372 125 l 363 125 l 350 132 l 329 139 l 309 147 l 285 157 l 265 164 l 248 171 l 222 179 l 196 189 l 170 192 l 144 199 l 125 201 l 110 205 l 98 201 l 83 201 l 71 203 l 58 211 l 49 222 l 46 236 l 52 253 l 60 260 l 75 268 l 97 272 l 117 273 l 138 282 l 154 289 l 176 298 l 200 306 l 221 317 l 244 323 l 330 351 l 359 363 l 404 368 l 419 376 l 436 389 l 453 397 l 472 404 l 489 416 l 504 427 l 517 428 l 534 427 l 551 414 l 559 396 l 567 374 m 482 74 l 472 64 l 463 64 l 446 71 l 441 82 l 446 93 l 454 97 l 463 96 l 475 87 l 482 82 l 482 74 z "},"=":{"ha":511,"x_min":43,"x_max":484,"o":"m 484 385 l 467 372 l 452 392 l 465 403 l 478 393 l 484 385 m 437 401 l 435 390 l 421 385 l 404 382 l 389 380 l 363 382 l 330 385 l 306 382 l 283 380 l 254 376 l 212 359 l 197 351 l 182 340 l 155 335 l 136 332 l 129 317 l 117 311 l 109 322 l 96 330 l 81 334 l 68 342 l 60 355 l 57 372 l 61 390 l 81 407 l 97 416 l 125 424 l 158 431 l 186 432 l 210 435 l 243 429 l 300 431 l 361 428 l 389 421 l 412 416 l 431 414 l 437 401 m 468 220 l 460 215 l 435 211 l 406 211 l 389 216 l 374 215 l 347 216 l 315 220 l 290 216 l 268 215 l 239 211 l 195 208 l 178 203 l 161 195 l 114 195 l 103 172 l 82 167 l 66 195 l 60 205 l 50 216 l 43 232 l 43 249 l 52 265 l 72 278 l 92 285 l 117 297 l 154 288 l 180 285 l 205 283 l 346 262 l 374 256 l 397 252 l 415 249 l 436 243 l 450 237 l 463 228 l 468 220 z "},">":{"ha":628,"x_min":87,"x_max":572,"o":"m 572 264 l 564 248 l 553 240 l 538 231 l 514 224 l 494 220 l 473 210 l 457 201 l 432 191 l 408 180 l 386 168 l 371 164 l 357 154 l 343 146 l 326 139 l 309 132 l 294 122 l 272 117 l 250 113 l 232 103 l 215 89 l 197 78 l 176 71 l 158 56 l 142 45 l 129 43 l 111 41 l 97 54 l 89 71 l 87 93 l 94 114 l 123 136 l 179 153 l 220 170 l 245 178 l 267 187 l 281 192 l 298 199 l 319 207 l 338 212 l 358 229 l 372 235 l 395 240 l 414 241 l 416 252 l 404 252 l 385 253 l 368 258 l 351 261 l 318 277 l 298 282 l 283 289 l 271 297 l 248 306 l 227 313 l 210 311 l 192 325 l 176 330 l 161 345 l 144 350 l 134 364 l 127 372 l 135 387 l 144 395 l 157 395 l 171 386 l 187 376 l 201 368 l 211 368 l 222 363 l 241 357 l 261 350 l 285 343 l 301 338 l 319 332 l 343 325 l 370 318 l 395 318 l 419 314 l 439 310 l 458 297 l 481 301 l 496 293 l 511 290 l 522 294 l 538 296 l 550 296 l 559 289 l 570 278 l 572 264 z "},"?":{"ha":496,"x_min":43,"x_max":454,"o":"m 454 602 l 441 558 l 429 534 l 424 515 l 408 498 l 396 484 l 379 473 l 364 458 l 347 450 l 335 446 l 321 436 l 300 424 l 281 411 l 258 395 l 239 379 l 222 370 l 210 357 l 205 334 l 200 309 l 204 286 l 204 245 l 205 227 l 204 211 l 199 196 l 186 193 l 175 201 l 171 215 l 171 236 l 165 262 l 165 288 l 158 313 l 155 338 l 158 357 l 167 378 l 178 392 l 195 411 l 211 427 l 236 440 l 257 458 l 269 473 l 283 482 l 296 484 l 302 488 l 325 498 l 342 515 l 376 547 l 386 568 l 393 593 l 389 628 l 385 653 l 378 673 l 372 697 l 364 717 l 347 728 l 329 733 l 302 737 l 275 734 l 254 729 l 232 714 l 212 693 l 199 673 l 192 650 l 180 632 l 168 612 l 149 603 l 129 597 l 107 591 l 83 591 l 64 602 l 52 612 l 45 629 l 43 648 l 46 663 l 53 679 l 72 697 l 90 708 l 107 718 l 134 739 l 147 758 l 165 778 l 192 794 l 216 804 l 237 810 l 252 815 l 269 819 l 289 819 l 313 822 l 340 815 l 358 808 l 385 794 l 403 779 l 412 765 l 425 745 l 429 724 l 436 703 l 440 679 l 444 659 l 447 639 l 454 623 l 454 602 m 211 134 l 200 127 l 192 135 l 199 140 l 207 140 l 211 134 m 283 50 l 282 39 l 271 29 l 258 20 l 248 14 l 243 4 l 237 -8 l 229 -22 l 207 -41 l 191 -41 l 175 -37 l 165 -32 l 158 -12 l 160 -5 l 150 4 l 139 7 l 127 14 l 122 24 l 126 36 l 132 46 l 146 60 l 139 69 l 139 83 l 146 93 l 160 103 l 176 103 l 195 97 l 212 97 l 225 93 l 236 89 l 249 83 l 254 71 l 268 71 l 282 65 l 283 50 z "},"@":{"ha":840,"x_min":28,"x_max":781,"o":"m 586 292 l 581 283 l 574 283 l 570 292 l 581 301 l 586 292 m 781 347 l 778 328 l 772 315 l 777 288 l 775 271 l 771 254 l 766 254 l 770 245 l 760 236 l 758 229 l 750 222 l 747 204 l 737 186 l 724 167 l 713 153 l 697 150 l 690 140 l 675 125 l 653 113 l 635 114 l 612 104 l 578 100 l 553 98 l 524 102 l 507 104 l 488 109 l 475 113 l 467 117 l 454 123 l 444 131 l 439 135 l 429 155 l 425 168 l 418 176 l 414 182 l 411 211 l 403 239 l 386 268 l 389 277 l 386 288 l 383 301 l 375 297 l 364 296 l 323 296 l 318 300 l 310 306 l 300 314 l 292 323 l 289 334 l 288 345 l 292 357 l 294 367 l 301 375 l 310 385 l 321 392 l 330 396 l 340 399 l 354 397 l 370 400 l 376 399 l 383 399 l 389 406 l 387 415 l 385 425 l 379 435 l 375 441 l 366 452 l 347 457 l 338 461 l 326 461 l 317 465 l 310 472 l 307 479 l 309 488 l 314 494 l 322 500 l 330 507 l 343 511 l 355 511 l 368 517 l 380 518 l 400 514 l 415 510 l 427 503 l 433 494 l 441 488 l 452 476 l 454 469 l 457 457 l 457 444 l 456 432 l 454 414 l 454 401 l 452 390 l 446 379 l 444 364 l 440 347 l 439 332 l 436 314 l 437 314 l 436 290 l 439 275 l 440 258 l 439 235 l 436 215 l 439 192 l 443 182 l 450 172 l 458 153 l 465 144 l 482 136 l 492 132 l 500 127 l 517 121 l 534 122 l 555 134 l 576 150 l 595 176 l 607 199 l 616 210 l 623 222 l 633 231 l 650 237 l 667 250 l 675 260 l 686 269 l 697 277 l 707 289 l 717 304 l 726 328 l 736 357 l 733 383 l 730 415 l 732 433 l 726 447 l 726 457 l 718 473 l 710 488 l 704 501 l 693 514 l 689 528 l 677 539 l 642 581 l 621 597 l 590 616 l 553 633 l 529 639 l 514 637 l 505 640 l 498 643 l 489 646 l 479 652 l 469 654 l 460 654 l 446 660 l 411 656 l 393 654 l 375 654 l 357 656 l 339 648 l 317 643 l 307 643 l 300 646 l 298 632 l 296 625 l 290 621 l 286 621 l 269 615 l 253 611 l 245 606 l 224 602 l 199 599 l 164 572 l 129 532 l 110 497 l 109 492 l 109 485 l 106 479 l 98 472 l 96 458 l 83 437 l 86 389 l 85 379 l 86 355 l 100 283 l 119 240 l 139 207 l 146 201 l 150 197 l 151 187 l 191 143 l 222 123 l 235 115 l 241 107 l 262 103 l 283 97 l 285 94 l 294 90 l 306 86 l 310 81 l 313 75 l 315 68 l 314 60 l 306 56 l 297 54 l 289 56 l 283 58 l 273 62 l 268 69 l 245 81 l 231 93 l 193 110 l 168 127 l 127 167 l 103 196 l 96 200 l 96 205 l 62 260 l 56 277 l 49 289 l 43 297 l 41 309 l 31 361 l 29 393 l 28 400 l 28 408 l 31 415 l 36 457 l 47 492 l 58 518 l 82 554 l 114 595 l 115 602 l 122 604 l 123 602 l 144 621 l 171 636 l 193 653 l 216 668 l 243 679 l 261 682 l 279 697 l 294 685 l 298 672 l 317 676 l 325 684 l 336 686 l 361 685 l 385 685 l 412 689 l 433 694 l 452 688 l 489 685 l 550 663 l 576 656 l 611 637 l 659 607 l 707 561 l 715 549 l 722 539 l 725 530 l 732 524 l 733 517 l 742 505 l 762 468 l 762 461 l 761 457 l 762 450 l 774 432 l 772 400 l 781 374 l 781 347 m 387 371 l 387 372 l 383 376 l 380 378 l 374 376 l 372 378 l 367 376 l 361 376 l 357 375 l 354 376 l 351 372 l 349 371 l 343 366 l 342 359 l 342 357 l 346 353 l 358 353 l 364 354 l 367 354 l 371 355 l 376 357 l 382 361 l 385 364 l 386 367 l 387 371 z "},"A":{"ha":699,"x_min":35,"x_max":679,"o":"m 667 385 l 665 379 l 660 376 l 656 376 l 656 380 l 657 386 l 660 387 l 667 385 m 677 -16 l 672 -22 l 661 -26 l 657 -20 l 650 -9 l 640 9 l 627 28 l 607 62 l 593 96 l 587 119 l 578 132 l 561 180 l 547 197 l 536 222 l 521 248 l 509 258 l 479 290 l 473 309 l 450 325 l 421 330 l 390 326 l 358 321 l 335 311 l 310 289 l 286 277 l 281 265 l 262 252 l 224 229 l 216 221 l 211 191 l 211 171 l 201 160 l 201 136 l 197 111 l 201 71 l 197 43 l 189 14 l 176 -9 l 161 -28 l 136 -50 l 113 -54 l 90 -57 l 83 -52 l 71 -52 l 61 -40 l 54 -35 l 54 -21 l 47 -11 l 47 17 l 54 35 l 53 50 l 57 60 l 65 64 l 65 77 l 78 83 l 83 96 l 92 113 l 103 118 l 114 143 l 118 171 l 125 175 l 122 193 l 127 221 l 127 239 l 115 265 l 107 289 l 104 315 l 103 334 l 107 339 l 104 349 l 104 354 l 125 379 l 125 387 l 136 400 l 151 424 l 170 450 l 174 469 l 175 484 l 174 494 l 180 529 l 186 562 l 197 604 l 200 628 l 205 639 l 204 675 l 201 707 l 204 737 l 215 762 l 225 782 l 237 791 l 241 810 l 250 822 l 254 833 l 250 842 l 253 860 l 243 882 l 245 904 l 237 914 l 241 932 l 250 932 l 265 943 l 273 945 l 279 956 l 301 958 l 319 950 l 335 926 l 342 922 l 353 901 l 366 876 l 371 852 l 383 825 l 399 804 l 400 793 l 411 781 l 418 766 l 431 749 l 429 732 l 441 707 l 443 696 l 450 682 l 457 659 l 468 639 l 472 606 l 478 582 l 486 549 l 486 536 l 493 518 l 503 486 l 511 457 l 514 433 l 521 416 l 539 404 l 561 397 l 587 399 l 612 399 l 637 393 l 642 386 l 647 379 l 642 375 l 637 368 l 627 357 l 612 355 l 607 349 l 586 345 l 562 334 l 553 325 l 553 309 l 557 289 l 566 269 l 576 250 l 586 222 l 593 205 l 602 179 l 611 155 l 625 126 l 635 102 l 640 64 l 647 60 l 656 40 l 665 21 l 665 9 l 672 3 l 677 -16 m 679 -65 q 672 -68 678 -66 l 668 -66 l 667 -62 l 671 -58 l 677 -60 l 679 -65 m 134 446 l 132 439 l 126 435 l 118 440 l 118 447 l 125 454 l 132 457 l 134 453 l 134 446 m 47 104 l 41 102 l 35 104 l 35 111 l 39 114 l 46 113 l 47 109 l 47 104 m 72 -77 l 71 -82 l 61 -81 l 57 -71 l 64 -69 l 72 -69 l 72 -77 m 424 424 l 418 439 l 404 464 l 401 488 l 395 498 l 390 513 l 382 526 l 383 562 l 366 586 l 371 596 l 364 612 l 355 661 l 345 684 l 343 701 l 328 721 l 322 732 l 309 761 l 281 733 l 283 715 l 273 700 l 273 684 l 271 675 l 265 647 l 262 623 l 262 615 l 256 606 l 256 586 l 253 547 l 253 529 l 245 513 l 250 496 l 243 475 l 254 458 l 286 444 l 319 432 l 347 416 l 363 406 l 390 400 l 408 404 l 414 408 l 424 424 m 358 421 l 350 419 l 343 424 l 345 429 l 351 429 l 355 432 l 358 428 l 358 421 z "},"B":{"ha":700,"x_min":28,"x_max":652,"o":"m 204 993 l 203 985 l 186 983 l 191 993 l 199 1003 l 204 993 m 652 281 l 650 254 l 643 237 l 631 215 l 624 193 l 602 172 l 591 142 l 576 117 l 561 114 l 555 119 l 567 132 l 568 142 l 574 149 l 587 160 l 608 197 l 618 222 l 633 264 l 632 318 l 628 350 l 619 359 l 618 375 l 608 389 l 608 401 l 586 424 l 572 447 l 561 456 l 558 467 l 538 485 l 505 504 l 446 509 l 396 503 l 359 496 l 319 489 l 236 461 l 224 447 l 204 446 l 197 424 l 196 401 l 197 371 l 196 334 l 193 306 l 196 277 l 212 277 l 222 294 l 232 306 l 248 301 l 256 296 l 254 279 l 249 257 l 236 236 l 232 200 l 256 180 l 273 164 l 289 146 l 300 121 l 318 117 l 339 107 l 363 93 l 379 90 l 401 82 l 431 75 l 461 77 l 517 77 l 538 89 l 538 78 l 532 69 l 517 57 l 507 41 l 498 39 l 488 45 l 440 45 l 404 49 l 396 58 l 371 61 l 350 78 l 332 83 l 318 93 l 306 89 l 282 97 l 248 90 l 205 68 l 153 50 l 143 45 l 104 25 l 79 18 l 60 35 l 35 62 l 28 98 l 39 129 l 36 135 l 45 142 l 52 149 l 68 174 l 62 197 l 68 218 l 61 235 l 68 267 l 81 281 l 103 306 l 103 330 l 107 347 l 103 395 l 109 408 l 110 440 l 107 454 l 109 503 l 102 559 l 94 581 l 90 612 l 81 637 l 74 696 l 68 711 l 69 733 l 77 749 l 77 839 l 81 882 l 90 900 l 113 920 l 139 925 l 153 933 l 191 937 l 228 937 l 277 940 l 313 947 l 347 953 l 366 958 l 379 954 l 404 951 l 461 951 l 514 946 l 546 945 l 574 926 l 593 890 l 602 859 l 608 825 l 608 791 l 602 754 l 599 717 l 570 669 l 549 650 l 529 621 l 511 614 l 494 596 l 472 579 l 458 572 l 461 562 l 479 557 l 505 554 l 529 547 l 549 528 l 568 517 l 582 489 l 608 454 l 624 424 l 639 404 l 644 383 l 652 350 l 650 328 l 652 306 l 652 281 m 539 151 l 536 140 l 524 135 l 507 135 l 472 149 l 449 164 l 414 184 l 390 222 l 371 257 l 363 279 l 358 301 l 358 318 l 366 326 l 392 338 l 422 334 l 463 339 l 473 332 l 478 319 l 468 306 l 453 298 l 456 268 l 478 241 l 498 215 l 514 186 l 526 180 l 539 151 m 586 779 l 582 817 l 579 829 l 582 842 l 562 873 l 536 896 l 525 896 l 517 908 l 441 908 l 410 900 l 364 889 l 318 875 l 273 857 l 229 831 l 212 822 l 193 804 l 183 779 l 176 733 l 178 707 l 184 663 l 186 624 l 192 604 l 192 572 l 196 545 l 212 538 l 237 534 l 267 538 l 326 555 l 371 559 l 396 561 l 436 579 l 456 593 l 475 604 l 493 624 l 504 628 l 517 650 l 538 665 l 550 684 l 570 696 l 572 726 l 581 743 l 579 755 l 586 779 z "},"C":{"ha":726,"x_min":49,"x_max":684,"o":"m 684 330 l 672 298 l 671 278 l 647 225 l 628 187 l 616 171 l 599 144 l 576 123 l 558 100 l 526 81 l 467 68 l 440 65 l 411 71 l 347 78 l 328 89 l 298 102 l 252 132 l 204 164 l 168 203 l 142 218 l 126 244 l 97 271 l 78 311 l 58 350 l 50 392 l 50 447 l 49 513 l 57 562 l 71 608 l 92 652 l 93 694 l 106 737 l 121 757 l 129 771 l 151 785 l 183 804 l 212 812 l 254 819 l 306 840 l 347 854 l 370 871 l 411 868 l 456 864 l 484 843 l 504 839 l 534 808 l 564 757 l 566 739 l 545 736 l 536 708 l 503 696 l 475 714 l 435 717 l 401 734 l 364 739 l 329 728 l 283 717 l 245 701 l 222 682 l 204 656 l 186 624 l 168 572 l 155 513 l 153 482 l 151 443 l 158 396 l 161 349 l 179 307 l 197 277 l 257 207 l 293 183 l 317 171 l 385 164 l 444 180 l 494 197 l 526 229 l 549 264 l 585 307 l 606 315 l 629 321 l 647 350 l 664 361 l 684 357 l 684 330 z "},"D":{"ha":578,"x_min":-28,"x_max":517,"o":"m 334 644 l 326 637 l 301 635 l 290 650 l 326 653 l 334 644 m 517 534 l 510 505 l 507 467 l 498 429 l 503 401 l 505 361 l 497 334 l 497 296 l 481 264 l 468 232 l 418 150 l 395 131 l 364 110 l 334 98 l 269 90 l 233 94 l 204 90 l 186 89 l 172 94 l 165 100 l 158 110 l 165 129 l 182 149 l 203 155 l 215 151 l 240 171 l 264 180 l 289 183 l 310 200 l 334 210 l 355 222 l 379 250 l 399 282 l 418 309 l 428 335 l 424 366 l 429 393 l 424 416 l 419 440 l 428 468 l 425 489 l 432 517 l 429 550 l 422 582 l 412 625 l 400 665 l 389 684 l 386 707 l 371 733 l 350 753 l 326 765 l 275 762 l 244 753 l 229 733 l 224 703 l 214 675 l 205 639 l 199 607 l 193 570 l 187 547 l 183 529 l 187 503 l 193 478 l 179 465 l 186 450 l 180 431 l 180 404 l 172 383 l 171 353 l 171 330 l 164 309 l 158 292 l 158 271 l 154 245 l 144 211 l 144 193 l 143 149 l 142 127 l 143 107 l 149 81 l 158 68 l 157 52 l 149 33 l 136 31 l 123 33 l 114 39 l 109 46 l 102 61 l 96 97 l 94 125 l 96 154 l 94 183 l 94 204 l 100 241 l 103 279 l 110 313 l 113 339 l 118 367 l 118 404 l 121 447 l 126 485 l 121 505 l 118 538 l 122 579 l 132 612 l 132 639 l 142 688 l 142 714 l 136 734 l 138 753 l 126 766 l 121 785 l 118 800 l 122 827 l 135 839 l 165 850 l 195 864 l 227 873 l 257 875 l 278 875 l 330 864 l 354 861 l 372 851 l 376 842 l 397 838 l 418 819 l 436 804 l 450 775 l 463 753 l 471 726 l 481 707 l 490 679 l 503 646 l 507 619 l 510 587 l 517 561 l 517 534 m 3 579 l -11 570 l -28 575 l -14 586 l 3 579 z "},"E":{"ha":596,"x_min":53,"x_max":624,"o":"m 624 798 l 623 785 l 612 781 l 603 781 l 583 789 l 566 798 l 518 798 l 486 787 l 450 781 l 406 758 l 375 753 l 355 753 l 336 745 l 285 743 l 241 743 l 196 739 l 157 732 l 136 725 l 123 704 l 118 681 l 114 646 l 111 611 l 104 551 l 106 539 l 100 500 l 106 496 l 117 498 l 134 505 l 157 526 l 178 534 l 222 534 l 281 533 l 318 530 l 325 525 l 336 515 l 371 515 l 383 507 l 396 509 l 422 500 l 450 496 l 452 489 l 447 484 l 431 472 l 415 472 l 403 475 l 357 476 l 306 468 l 258 463 l 215 456 l 172 453 l 138 440 l 104 464 l 100 427 l 102 400 l 104 367 l 113 330 l 125 290 l 138 254 l 176 200 l 197 176 l 227 158 l 256 143 l 292 125 l 335 119 l 380 111 l 415 103 l 437 104 l 457 98 l 510 90 l 521 81 l 518 71 l 514 58 l 498 56 l 465 60 l 431 58 l 376 56 l 339 58 l 311 68 l 298 66 l 279 71 l 241 81 l 216 86 l 197 103 l 176 117 l 158 131 l 139 163 l 118 196 l 114 227 l 118 248 l 102 278 l 97 311 l 85 329 l 82 368 l 75 393 l 79 419 l 72 457 l 79 482 l 69 500 l 74 507 l 72 528 l 79 550 l 75 572 l 86 596 l 82 628 l 82 653 l 92 669 l 89 693 l 94 707 l 92 732 l 79 746 l 54 771 l 53 785 l 54 808 l 60 839 l 69 861 l 94 878 l 117 885 l 134 892 l 163 884 l 195 868 l 236 867 l 293 868 l 368 871 l 412 871 l 447 861 l 482 859 l 509 854 l 533 847 l 551 842 l 564 842 l 590 827 l 612 812 l 624 798 m 178 100 l 175 90 l 163 92 l 163 103 l 172 110 l 178 100 z "},"F":{"ha":481,"x_min":71,"x_max":525,"o":"m 525 911 l 521 895 l 509 882 l 496 873 l 479 872 l 433 878 l 399 888 l 370 888 l 350 882 l 329 871 l 309 863 l 302 854 l 289 848 l 254 822 l 237 804 l 227 785 l 218 762 l 205 739 l 203 714 l 205 684 l 199 656 l 193 624 l 191 591 l 191 561 l 187 538 l 195 524 l 208 515 l 235 510 l 279 515 l 306 515 l 329 510 l 359 505 l 374 498 l 393 503 l 411 496 l 414 479 l 392 467 l 340 467 l 302 468 l 250 468 l 225 463 l 199 465 l 187 453 l 186 433 l 170 416 l 154 404 l 151 385 l 154 363 l 157 311 l 161 269 l 163 228 l 163 180 l 164 129 l 171 81 l 174 39 l 186 12 l 195 -8 l 195 -33 l 186 -53 l 182 -65 l 174 -74 l 164 -77 l 154 -71 l 132 -50 l 118 -33 l 107 -8 l 104 17 l 111 33 l 122 49 l 118 96 l 111 164 l 110 215 l 107 264 l 103 296 l 93 334 l 93 371 l 86 399 l 83 446 l 74 541 l 78 579 l 71 679 l 71 715 l 74 747 l 83 785 l 79 807 l 90 839 l 98 880 l 113 903 l 136 913 l 164 913 l 176 920 l 191 921 l 199 932 l 218 945 l 239 957 l 267 979 l 279 997 l 298 1010 l 318 1018 l 340 1018 l 368 1010 l 386 996 l 447 982 l 456 971 l 476 968 l 482 958 l 496 945 l 511 940 l 521 926 l 525 911 z "},"G":{"ha":539,"x_min":53,"x_max":489,"o":"m 489 -17 l 485 -37 l 485 -50 l 479 -60 l 471 -66 l 458 -62 l 447 -45 l 444 -25 l 435 -16 l 433 9 l 422 46 l 407 71 l 393 100 l 386 125 l 374 161 l 371 191 l 355 212 l 339 227 l 318 215 l 298 203 l 241 191 l 220 193 l 195 195 l 146 212 l 114 227 l 111 239 l 86 250 l 81 267 l 69 278 l 60 304 l 56 328 l 54 353 l 53 392 l 54 433 l 62 468 l 60 488 l 54 521 l 53 559 l 56 596 l 68 624 l 86 663 l 104 694 l 121 714 l 131 733 l 158 762 l 176 787 l 196 807 l 215 828 l 235 839 l 261 836 l 285 847 l 330 851 l 350 867 l 386 879 l 415 873 l 435 864 l 452 847 l 460 829 l 469 817 l 472 798 l 471 787 l 464 778 l 446 764 l 425 755 l 389 755 l 367 762 l 342 770 l 315 762 l 281 745 l 253 725 l 222 704 l 216 688 l 196 673 l 178 648 l 157 618 l 143 596 l 131 562 l 118 530 l 114 494 l 114 465 l 107 433 l 100 392 l 97 357 l 107 315 l 125 286 l 144 267 l 172 257 l 207 241 l 245 235 l 273 239 l 288 239 l 298 248 l 319 271 l 335 292 l 335 338 l 339 367 l 343 400 l 351 431 l 361 446 l 357 476 l 361 489 l 368 498 l 376 509 l 387 514 l 408 513 l 431 498 l 439 472 l 446 437 l 450 408 l 460 385 l 471 354 l 471 318 l 472 286 l 467 253 l 467 214 l 465 180 l 465 135 l 467 97 l 476 56 l 479 16 l 482 -4 l 489 -17 z "},"H":{"ha":570,"x_min":50,"x_max":500,"o":"m 500 12 l 498 -5 l 488 -18 l 472 -21 l 453 -1 l 436 20 l 422 50 l 411 77 l 407 97 l 407 114 l 401 135 l 390 180 l 383 218 l 390 237 l 382 249 l 383 262 l 383 286 l 385 315 l 383 350 l 392 379 l 389 411 l 390 447 l 359 456 l 332 461 l 300 463 l 257 463 l 228 465 l 216 468 l 178 463 l 153 458 l 142 447 l 142 421 l 144 396 l 146 338 l 144 300 l 144 254 l 139 237 l 142 216 l 135 204 l 139 184 l 135 149 l 129 135 l 132 117 l 126 83 l 125 65 l 126 57 l 125 25 l 129 -1 l 135 -22 l 144 -45 l 144 -58 l 139 -60 l 129 -57 l 121 -46 l 121 -35 l 113 -22 l 106 7 l 102 18 l 103 37 l 103 58 l 100 81 l 109 109 l 102 121 l 109 144 l 110 370 l 102 390 l 109 411 l 102 416 l 100 431 l 94 456 l 78 473 l 58 489 l 50 504 l 50 517 l 56 538 l 68 549 l 89 555 l 102 567 l 103 599 l 106 633 l 103 682 l 100 703 l 103 728 l 110 749 l 100 765 l 103 786 l 109 811 l 103 836 l 100 901 l 106 925 l 126 942 l 160 946 l 186 942 l 215 921 l 225 895 l 222 861 l 210 832 l 192 794 l 174 746 l 165 692 l 165 653 l 157 593 l 157 575 l 147 561 l 157 549 l 178 542 l 210 534 l 249 528 l 288 524 l 323 517 l 353 515 l 379 509 l 403 509 l 404 534 l 414 557 l 407 576 l 411 608 l 411 637 l 414 676 l 416 721 l 422 765 l 428 800 l 433 829 l 441 859 l 441 878 l 449 901 l 449 925 l 454 942 l 467 954 l 479 953 l 485 945 l 486 935 l 481 921 l 478 900 l 473 871 l 468 846 l 460 807 l 454 766 l 456 742 l 449 697 l 454 675 l 449 653 l 449 549 l 441 496 l 441 454 l 443 416 l 446 375 l 447 339 l 446 301 l 443 256 l 447 218 l 449 179 l 456 149 l 463 114 l 472 83 l 479 57 l 493 36 l 500 12 m 397 78 l 390 71 l 382 75 l 382 83 l 389 90 l 397 87 l 397 78 m 74 -150 l 68 -161 l 50 -153 l 58 -140 l 69 -142 l 74 -150 z "},"I":{"ha":481,"x_min":-32,"x_max":492,"o":"m 463 127 l 450 118 l 437 111 l 396 111 l 358 106 l 325 96 l 301 87 l 281 79 l 264 66 l 257 50 l 258 35 l 261 12 l 258 4 l 252 -1 l 245 -1 l 239 4 l 232 17 l 218 18 l 200 12 l 191 3 l 178 -8 l 158 -17 l 134 -24 l 114 -24 l 96 -17 l 77 -4 l 71 12 l 56 24 l 45 37 l 43 66 l 52 92 l 69 111 l 87 126 l 114 150 l 146 163 l 175 163 l 191 165 l 204 178 l 212 179 l 218 191 l 212 221 l 211 240 l 205 265 l 207 298 l 205 319 l 210 342 l 205 368 l 204 393 l 204 412 l 199 456 l 199 579 l 191 591 l 204 610 l 197 661 l 197 732 l 192 754 l 199 779 l 180 778 l 160 774 l 143 774 l 87 764 l 72 764 l 58 757 l 31 753 l 8 753 l -14 761 l -25 770 l -32 785 l -28 804 l -18 817 l 1 823 l 25 818 l 46 810 l 62 810 l 90 806 l 127 806 l 165 804 l 195 804 l 195 821 l 200 835 l 199 844 l 200 856 l 192 876 l 192 900 l 200 913 l 195 936 l 210 950 l 232 956 l 252 958 l 271 956 l 275 933 l 278 914 l 282 899 l 281 879 l 282 860 l 271 842 l 269 828 l 275 818 l 289 817 l 315 817 l 340 811 l 376 811 l 397 808 l 418 808 l 424 804 l 424 798 l 408 793 l 376 796 l 353 793 l 325 793 l 296 789 l 275 785 l 258 774 l 258 751 l 257 722 l 252 693 l 254 669 l 249 652 l 257 629 l 250 597 l 250 574 l 249 534 l 241 515 l 245 501 l 245 471 l 241 444 l 245 415 l 243 378 l 243 285 l 239 256 l 241 224 l 245 191 l 269 184 l 290 183 l 314 178 l 340 165 l 361 164 l 396 157 l 421 144 l 436 147 l 454 144 l 463 139 l 463 127 m 492 182 l 482 175 l 472 189 l 481 199 l 492 192 l 492 182 z "},"J":{"ha":543,"x_min":-53,"x_max":669,"o":"m 669 929 l 647 928 l 627 929 l 596 933 l 561 933 l 525 929 l 488 920 l 450 918 l 408 914 l 374 917 l 347 909 l 338 888 l 334 860 l 332 821 l 335 782 l 345 746 l 351 705 l 354 668 l 358 629 l 358 579 l 366 554 l 366 476 l 371 454 l 366 432 l 367 401 l 361 367 l 366 338 l 357 321 l 357 289 l 351 229 l 340 214 l 338 189 l 329 164 l 325 143 l 309 111 l 290 74 l 273 41 l 262 33 l 245 7 l 225 -12 l 200 -35 l 163 -57 l 115 -72 l 83 -79 l 4 -79 l -24 -72 l -37 -66 l -45 -50 l -53 -29 l -53 -4 l -37 11 l -14 21 l 4 17 l 24 7 l 56 1 l 75 7 l 85 14 l 104 22 l 129 36 l 155 60 l 179 78 l 195 97 l 205 118 l 231 157 l 237 193 l 256 233 l 267 265 l 273 298 l 281 335 l 278 354 l 283 379 l 293 419 l 298 452 l 300 501 l 300 564 l 293 583 l 300 597 l 292 621 l 293 643 l 288 679 l 273 711 l 271 743 l 273 757 l 282 764 l 275 782 l 273 804 l 273 836 l 269 854 l 273 867 l 261 884 l 239 884 l 210 879 l 191 872 l 158 865 l 136 856 l 114 854 l 75 860 l 33 865 l 8 865 l -8 875 l -21 886 l -21 903 l -18 924 l 0 932 l 24 925 l 43 917 l 77 911 l 104 913 l 134 924 l 154 924 l 227 949 l 257 949 l 283 956 l 306 954 l 322 961 l 335 961 l 353 964 l 386 964 l 418 966 l 456 970 l 514 961 l 550 957 l 576 957 l 606 950 l 627 953 l 669 942 l 669 929 m 8 -96 l 7 -109 l -7 -111 l -18 -104 l -11 -89 l 1 -89 l 8 -96 z "},"K":{"ha":632,"x_min":61,"x_max":646,"o":"m 646 146 l 644 139 l 636 139 l 631 140 l 608 158 l 582 176 l 570 191 l 555 196 l 514 232 l 490 260 l 446 298 l 433 318 l 415 332 l 401 357 l 353 390 l 298 427 l 269 443 l 249 461 l 231 463 l 224 472 l 204 472 l 193 465 l 192 454 l 184 415 l 180 371 l 174 306 l 167 262 l 167 229 l 161 208 l 161 165 l 160 132 l 160 96 l 164 65 l 165 39 l 157 20 l 147 18 l 140 25 l 132 36 l 126 46 l 121 77 l 113 96 l 106 129 l 113 149 l 110 193 l 119 216 l 113 248 l 115 277 l 109 318 l 100 357 l 100 390 l 93 408 l 94 422 l 83 441 l 82 463 l 87 504 l 83 541 l 77 575 l 81 602 l 74 621 l 78 653 l 82 675 l 71 721 l 69 747 l 61 758 l 61 775 l 68 800 l 78 812 l 103 831 l 134 836 l 165 827 l 193 817 l 215 790 l 225 771 l 225 739 l 222 708 l 212 685 l 204 656 l 199 631 l 203 618 l 215 611 l 231 614 l 250 625 l 275 644 l 319 682 l 340 696 l 389 736 l 424 762 l 468 794 l 510 818 l 530 836 l 553 854 l 568 859 l 581 873 l 604 888 l 625 895 l 633 893 l 640 889 l 636 882 l 631 873 l 608 861 l 587 842 l 570 836 l 550 819 l 526 806 l 505 787 l 479 766 l 456 742 l 431 728 l 421 714 l 401 701 l 328 628 l 296 604 l 275 582 l 267 570 l 256 568 l 260 549 l 296 513 l 321 486 l 351 458 l 382 435 l 407 414 l 433 385 l 458 347 l 486 315 l 497 300 l 505 281 l 518 268 l 542 243 l 567 222 l 576 205 l 589 197 l 614 176 l 633 161 l 646 146 m 636 7 l 624 -1 l 614 5 l 614 20 l 621 25 l 633 18 l 636 7 m 165 0 l 161 -7 l 151 0 l 161 9 l 165 0 z "},"L":{"ha":571,"x_min":47,"x_max":572,"o":"m 572 127 l 571 109 l 561 93 l 555 81 l 543 71 l 522 71 l 504 65 l 484 58 l 460 58 l 432 61 l 400 56 l 379 56 l 355 49 l 336 37 l 310 29 l 285 14 l 264 0 l 225 0 l 201 4 l 174 4 l 151 5 l 132 9 l 111 17 l 87 14 l 72 18 l 65 29 l 66 45 l 66 62 l 68 78 l 75 93 l 72 109 l 75 122 l 79 139 l 79 160 l 86 186 l 87 212 l 86 235 l 90 256 l 93 279 l 98 300 l 100 325 l 98 339 l 98 392 l 100 415 l 100 446 l 103 468 l 106 497 l 107 515 l 106 534 l 103 554 l 106 572 l 106 596 l 107 618 l 110 639 l 107 652 l 110 665 l 113 684 l 111 697 l 117 714 l 110 729 l 107 749 l 107 771 l 106 791 l 103 812 l 103 831 l 110 843 l 100 854 l 97 868 l 106 880 l 106 896 l 111 913 l 111 933 l 113 951 l 111 964 l 123 979 l 138 991 l 151 997 l 168 999 l 186 1004 l 203 1003 l 218 993 l 233 985 l 252 972 l 264 954 l 269 935 l 272 920 l 267 901 l 264 888 l 248 873 l 237 857 l 233 831 l 227 812 l 222 794 l 218 775 l 212 755 l 212 733 l 205 711 l 200 672 l 200 652 l 193 633 l 189 619 l 182 607 l 180 589 l 176 567 l 171 521 l 171 498 l 164 479 l 161 454 l 155 431 l 155 408 l 151 392 l 149 378 l 149 357 l 143 339 l 142 321 l 138 300 l 131 277 l 132 260 l 131 232 l 126 211 l 122 196 l 122 186 l 119 171 l 118 153 l 122 144 l 135 142 l 150 149 l 174 151 l 200 154 l 215 154 l 235 146 l 257 146 l 272 151 l 290 153 l 315 161 l 329 167 l 350 165 l 376 161 l 401 165 l 431 172 l 453 183 l 471 192 l 475 204 l 494 215 l 510 222 l 529 218 l 543 208 l 551 193 l 566 179 l 568 164 l 572 146 l 572 127 m 472 351 l 468 343 l 460 346 l 453 358 l 463 370 l 472 363 l 472 351 m 66 549 l 65 541 l 54 534 l 47 545 l 56 555 l 66 549 z "},"M":{"ha":800,"x_min":25,"x_max":742,"o":"m 288 986 l 281 974 l 269 978 l 271 996 l 283 996 l 288 986 m 742 408 l 728 393 l 721 408 l 730 422 l 742 408 m 718 -64 l 715 -71 l 707 -77 l 697 -58 l 688 -22 l 679 -7 l 679 3 l 676 57 l 660 109 l 654 164 l 644 201 l 632 256 l 628 296 l 615 318 l 604 359 l 604 393 l 595 421 l 596 478 l 586 497 l 582 528 l 581 571 l 586 614 l 595 637 l 586 664 l 582 692 l 581 724 l 564 737 l 549 743 l 530 725 l 510 697 l 492 663 l 476 623 l 463 578 l 450 541 l 439 503 l 427 465 l 416 444 l 406 433 l 393 427 l 375 435 l 363 454 l 342 486 l 330 515 l 315 582 l 310 612 l 301 650 l 288 684 l 279 714 l 268 739 l 254 747 l 237 755 l 229 737 l 218 707 l 205 669 l 195 590 l 186 545 l 186 528 l 179 467 l 165 393 l 164 354 l 176 340 l 178 311 l 184 286 l 171 264 l 155 241 l 129 237 l 103 237 l 71 236 l 49 245 l 33 257 l 25 283 l 33 340 l 49 370 l 61 375 l 64 444 l 87 526 l 92 559 l 109 590 l 107 610 l 126 640 l 126 660 l 165 755 l 171 775 l 183 785 l 187 810 l 205 833 l 229 868 l 250 880 l 268 880 l 279 867 l 292 842 l 300 810 l 310 775 l 323 729 l 330 697 l 342 660 l 347 631 l 353 590 l 357 557 l 367 525 l 385 503 l 395 494 l 406 507 l 412 530 l 425 557 l 440 602 l 457 642 l 467 672 l 476 694 l 467 705 l 458 728 l 460 755 l 472 785 l 486 812 l 492 839 l 510 871 l 524 885 l 542 909 l 567 925 l 582 935 l 604 929 l 627 926 l 650 913 l 668 896 l 684 875 l 688 846 l 689 811 l 688 779 l 686 739 l 689 664 l 689 621 l 701 545 l 700 507 l 697 457 l 696 416 l 696 379 l 692 334 l 684 315 l 692 279 l 692 205 l 700 191 l 701 140 l 707 100 l 715 25 l 718 -8 l 718 -64 m 132 153 l 122 143 l 111 144 l 113 163 l 123 163 l 132 153 z "},"N":{"ha":661,"x_min":31,"x_max":664,"o":"m 415 804 l 399 794 l 399 812 l 414 811 l 415 804 m 664 920 l 663 900 l 663 878 l 654 863 l 657 851 l 652 832 l 636 812 l 624 794 l 618 754 l 618 729 l 611 694 l 612 676 l 606 646 l 604 618 l 591 593 l 586 561 l 583 529 l 542 441 l 528 431 l 524 410 l 511 390 l 505 358 l 498 339 l 498 313 l 482 269 l 471 249 l 467 216 l 464 191 l 457 165 l 458 144 l 454 122 l 457 110 l 446 96 l 433 68 l 422 68 l 408 71 l 403 90 l 376 104 l 367 129 l 361 150 l 346 175 l 346 192 l 332 208 l 345 233 l 330 258 l 326 296 l 306 340 l 298 379 l 292 410 l 282 458 l 277 475 l 269 498 l 258 528 l 239 586 l 216 619 l 201 591 l 196 581 l 196 503 l 191 465 l 195 431 l 187 390 l 180 347 l 170 326 l 164 292 l 158 250 l 155 171 l 146 151 l 151 134 l 136 114 l 111 103 l 79 102 l 54 117 l 47 142 l 37 172 l 31 200 l 31 222 l 49 250 l 61 262 l 72 277 l 85 306 l 86 343 l 100 375 l 104 404 l 117 427 l 111 492 l 104 513 l 100 550 l 107 587 l 117 612 l 125 644 l 146 664 l 155 746 l 175 771 l 180 799 l 200 823 l 207 831 l 216 838 l 220 854 l 228 860 l 240 860 l 249 850 l 253 829 l 261 796 l 268 757 l 278 665 l 283 624 l 293 599 l 297 572 l 300 547 l 310 510 l 314 468 l 332 440 l 342 399 l 345 359 l 354 326 l 364 288 l 371 262 l 376 249 l 387 249 l 396 262 l 412 277 l 418 306 l 428 313 l 425 326 l 435 359 l 431 382 l 435 410 l 447 422 l 460 443 l 471 468 l 485 493 l 498 509 l 498 534 l 511 559 l 518 576 l 528 607 l 533 632 l 530 672 l 521 703 l 510 734 l 498 758 l 498 786 l 496 822 l 510 838 l 510 857 l 521 871 l 528 914 l 538 940 l 549 935 l 572 943 l 586 960 l 611 970 l 628 975 l 643 964 l 652 943 l 660 945 l 664 920 m 104 31 l 92 25 l 81 31 l 85 45 l 100 41 l 104 31 z "},"O":{"ha":644,"x_min":49,"x_max":596,"o":"m 296 799 l 283 789 l 279 799 l 283 812 l 296 810 l 296 799 m 596 382 l 586 318 l 561 253 l 543 215 l 526 192 l 504 164 l 478 138 l 447 121 l 401 107 l 353 100 l 306 106 l 264 114 l 231 132 l 168 170 l 132 204 l 114 224 l 90 253 l 75 290 l 65 328 l 60 367 l 65 396 l 58 433 l 50 461 l 60 494 l 60 511 l 69 522 l 69 549 l 78 566 l 93 583 l 103 619 l 122 652 l 143 675 l 158 701 l 176 704 l 197 721 l 212 728 l 232 737 l 252 753 l 273 761 l 294 782 l 314 806 l 321 812 l 338 821 l 364 815 l 389 799 l 410 775 l 418 739 l 414 714 l 387 688 l 353 672 l 306 669 l 275 628 l 256 586 l 233 555 l 214 503 l 208 450 l 197 403 l 216 354 l 222 307 l 248 278 l 272 222 l 290 218 l 300 208 l 322 203 l 353 199 l 389 208 l 424 220 l 446 237 l 447 286 l 463 296 l 461 335 l 471 361 l 475 389 l 484 412 l 478 436 l 475 472 l 461 497 l 443 510 l 429 538 l 406 570 l 410 596 l 418 619 l 433 629 l 456 629 l 485 611 l 513 596 l 526 570 l 545 553 l 550 525 l 561 497 l 570 475 l 585 453 l 589 416 l 596 382 m 72 591 l 61 583 l 50 578 l 49 591 l 56 606 l 68 606 l 72 591 z "},"P":{"ha":549,"x_min":31,"x_max":524,"o":"m 89 703 l 86 694 l 74 688 l 62 701 l 74 708 l 89 703 m 524 707 l 521 679 l 517 644 l 510 618 l 501 599 l 496 579 l 485 557 l 467 545 l 457 525 l 437 505 l 418 497 l 401 486 l 332 478 l 298 486 l 278 486 l 252 498 l 248 505 l 248 524 l 253 528 l 271 528 l 290 521 l 311 515 l 350 513 l 383 515 l 406 521 l 419 541 l 428 561 l 447 587 l 452 607 l 464 625 l 469 656 l 472 708 l 465 734 l 465 762 l 454 786 l 433 827 l 428 843 l 415 850 l 406 873 l 376 888 l 354 896 l 318 900 l 279 901 l 241 900 l 232 890 l 239 869 l 229 839 l 220 807 l 210 771 l 201 734 l 197 714 l 196 684 l 191 656 l 187 619 l 180 591 l 180 561 l 172 528 l 168 503 l 164 473 l 153 441 l 149 411 l 139 375 l 134 339 l 125 301 l 114 262 l 81 196 l 79 172 l 69 151 l 61 127 l 62 97 l 60 77 l 50 52 l 56 17 l 68 0 l 72 -18 l 68 -25 l 56 -26 l 49 -26 l 43 -18 l 33 5 l 31 37 l 35 78 l 40 114 l 43 151 l 43 179 l 53 186 l 60 203 l 61 236 l 56 269 l 68 292 l 81 350 l 86 385 l 93 414 l 86 441 l 89 467 l 97 513 l 100 559 l 107 600 l 106 637 l 114 669 l 125 717 l 125 753 l 132 804 l 125 836 l 121 869 l 117 890 l 123 922 l 139 937 l 168 945 l 195 935 l 214 935 l 248 951 l 281 957 l 313 953 l 342 961 l 375 954 l 412 940 l 440 921 l 465 895 l 486 854 l 496 842 l 498 819 l 510 800 l 517 774 l 521 749 l 518 726 l 524 707 z "},"Q":{"ha":654,"x_min":43,"x_max":825,"o":"m 825 -43 l 823 -49 l 814 -54 l 806 -53 l 793 -50 l 782 -41 l 762 -22 l 741 1 l 718 18 l 692 37 l 660 66 l 644 75 l 632 97 l 621 100 l 603 111 l 576 132 l 551 149 l 543 163 l 525 158 l 513 144 l 498 134 l 476 125 l 444 113 l 418 102 l 406 104 l 389 87 l 374 82 l 342 75 l 309 79 l 283 82 l 262 93 l 249 104 l 232 111 l 222 121 l 205 129 l 191 153 l 179 155 l 160 158 l 136 168 l 114 189 l 94 210 l 64 271 l 60 298 l 50 311 l 46 343 l 43 374 l 49 395 l 49 421 l 54 446 l 52 471 l 71 494 l 85 513 l 97 533 l 94 549 l 102 554 l 102 571 l 113 599 l 129 615 l 143 644 l 139 673 l 155 684 l 178 694 l 179 708 l 199 728 l 212 728 l 229 754 l 254 762 l 293 771 l 310 782 l 321 791 l 342 789 l 361 777 l 374 754 l 379 728 l 393 725 l 437 686 l 457 661 l 479 635 l 488 611 l 500 583 l 501 559 l 514 532 l 528 509 l 534 481 l 543 449 l 538 415 l 538 382 l 550 350 l 554 317 l 564 279 l 562 241 l 558 228 l 571 204 l 583 184 l 627 144 l 650 125 l 677 100 l 704 75 l 730 49 l 760 29 l 779 11 l 793 -3 l 802 -21 l 814 -33 l 825 -43 m 530 293 l 525 315 l 519 350 l 509 410 l 515 443 l 513 473 l 507 490 l 496 509 l 489 517 l 489 533 l 481 547 l 468 566 l 468 587 l 463 606 l 449 631 l 432 648 l 412 661 l 400 679 l 376 692 l 354 689 l 338 699 l 319 692 l 289 688 l 262 675 l 249 663 l 232 642 l 212 629 l 200 606 l 184 593 l 182 574 l 165 557 l 150 545 l 143 519 l 135 488 l 134 465 l 138 444 l 129 424 l 136 395 l 134 355 l 135 325 l 143 298 l 153 278 l 171 249 l 195 208 l 204 201 l 222 180 l 249 178 l 268 170 l 289 157 l 314 157 l 340 164 l 351 163 l 361 168 l 383 164 l 404 158 l 428 158 l 456 175 l 476 183 l 482 197 l 492 208 l 486 220 l 469 233 l 441 249 l 429 271 l 416 272 l 406 281 l 389 290 l 374 281 l 351 279 l 325 279 l 296 288 l 282 302 l 275 317 l 278 330 l 281 354 l 293 371 l 310 376 l 325 386 l 350 380 l 371 386 l 399 383 l 421 375 l 436 361 l 440 342 l 447 317 l 463 306 l 481 290 l 500 271 l 514 264 l 525 267 l 528 278 l 530 293 m 488 471 l 481 464 l 469 471 l 481 481 l 488 471 z "},"R":{"ha":597,"x_min":61,"x_max":657,"o":"m 657 -60 l 653 -62 l 643 -62 l 632 -57 l 618 -49 l 582 -22 l 557 0 l 530 33 l 510 61 l 493 90 l 472 113 l 443 149 l 410 180 l 379 208 l 355 239 l 321 279 l 296 317 l 269 350 l 244 380 l 215 406 l 183 424 l 153 424 l 151 404 l 142 372 l 134 322 l 132 292 l 125 265 l 115 195 l 113 154 l 113 129 l 109 72 l 109 58 l 115 47 l 126 35 l 132 17 l 129 7 l 122 -3 l 110 -8 l 97 -5 l 87 3 l 81 14 l 64 41 l 61 75 l 61 117 l 64 182 l 71 208 l 74 225 l 74 258 l 78 278 l 82 298 l 83 321 l 90 350 l 93 382 l 100 416 l 102 453 l 109 476 l 110 503 l 110 534 l 114 567 l 115 602 l 129 673 l 134 700 l 134 726 l 135 764 l 144 789 l 153 812 l 147 836 l 153 861 l 142 888 l 146 909 l 157 929 l 186 932 l 215 951 l 243 956 l 282 957 l 323 956 l 370 951 l 392 942 l 411 935 l 431 920 l 453 899 l 467 873 l 481 847 l 493 812 l 493 790 l 505 764 l 504 733 l 507 718 l 504 688 l 498 661 l 494 631 l 493 603 l 488 579 l 475 550 l 456 526 l 436 513 l 415 496 l 395 485 l 375 472 l 375 446 l 382 425 l 390 404 l 395 385 l 414 338 l 443 289 l 456 267 l 468 239 l 488 203 l 498 180 l 517 154 l 526 125 l 538 98 l 555 71 l 570 47 l 591 21 l 618 -4 l 636 -24 l 650 -41 l 656 -50 l 657 -60 m 205 311 l 204 301 l 193 304 l 192 311 l 203 321 l 205 311 m 382 717 l 372 746 l 379 775 l 372 787 l 372 839 l 358 860 l 330 868 l 307 878 l 296 872 l 286 873 l 243 859 l 235 846 l 229 829 l 224 807 l 218 778 l 218 753 l 203 681 l 189 646 l 180 616 l 178 583 l 180 567 l 178 545 l 192 533 l 212 528 l 231 538 l 264 546 l 307 554 l 330 570 l 355 590 l 364 611 l 359 624 l 364 637 l 364 663 l 366 686 l 382 717 m 370 755 l 358 749 l 351 758 l 358 770 l 370 765 l 370 755 z "},"S":{"ha":465,"x_min":9,"x_max":407,"o":"m 407 690 l 406 675 l 387 671 l 375 672 l 361 685 l 374 696 l 393 697 l 407 690 m 401 721 l 389 704 l 371 704 l 350 711 l 330 721 l 310 736 l 306 749 l 281 754 l 267 760 l 239 755 l 215 755 l 191 754 l 157 742 l 132 728 l 93 692 l 85 672 l 72 644 l 75 612 l 86 586 l 97 570 l 132 545 l 153 528 l 176 513 l 195 496 l 216 479 l 261 453 l 283 433 l 300 415 l 315 404 l 319 389 l 342 353 l 351 330 l 357 306 l 367 279 l 375 254 l 376 218 l 371 191 l 355 158 l 347 132 l 330 114 l 322 97 l 302 77 l 285 62 l 256 52 l 216 45 l 189 39 l 158 45 l 136 46 l 117 50 l 102 58 l 92 58 l 86 65 l 89 81 l 94 89 l 104 89 l 104 81 l 107 75 l 117 69 l 136 61 l 180 58 l 195 62 l 216 61 l 245 69 l 272 81 l 304 103 l 310 119 l 323 142 l 332 165 l 342 183 l 343 204 l 350 235 l 345 254 l 339 281 l 325 301 l 318 326 l 306 350 l 297 372 l 281 382 l 268 396 l 249 410 l 232 427 l 201 440 l 183 458 l 163 463 l 143 479 l 118 497 l 104 509 l 79 515 l 56 536 l 35 561 l 22 586 l 9 612 l 9 665 l 21 694 l 35 722 l 50 746 l 68 765 l 85 781 l 106 798 l 131 810 l 153 818 l 184 819 l 215 822 l 245 829 l 272 843 l 300 851 l 313 861 l 339 857 l 354 843 l 363 818 l 374 804 l 387 790 l 396 768 l 399 747 l 401 721 z "},"T":{"ha":546,"x_min":-39,"x_max":690,"o":"m 690 848 l 677 843 l 668 846 l 640 850 l 602 854 l 557 854 l 503 851 l 444 843 l 392 842 l 346 832 l 309 825 l 268 812 l 237 804 l 208 798 l 199 786 l 180 775 l 157 762 l 129 754 l 92 749 l 54 747 l 21 758 l 1 771 l -18 785 l -36 800 l -39 819 l -36 842 l -24 859 l -12 869 l 5 875 l 33 889 l 60 896 l 102 900 l 147 900 l 205 896 l 264 896 l 326 900 l 378 901 l 400 905 l 429 903 l 461 908 l 496 901 l 528 903 l 557 900 l 612 893 l 639 893 l 684 871 l 690 859 l 690 848 m 163 996 l 154 985 l 143 996 l 150 1010 l 163 1006 l 163 996 m 334 736 l 326 724 l 321 696 l 321 671 l 317 639 l 317 611 l 314 589 l 309 570 l 314 554 l 304 536 l 302 513 l 302 492 l 297 465 l 294 435 l 292 411 l 294 383 l 289 351 l 288 321 l 288 296 l 289 264 l 292 229 l 289 196 l 289 160 l 285 129 l 288 100 l 288 68 l 289 39 l 288 9 l 278 0 l 275 7 l 272 20 l 275 41 l 277 68 l 271 83 l 272 110 l 268 125 l 264 146 l 264 215 l 258 237 l 258 262 l 256 289 l 256 321 l 253 347 l 253 375 l 256 403 l 256 440 l 253 478 l 253 538 l 252 559 l 257 581 l 257 607 l 256 640 l 244 672 l 237 701 l 227 724 l 224 746 l 224 765 l 233 781 l 250 798 l 272 800 l 289 794 l 309 778 l 323 760 l 334 736 z "},"U":{"ha":604,"x_min":71,"x_max":595,"o":"m 595 656 l 591 646 l 579 646 l 574 659 l 581 672 l 591 669 l 595 656 m 532 669 l 529 628 l 530 604 l 526 567 l 526 542 l 518 513 l 518 486 l 510 467 l 511 446 l 500 421 l 504 408 l 498 399 l 494 378 l 493 343 l 481 319 l 473 294 l 468 268 l 458 257 l 449 229 l 435 200 l 414 171 l 390 146 l 364 125 l 334 114 l 301 107 l 272 103 l 236 103 l 199 107 l 174 114 l 151 127 l 129 140 l 113 161 l 100 184 l 90 211 l 81 235 l 78 264 l 74 292 l 71 321 l 74 358 l 74 389 l 77 422 l 83 441 l 78 454 l 78 473 l 87 493 l 90 521 l 89 542 l 94 572 l 102 602 l 102 628 l 109 656 l 109 685 l 94 708 l 89 734 l 87 749 l 94 774 l 106 790 l 115 794 l 139 806 l 167 810 l 193 804 l 215 790 l 228 781 l 235 771 l 249 760 l 256 742 l 254 717 l 240 692 l 225 669 l 210 640 l 204 619 l 196 581 l 180 547 l 171 510 l 161 475 l 151 443 l 142 408 l 140 370 l 132 339 l 139 298 l 140 249 l 146 215 l 160 193 l 180 176 l 192 167 l 210 161 l 244 154 l 268 151 l 293 153 l 338 161 l 372 183 l 392 204 l 407 228 l 422 248 l 424 267 l 433 279 l 446 309 l 454 334 l 460 358 l 473 382 l 472 396 l 473 410 l 485 424 l 481 447 l 490 485 l 494 517 l 504 545 l 500 576 l 505 604 l 507 637 l 505 664 l 505 690 l 511 711 l 504 721 l 507 736 l 504 753 l 505 768 l 507 787 l 510 807 l 510 818 l 522 822 l 526 817 l 522 798 l 525 768 l 525 753 l 529 715 l 532 669 z "},"V":{"ha":517,"x_min":-1,"x_max":551,"o":"m 551 869 l 549 857 l 541 846 l 529 832 l 521 812 l 511 791 l 498 771 l 486 746 l 478 717 l 464 684 l 450 652 l 428 604 l 422 586 l 418 561 l 412 538 l 407 510 l 401 473 l 396 440 l 389 404 l 387 379 l 380 353 l 374 325 l 364 300 l 339 250 l 335 235 l 322 212 l 306 196 l 297 174 l 285 158 l 279 134 l 271 110 l 249 90 l 222 78 l 201 81 l 180 90 l 170 110 l 165 132 l 165 154 l 172 172 l 165 191 l 158 215 l 157 237 l 158 268 l 153 289 l 153 315 l 144 328 l 146 346 l 139 363 l 126 410 l 117 427 l 113 447 l 107 472 l 111 496 l 94 513 l 86 542 l 74 561 l 69 582 l 54 602 l 37 621 l 22 633 l 8 656 l -1 669 l 1 692 l 9 714 l 22 729 l 43 742 l 65 742 l 86 733 l 111 721 l 132 697 l 149 660 l 153 632 l 153 591 l 164 557 l 175 530 l 187 503 l 195 463 l 200 427 l 210 395 l 215 370 l 220 343 l 222 315 l 227 292 l 236 283 l 252 289 l 264 301 l 272 326 l 279 346 l 288 364 l 297 389 l 306 403 l 310 427 l 322 456 l 332 482 l 342 505 l 347 524 l 355 541 l 354 561 l 364 579 l 363 596 l 380 608 l 389 639 l 403 663 l 415 690 l 427 711 l 437 729 l 450 753 l 467 775 l 465 791 l 479 819 l 482 842 l 489 854 l 501 863 l 510 880 l 521 889 l 534 890 l 547 882 l 551 869 z "},"W":{"ha":831,"x_min":39,"x_max":821,"o":"m 775 848 l 770 840 l 761 847 l 757 859 l 768 867 l 775 859 l 775 848 m 821 819 l 819 800 l 815 785 l 815 768 l 810 757 l 802 737 l 794 711 l 782 682 l 782 665 l 770 623 l 753 589 l 757 572 l 750 550 l 746 528 l 739 513 l 737 488 l 732 457 l 732 437 l 720 411 l 713 375 l 711 343 l 705 317 l 699 292 l 688 265 l 672 235 l 665 208 l 656 186 l 653 171 l 642 163 l 628 132 l 610 122 l 603 104 l 589 92 l 566 79 l 536 78 l 510 83 l 496 97 l 488 111 l 472 125 l 458 149 l 440 174 l 425 201 l 411 222 l 406 254 l 386 286 l 382 311 l 370 329 l 370 361 l 366 385 l 357 387 l 347 404 l 334 404 l 321 389 l 310 361 l 301 329 l 292 306 l 278 271 l 250 205 l 244 183 l 233 158 l 222 138 l 199 117 l 187 92 l 175 75 l 164 60 l 154 46 l 142 41 l 129 41 l 118 56 l 115 75 l 113 97 l 118 123 l 115 154 l 115 176 l 118 205 l 113 235 l 113 264 l 110 292 l 103 321 l 103 349 l 97 361 l 98 380 l 92 411 l 87 440 l 86 468 l 79 500 l 72 526 l 71 541 l 68 562 l 60 583 l 58 604 l 52 624 l 39 642 l 39 660 l 40 672 l 53 682 l 60 693 l 74 697 l 103 693 l 111 679 l 122 663 l 129 643 l 123 623 l 118 591 l 125 567 l 129 550 l 129 530 l 131 503 l 131 476 l 132 456 l 132 432 l 136 404 l 139 370 l 142 342 l 149 315 l 149 286 l 150 257 l 154 227 l 151 201 l 150 175 l 150 154 l 149 143 l 154 132 l 164 135 l 175 150 l 186 164 l 199 193 l 215 222 l 232 254 l 237 273 l 248 297 l 258 321 l 277 349 l 277 372 l 286 389 l 298 421 l 309 450 l 310 468 l 321 494 l 330 526 l 342 554 l 350 570 l 359 578 l 374 578 l 385 570 l 395 547 l 424 518 l 427 494 l 431 465 l 436 436 l 444 411 l 456 392 l 465 367 l 475 347 l 488 318 l 497 298 l 515 253 l 526 235 l 529 225 l 541 221 l 547 228 l 547 248 l 546 260 l 547 273 l 566 297 l 583 325 l 591 357 l 597 399 l 599 432 l 602 463 l 614 484 l 628 496 l 646 513 l 650 530 l 640 558 l 642 582 l 642 611 l 648 643 l 654 661 l 667 673 l 686 685 l 697 697 l 705 724 l 718 753 l 733 781 l 746 800 l 758 815 l 781 840 l 798 840 l 812 836 l 821 819 z "},"X":{"ha":643,"x_min":-28,"x_max":631,"o":"m 325 708 l 315 696 l 307 710 l 318 726 l 325 708 m 631 50 l 621 36 l 599 40 l 572 61 l 549 83 l 528 113 l 515 134 l 503 149 l 492 161 l 497 176 l 479 201 l 463 227 l 437 240 l 433 264 l 416 288 l 396 309 l 393 330 l 368 350 l 342 363 l 326 355 l 318 347 l 304 325 l 281 296 l 275 277 l 262 257 l 253 252 l 241 231 l 229 229 l 220 208 l 211 187 l 189 164 l 183 146 l 170 126 l 146 109 l 121 97 l 113 75 l 104 54 l 92 37 l 83 12 l 66 0 l 41 0 l 39 20 l 46 43 l 58 68 l 66 82 l 64 100 l 87 125 l 97 144 l 102 167 l 107 186 l 115 208 l 126 224 l 140 240 l 151 243 l 168 245 l 184 254 l 197 267 l 212 273 l 227 288 l 237 307 l 254 325 l 264 342 l 275 363 l 288 378 l 304 387 l 321 401 l 313 416 l 306 433 l 292 450 l 271 468 l 245 496 l 210 515 l 183 530 l 168 551 l 155 579 l 142 596 l 136 612 l 118 625 l 106 644 l 100 657 l 92 679 l 77 689 l 68 701 l 71 710 l 57 725 l 49 739 l 26 751 l 4 754 l -17 766 l -25 783 l -28 803 l -24 814 l -17 843 l 9 861 l 35 852 l 53 836 l 68 817 l 81 812 l 107 806 l 123 786 l 142 750 l 172 718 l 204 693 l 228 665 l 239 633 l 256 608 l 258 575 l 264 543 l 290 507 l 307 486 l 319 456 l 342 425 l 363 453 l 383 488 l 390 515 l 410 539 l 416 558 l 418 587 l 425 608 l 433 628 l 450 647 l 467 654 l 475 671 l 493 693 l 510 710 l 529 745 l 542 768 l 542 796 l 536 819 l 543 840 l 558 847 l 579 846 l 589 831 l 604 819 l 618 810 l 628 798 l 625 786 l 615 779 l 611 760 l 599 739 l 578 710 l 559 684 l 551 667 l 528 639 l 522 627 l 507 614 l 490 582 l 468 559 l 463 532 l 446 504 l 427 489 l 410 473 l 395 452 l 383 431 l 376 403 l 378 382 l 399 372 l 404 358 l 416 351 l 424 330 l 437 313 l 454 297 l 464 277 l 490 252 l 515 221 l 529 196 l 547 184 l 566 157 l 586 134 l 619 85 l 631 50 m 214 314 l 204 310 l 191 319 l 200 335 l 212 326 l 214 314 m 340 17 l 332 16 l 321 24 l 332 37 l 340 26 l 340 17 z "},"Y":{"ha":546,"x_min":-36,"x_max":610,"o":"m 610 1035 l 604 1021 l 590 1028 l 595 1036 l 608 1042 l 610 1035 m 608 993 l 604 978 l 597 961 l 583 946 l 566 932 l 553 913 l 541 903 l 529 889 l 517 864 l 504 843 l 494 818 l 485 794 l 472 766 l 465 739 l 458 708 l 458 653 l 457 625 l 446 596 l 440 572 l 421 549 l 416 536 l 401 525 l 382 503 l 368 475 l 359 443 l 353 429 l 349 403 l 342 375 l 334 340 l 329 306 l 321 279 l 315 248 l 309 224 l 297 193 l 290 158 l 285 119 l 285 93 l 279 65 l 285 39 l 286 26 l 282 17 l 285 -12 l 279 -32 l 273 -41 l 267 -45 l 260 -45 l 253 -37 l 245 -12 l 239 20 l 228 100 l 232 132 l 232 164 l 233 193 l 237 211 l 233 235 l 233 257 l 220 318 l 218 350 l 208 372 l 212 399 l 205 422 l 201 443 l 191 463 l 174 472 l 163 486 l 144 496 l 135 513 l 131 525 l 135 536 l 144 557 l 155 576 l 151 591 l 131 612 l 111 639 l 93 660 l 66 692 l 36 728 l 14 760 l 0 778 l -22 804 l -32 825 l -36 839 l -32 863 l -28 888 l -12 900 l -9 908 l 0 914 l 24 916 l 52 920 l 79 913 l 107 903 l 132 888 l 151 868 l 171 838 l 174 811 l 175 778 l 180 742 l 193 701 l 203 676 l 215 643 l 228 618 l 254 562 l 258 549 l 277 530 l 289 534 l 310 530 l 318 538 l 323 555 l 336 586 l 353 619 l 372 652 l 370 690 l 372 708 l 382 739 l 399 762 l 407 786 l 424 804 l 436 832 l 453 857 l 469 889 l 485 908 l 504 935 l 524 953 l 576 996 l 583 999 l 595 1003 l 602 999 l 608 993 z "},"Z":{"ha":693,"x_min":-3,"x_max":726,"o":"m 726 736 l 724 717 l 710 703 l 697 696 l 676 696 l 660 703 l 640 714 l 624 717 l 602 724 l 576 722 l 553 717 l 525 714 l 500 714 l 475 708 l 454 701 l 424 692 l 411 682 l 392 682 l 366 671 l 347 669 l 328 659 l 311 656 l 286 644 l 257 640 l 229 639 l 164 639 l 134 643 l 102 656 l 89 672 l 82 690 l 77 704 l 77 721 l 81 733 l 89 753 l 100 765 l 115 774 l 142 787 l 174 794 l 203 791 l 240 790 l 272 791 l 306 794 l 326 790 l 355 798 l 389 800 l 414 806 l 490 806 l 526 804 l 567 800 l 640 786 l 664 781 l 682 778 l 697 778 l 714 768 l 722 754 l 726 736 m 677 25 l 675 14 l 656 12 l 608 24 l 581 26 l 557 24 l 526 29 l 493 31 l 463 31 l 424 29 l 383 29 l 355 26 l 328 26 l 307 25 l 288 29 l 254 26 l 224 25 l 203 25 l 172 20 l 151 14 l 129 12 l 109 18 l 74 14 l 46 14 l 22 24 l 11 39 l 5 57 l 0 78 l -3 100 l 4 119 l 17 134 l 37 151 l 57 164 l 89 176 l 110 196 l 125 211 l 153 229 l 167 243 l 193 262 l 203 279 l 222 289 l 240 307 l 279 343 l 281 353 l 289 358 l 298 371 l 313 383 l 328 401 l 340 415 l 353 421 l 364 435 l 385 450 l 403 467 l 427 492 l 453 521 l 475 542 l 494 557 l 505 575 l 529 591 l 539 614 l 553 633 l 574 646 l 593 653 l 608 671 l 624 684 l 644 690 l 663 685 l 668 671 l 663 659 l 644 646 l 624 640 l 606 628 l 587 612 l 574 600 l 568 582 l 553 562 l 529 536 l 507 525 l 481 498 l 456 478 l 441 463 l 401 422 l 375 403 l 351 385 l 339 370 l 321 358 l 311 346 l 293 330 l 279 313 l 261 300 l 249 283 l 229 267 l 205 248 l 189 232 l 171 212 l 146 192 l 134 167 l 113 153 l 102 129 l 89 107 l 71 90 l 64 78 l 71 69 l 90 57 l 110 49 l 126 46 l 142 62 l 171 71 l 208 78 l 229 75 l 311 75 l 339 78 l 372 77 l 397 77 l 428 75 l 460 71 l 497 71 l 526 68 l 553 61 l 579 58 l 602 52 l 625 46 l 646 37 l 665 31 l 677 25 z "},"[":{"ha":555,"x_min":9,"x_max":602,"o":"m 510 1061 l 507 1051 l 493 1051 l 489 1064 l 503 1069 l 510 1061 m 602 1011 l 600 1014 l 590 1006 l 582 994 l 564 993 l 549 986 l 519 982 l 489 982 l 453 975 l 425 964 l 395 975 l 372 964 l 347 972 l 329 962 l 318 946 l 318 909 l 311 882 l 310 854 l 306 821 l 302 794 l 302 775 l 297 755 l 297 736 l 298 713 l 292 692 l 292 668 l 289 639 l 286 600 l 285 562 l 282 526 l 285 500 l 285 479 l 282 452 l 277 424 l 273 399 l 271 367 l 267 335 l 264 275 l 258 250 l 257 225 l 258 200 l 253 174 l 248 143 l 244 118 l 239 97 l 235 74 l 235 58 l 232 41 l 228 14 l 225 -9 l 222 -31 l 225 -45 l 237 -56 l 253 -62 l 273 -68 l 296 -69 l 330 -71 l 363 -69 l 400 -75 l 425 -75 l 437 -81 l 468 -78 l 503 -81 l 529 -81 l 553 -82 l 572 -83 l 586 -83 l 591 -90 l 589 -102 l 578 -109 l 555 -113 l 524 -114 l 489 -121 l 453 -125 l 416 -127 l 389 -127 l 372 -134 l 350 -142 l 328 -135 l 317 -144 l 294 -144 l 264 -158 l 250 -170 l 250 -200 l 240 -225 l 232 -241 l 222 -256 l 222 -273 l 208 -279 l 201 -281 l 193 -275 l 187 -262 l 175 -212 l 172 -183 l 158 -164 l 134 -153 l 104 -154 l 79 -153 l 56 -149 l 35 -142 l 21 -131 l 9 -127 l 21 -103 l 36 -87 l 58 -81 l 74 -77 l 100 -75 l 131 -69 l 150 -62 l 164 -56 l 176 -39 l 180 -18 l 180 -4 l 182 14 l 182 32 l 187 46 l 186 74 l 186 149 l 187 174 l 191 205 l 187 237 l 191 272 l 195 302 l 195 329 l 196 354 l 205 380 l 214 404 l 220 429 l 218 460 l 220 481 l 214 501 l 212 529 l 205 558 l 205 585 l 203 607 l 203 659 l 201 684 l 199 711 l 199 732 l 196 762 l 195 789 l 191 819 l 187 846 l 193 867 l 193 889 l 191 911 l 193 929 l 183 958 l 178 974 l 182 989 l 182 1015 l 186 1043 l 192 1067 l 200 1086 l 205 1117 l 205 1135 l 215 1152 l 239 1160 l 260 1161 l 285 1156 l 302 1147 l 319 1120 l 325 1105 l 328 1055 l 361 1053 l 385 1042 l 407 1050 l 433 1048 l 469 1043 l 489 1042 l 517 1035 l 542 1032 l 562 1031 l 582 1031 l 596 1023 l 602 1011 z "},"\\":{"ha":657,"x_min":-1,"x_max":656,"o":"m 656 -53 l 652 -82 l 633 -96 l 610 -106 l 590 -110 l 575 -104 l 550 -123 l 526 -126 l 500 -121 l 488 -109 l 489 -90 l 500 -72 l 505 -43 l 498 8 l 479 47 l 447 102 l 408 182 l 395 207 l 375 236 l 363 272 l 346 310 l 329 343 l 315 376 l 283 457 l 257 514 l 239 558 l 218 600 l 199 642 l 147 760 l 135 793 l 125 822 l 104 863 l 68 943 l 43 977 l 28 1008 l 11 1042 l 0 1071 l -1 1088 l 1 1097 l 17 1095 l 31 1079 l 41 1059 l 54 1039 l 72 1018 l 85 996 l 102 949 l 113 922 l 139 872 l 147 850 l 158 823 l 179 782 l 200 743 l 237 671 l 249 647 l 262 615 l 279 593 l 298 561 l 323 518 l 334 504 l 339 486 l 355 460 l 380 422 l 401 383 l 418 347 l 436 313 l 468 239 l 498 201 l 521 163 l 597 21 l 615 1 l 632 -4 l 646 -25 l 653 -40 l 656 -53 m 646 49 l 643 39 l 633 37 l 625 40 l 623 47 l 631 56 l 642 57 l 646 49 z "},"]":{"ha":555,"x_min":-17,"x_max":575,"o":"m 575 1008 l 564 983 l 549 968 l 526 961 l 511 957 l 485 956 l 454 950 l 435 943 l 421 936 l 408 920 l 404 899 l 404 885 l 403 867 l 403 848 l 397 835 l 399 807 l 399 732 l 397 707 l 395 675 l 397 643 l 395 608 l 390 578 l 390 551 l 389 526 l 379 500 l 371 476 l 366 452 l 367 421 l 366 400 l 371 379 l 372 351 l 379 322 l 379 296 l 382 273 l 382 222 l 383 197 l 386 170 l 386 149 l 389 118 l 390 92 l 395 61 l 397 35 l 392 14 l 392 -8 l 395 -31 l 392 -49 l 396 -68 l 399 -89 l 403 -113 l 404 -138 l 404 -164 l 393 -186 l 385 -205 l 379 -236 l 379 -254 l 370 -271 l 346 -279 l 325 -281 l 300 -275 l 282 -267 l 265 -239 l 260 -225 l 257 -175 l 224 -172 l 200 -161 l 178 -170 l 151 -168 l 115 -163 l 96 -161 l 68 -154 l 43 -151 l 22 -150 l 3 -150 l -11 -143 l -17 -131 l -16 -134 l -5 -125 l 3 -114 l 21 -113 l 36 -106 l 65 -102 l 96 -102 l 132 -94 l 160 -83 l 191 -94 l 212 -83 l 237 -92 l 256 -82 l 267 -65 l 267 -29 l 273 -1 l 275 26 l 279 60 l 282 86 l 282 106 l 288 125 l 288 144 l 286 168 l 293 189 l 293 212 l 296 241 l 298 281 l 300 318 l 302 354 l 300 380 l 300 401 l 302 429 l 309 457 l 311 482 l 314 514 l 318 546 l 321 606 l 326 631 l 328 656 l 326 681 l 332 707 l 338 737 l 340 762 l 346 783 l 350 807 l 350 822 l 353 839 l 357 867 l 359 890 l 363 911 l 359 925 l 347 936 l 332 943 l 311 949 l 289 950 l 254 951 l 222 950 l 184 956 l 160 956 l 147 961 l 117 958 l 82 961 l 56 961 l 32 962 l 12 964 l -1 964 l -7 971 l -4 982 l 7 989 l 29 993 l 61 994 l 96 1002 l 132 1006 l 168 1008 l 196 1008 l 212 1014 l 235 1022 l 257 1015 l 268 1025 l 290 1025 l 321 1039 l 335 1050 l 335 1080 l 345 1105 l 353 1122 l 363 1136 l 363 1154 l 376 1160 l 383 1161 l 392 1156 l 397 1143 l 410 1093 l 412 1064 l 427 1044 l 452 1034 l 481 1035 l 505 1034 l 529 1029 l 550 1022 l 564 1011 l 575 1008 m 96 -183 l 82 -189 l 75 -180 l 78 -171 l 92 -171 l 96 -183 z "},"^":{"ha":699,"x_min":107,"x_max":581,"o":"m 581 472 l 576 469 l 567 460 l 549 457 l 528 458 l 509 463 l 504 467 l 501 467 l 496 472 l 488 476 l 476 488 l 469 496 l 467 501 l 461 503 l 452 517 l 443 521 l 437 525 l 429 533 l 421 536 l 404 545 l 401 549 l 397 553 l 389 558 l 382 564 l 376 571 l 374 576 l 363 587 l 361 591 l 358 595 l 354 600 l 350 602 l 351 612 l 342 618 l 345 621 l 340 625 l 338 631 l 336 635 l 329 640 l 329 647 l 321 650 l 317 653 l 309 660 l 298 656 l 293 653 l 296 648 l 289 644 l 289 640 l 288 640 l 285 633 l 283 625 l 283 624 l 279 621 l 279 618 l 278 608 l 278 604 l 273 600 l 277 596 l 272 590 l 275 581 l 275 572 l 273 559 l 269 545 l 257 532 l 256 525 l 254 519 l 254 513 l 249 510 l 249 505 l 245 497 l 249 488 l 245 481 l 241 475 l 235 467 l 227 463 l 212 457 l 199 456 l 189 449 l 168 447 l 154 447 l 139 452 l 135 454 l 125 454 l 118 460 l 113 463 l 113 469 l 107 475 l 107 489 l 113 498 l 111 505 l 114 511 l 121 513 l 121 519 l 131 522 l 135 529 l 140 538 l 149 541 l 157 553 l 160 567 l 165 568 l 164 578 l 168 591 l 168 600 l 158 614 l 151 625 l 150 639 l 149 647 l 151 650 l 150 656 l 150 659 l 165 671 l 165 675 l 174 681 l 184 693 l 199 705 l 201 715 l 203 722 l 201 728 l 207 746 l 211 762 l 220 783 l 222 794 l 227 800 l 225 818 l 222 835 l 225 850 l 233 863 l 240 872 l 250 876 l 253 886 l 260 892 l 262 897 l 260 901 l 261 911 l 254 922 l 256 933 l 250 937 l 253 947 l 260 947 l 271 953 l 277 953 l 281 958 l 297 960 l 311 956 l 322 945 l 328 942 l 336 932 l 346 920 l 350 907 l 359 893 l 371 884 l 372 878 l 380 871 l 385 864 l 395 856 l 393 847 l 403 835 l 404 829 l 410 822 l 414 810 l 422 800 l 427 783 l 431 772 l 436 755 l 436 749 l 441 741 l 449 724 l 456 710 l 457 697 l 463 689 l 467 682 l 472 671 l 476 660 l 488 650 l 486 635 l 489 625 l 496 615 l 504 606 l 511 591 l 517 583 l 522 571 l 530 558 l 541 545 l 547 532 l 551 513 l 557 511 l 571 492 l 571 486 l 576 482 l 581 472 m 342 346 l 339 340 l 325 343 l 317 351 l 328 354 l 342 354 l 342 346 z "},"_":{"ha":694,"x_min":-8,"x_max":704,"o":"m 704 -195 l 703 -205 l 700 -222 l 694 -232 l 673 -241 l 604 -252 l 440 -262 l 338 -265 l 265 -260 l 165 -268 l 115 -265 l 47 -268 l 17 -262 l 0 -254 l -7 -239 l -8 -215 l -5 -197 l 0 -184 l 32 -176 l 78 -178 l 179 -176 l 399 -182 l 648 -183 l 677 -179 l 694 -184 l 704 -195 z "},"`":{"ha":358,"x_min":69,"x_max":289,"o":"m 289 582 l 273 575 l 260 579 l 248 586 l 207 603 l 195 606 l 176 614 l 154 623 l 127 627 l 113 637 l 96 647 l 82 665 l 83 682 l 83 696 l 74 703 l 69 715 l 69 728 l 75 737 l 94 750 l 113 750 l 125 745 l 147 729 l 164 711 l 186 694 l 210 669 l 250 635 l 269 616 l 286 600 l 289 582 z "},"a":{"ha":421,"x_min":0,"x_max":378,"o":"m 374 179 l 366 174 l 358 176 l 358 184 l 371 191 l 374 179 m 378 58 l 376 49 l 367 39 l 357 39 l 346 50 l 340 68 l 332 82 l 326 102 l 321 107 l 313 103 l 301 96 l 289 81 l 269 69 l 257 57 l 236 46 l 212 37 l 192 31 l 174 25 l 160 20 l 146 24 l 126 26 l 103 36 l 82 49 l 69 65 l 60 83 l 58 113 l 58 132 l 62 154 l 75 176 l 87 197 l 104 212 l 122 225 l 146 229 l 167 232 l 191 237 l 211 250 l 237 264 l 250 269 l 264 273 l 269 288 l 258 307 l 245 325 l 218 350 l 191 358 l 168 359 l 160 358 l 146 358 l 129 350 l 114 340 l 96 338 l 75 338 l 52 332 l 31 332 l 14 340 l 1 353 l 0 370 l 4 385 l 18 401 l 33 421 l 52 436 l 72 447 l 94 465 l 115 475 l 154 482 l 187 485 l 211 478 l 231 468 l 252 461 l 275 446 l 288 433 l 300 414 l 309 389 l 315 364 l 325 332 l 334 307 l 335 286 l 334 260 l 340 229 l 345 197 l 357 142 l 364 121 l 371 102 l 376 78 l 378 58 m 319 62 l 314 58 l 302 62 l 306 71 l 314 75 l 319 62 m 283 203 l 278 211 l 258 216 l 241 215 l 227 208 l 210 203 l 192 193 l 175 191 l 160 183 l 147 174 l 139 161 l 129 146 l 126 132 l 121 119 l 121 103 l 127 89 l 146 83 l 165 83 l 187 89 l 197 100 l 211 103 l 243 125 l 258 135 l 269 153 l 281 167 l 282 186 l 283 203 z "},"b":{"ha":456,"x_min":32,"x_max":406,"o":"m 406 306 l 401 256 l 395 243 l 383 208 l 357 182 l 353 161 l 357 127 l 326 100 l 294 93 l 261 83 l 241 69 l 222 52 l 207 45 l 191 41 l 178 45 l 175 56 l 180 65 l 195 77 l 207 93 l 227 107 l 239 125 l 256 139 l 273 161 l 293 180 l 310 203 l 322 224 l 336 250 l 342 268 l 343 292 l 342 311 l 330 330 l 313 346 l 298 353 l 273 359 l 253 363 l 235 367 l 216 364 l 191 363 l 168 359 l 157 340 l 143 326 l 139 307 l 136 275 l 132 250 l 131 225 l 126 197 l 125 176 l 123 149 l 121 127 l 118 102 l 117 81 l 117 36 l 114 17 l 117 0 l 117 -21 l 114 -35 l 106 -45 l 97 -41 l 93 -37 l 89 -22 l 86 -1 l 86 57 l 85 83 l 89 113 l 89 171 l 86 200 l 92 273 l 83 292 l 64 298 l 53 306 l 39 319 l 32 334 l 33 353 l 41 371 l 54 383 l 61 403 l 85 433 l 86 458 l 85 493 l 82 528 l 81 554 l 81 581 l 75 611 l 74 637 l 69 665 l 68 694 l 65 722 l 65 736 l 68 760 l 68 779 l 62 800 l 61 819 l 53 838 l 53 854 l 61 868 l 74 882 l 93 889 l 113 890 l 136 884 l 155 875 l 178 868 l 195 857 l 197 836 l 196 810 l 204 790 l 210 764 l 211 743 l 204 708 l 191 686 l 179 671 l 170 652 l 170 624 l 153 581 l 151 547 l 149 513 l 146 485 l 146 461 l 153 447 l 168 443 l 208 440 l 236 436 l 256 435 l 279 427 l 302 421 l 325 415 l 347 403 l 371 382 l 387 364 l 401 338 l 406 306 m 144 49 l 138 37 l 131 37 l 131 49 l 138 56 l 144 49 z "},"c":{"ha":421,"x_min":11,"x_max":389,"o":"m 389 371 l 386 353 l 379 339 l 361 307 l 342 301 l 315 301 l 293 309 l 275 311 l 252 318 l 231 318 l 216 313 l 192 298 l 178 283 l 163 264 l 153 244 l 147 228 l 143 216 l 134 208 l 127 180 l 126 160 l 126 121 l 135 100 l 153 82 l 168 75 l 192 68 l 207 61 l 258 61 l 281 65 l 293 71 l 302 78 l 315 77 l 322 65 l 319 56 l 306 45 l 288 36 l 264 26 l 243 20 l 225 17 l 191 14 l 158 17 l 139 25 l 121 33 l 102 46 l 87 52 l 79 71 l 71 87 l 65 107 l 62 132 l 56 160 l 52 191 l 52 212 l 50 241 l 52 264 l 56 288 l 65 307 l 69 321 l 69 347 l 75 367 l 102 390 l 114 396 l 123 399 l 149 408 l 165 414 l 180 415 l 205 421 l 231 431 l 250 436 l 271 441 l 290 440 l 313 436 l 334 429 l 354 414 l 371 403 l 385 389 l 389 371 m 32 311 l 25 301 l 18 307 l 11 315 l 20 325 l 32 325 l 32 311 z "},"d":{"ha":468,"x_min":45,"x_max":454,"o":"m 454 827 l 447 790 l 439 739 l 425 704 l 416 669 l 407 632 l 399 587 l 399 547 l 396 509 l 397 485 l 395 447 l 392 401 l 385 370 l 390 294 l 387 262 l 386 228 l 382 187 l 378 158 l 375 132 l 372 87 l 378 47 l 385 -33 l 390 -53 l 397 -60 l 393 -77 l 382 -85 l 370 -75 l 366 -57 l 364 -36 l 357 -21 l 350 25 l 345 50 l 334 72 l 323 57 l 313 46 l 289 40 l 271 37 l 232 24 l 205 24 l 168 35 l 142 37 l 132 56 l 111 66 l 98 77 l 89 100 l 72 118 l 62 142 l 50 163 l 52 191 l 45 229 l 53 271 l 62 292 l 75 329 l 102 354 l 132 363 l 151 374 l 193 389 l 221 383 l 240 385 l 261 372 l 293 367 l 321 351 l 318 392 l 321 432 l 322 465 l 319 534 l 315 567 l 315 608 l 322 653 l 322 682 l 318 718 l 313 753 l 294 799 l 292 825 l 292 840 l 293 860 l 300 879 l 313 890 l 346 889 l 375 872 l 406 882 l 443 863 l 454 827 m 182 486 l 175 450 l 163 441 l 163 431 l 167 411 l 149 403 l 134 403 l 114 416 l 111 440 l 111 454 l 117 497 l 126 515 l 151 517 l 172 505 l 182 486 m 322 180 l 322 237 l 319 265 l 310 283 l 309 311 l 300 334 l 279 336 l 250 336 l 216 325 l 182 298 l 161 275 l 147 253 l 140 229 l 125 205 l 122 183 l 126 161 l 134 146 l 144 134 l 178 100 l 227 86 l 258 87 l 278 87 l 298 89 l 315 86 l 311 110 l 319 114 l 319 154 l 322 180 z "},"e":{"ha":475,"x_min":43,"x_max":441,"o":"m 441 306 l 429 288 l 410 277 l 386 267 l 357 257 l 325 254 l 296 248 l 275 237 l 252 229 l 232 224 l 200 222 l 175 225 l 158 224 l 143 218 l 136 203 l 139 174 l 147 158 l 163 139 l 192 107 l 207 93 l 236 78 l 252 71 l 271 62 l 293 62 l 314 68 l 332 71 l 351 78 l 371 82 l 383 82 l 385 77 l 378 69 l 366 61 l 345 50 l 322 39 l 301 31 l 281 25 l 250 26 l 220 33 l 195 46 l 165 65 l 139 87 l 121 100 l 107 113 l 96 129 l 87 135 l 71 176 l 56 212 l 46 241 l 43 264 l 45 289 l 50 315 l 56 338 l 62 353 l 69 370 l 75 378 l 87 389 l 97 390 l 114 414 l 134 431 l 154 441 l 179 446 l 211 446 l 237 447 l 273 443 l 302 435 l 383 395 l 404 382 l 424 364 l 435 350 l 441 326 l 441 306 m 372 100 l 364 93 l 357 100 l 361 109 l 371 109 l 372 100 m 313 346 l 301 358 l 283 367 l 264 375 l 241 378 l 220 378 l 200 372 l 180 364 l 163 351 l 153 346 l 142 334 l 146 325 l 155 326 l 171 325 l 197 325 l 220 319 l 243 319 l 268 321 l 290 326 l 310 332 l 313 346 z "},"f":{"ha":293,"x_min":-21,"x_max":335,"o":"m 335 854 l 329 842 l 302 827 l 275 827 l 254 825 l 237 819 l 220 810 l 200 794 l 187 778 l 184 760 l 174 739 l 167 714 l 160 688 l 155 660 l 154 628 l 147 604 l 150 579 l 150 528 l 153 509 l 154 497 l 165 486 l 180 479 l 210 478 l 220 472 l 236 475 l 257 472 l 281 472 l 306 461 l 315 454 l 329 446 l 321 440 l 262 422 l 241 422 l 205 411 l 187 410 l 160 392 l 155 383 l 155 332 l 154 296 l 155 275 l 154 254 l 154 200 l 153 176 l 147 154 l 147 134 l 146 107 l 143 81 l 139 46 l 126 18 l 121 -8 l 111 -37 l 107 -64 l 107 -85 l 104 -106 l 104 -129 l 103 -154 l 107 -174 l 97 -187 l 85 -192 l 77 -179 l 77 -154 l 82 -109 l 83 -78 l 85 -58 l 83 -35 l 90 -14 l 94 14 l 102 39 l 111 75 l 111 97 l 114 119 l 115 144 l 114 383 l 102 390 l 82 385 l 64 382 l 50 378 l 28 379 l 11 385 l -12 408 l -20 421 l -21 431 l -20 446 l -8 461 l 7 472 l 43 478 l 58 478 l 75 475 l 92 485 l 97 493 l 97 504 l 94 528 l 90 554 l 83 579 l 82 596 l 83 612 l 77 650 l 77 669 l 75 690 l 82 729 l 83 754 l 96 791 l 104 812 l 114 831 l 122 848 l 126 864 l 129 884 l 142 900 l 155 909 l 174 920 l 195 925 l 212 926 l 232 932 l 257 926 l 278 920 l 293 913 l 322 882 l 334 868 l 335 854 z "},"g":{"ha":454,"x_min":20,"x_max":393,"o":"m 393 422 l 386 410 l 378 399 l 372 379 l 374 351 l 374 321 l 378 289 l 378 248 l 383 208 l 380 174 l 383 134 l 380 102 l 383 71 l 378 52 l 380 26 l 378 -8 l 374 -39 l 371 -77 l 364 -102 l 357 -125 l 345 -157 l 329 -193 l 314 -220 l 283 -250 l 265 -264 l 236 -275 l 207 -285 l 168 -288 l 134 -285 l 104 -282 l 78 -271 l 57 -262 l 39 -245 l 26 -231 l 20 -211 l 20 -195 l 31 -192 l 40 -199 l 50 -208 l 62 -225 l 79 -236 l 98 -250 l 122 -253 l 155 -262 l 191 -258 l 220 -252 l 241 -240 l 265 -221 l 281 -199 l 297 -172 l 307 -147 l 321 -117 l 325 -85 l 329 -46 l 332 -8 l 332 17 l 329 41 l 328 58 l 329 96 l 301 78 l 268 68 l 229 62 l 199 68 l 167 77 l 134 96 l 114 110 l 92 122 l 78 144 l 65 165 l 69 191 l 62 205 l 52 235 l 52 244 l 53 286 l 62 321 l 71 346 l 94 364 l 110 385 l 114 411 l 134 424 l 146 432 l 154 446 l 210 456 l 245 450 l 268 447 l 288 440 l 301 431 l 314 422 l 328 424 l 340 435 l 346 447 l 364 450 l 380 446 l 390 435 l 393 422 m 127 26 l 126 14 l 115 5 l 94 5 l 85 20 l 104 26 l 115 36 l 127 26 m 325 160 l 321 183 l 321 208 l 322 235 l 319 286 l 315 315 l 309 334 l 294 347 l 277 343 l 257 332 l 237 319 l 216 300 l 187 288 l 154 236 l 153 208 l 149 186 l 158 167 l 175 151 l 193 125 l 225 107 l 250 102 l 282 103 l 314 109 l 322 134 l 325 160 z "},"h":{"ha":471,"x_min":16,"x_max":410,"o":"m 410 25 l 406 4 l 395 -11 l 389 -16 l 376 -16 l 364 -4 l 382 8 l 383 24 l 386 35 l 379 68 l 376 100 l 370 153 l 375 175 l 358 196 l 355 215 l 359 228 l 353 244 l 353 267 l 347 283 l 335 297 l 326 310 l 311 334 l 307 354 l 289 370 l 279 379 l 261 379 l 227 372 l 212 364 l 195 336 l 182 300 l 176 275 l 171 262 l 167 239 l 165 214 l 165 195 l 163 171 l 163 93 l 171 40 l 172 17 l 175 -7 l 175 -24 l 174 -46 l 168 -58 l 160 -74 l 144 -75 l 134 -69 l 123 -57 l 129 -36 l 125 -17 l 122 31 l 115 54 l 121 72 l 113 96 l 111 123 l 104 155 l 104 184 l 102 197 l 89 256 l 85 271 l 85 300 l 81 321 l 74 347 l 72 374 l 74 403 l 69 416 l 62 467 l 66 509 l 57 528 l 53 559 l 47 586 l 47 614 l 49 648 l 43 664 l 49 676 l 47 700 l 36 724 l 32 750 l 26 762 l 28 775 l 22 802 l 17 829 l 16 850 l 31 871 l 37 888 l 47 884 l 53 895 l 64 914 l 85 921 l 109 917 l 131 916 l 150 901 l 167 879 l 175 861 l 178 833 l 172 815 l 164 798 l 157 771 l 153 739 l 150 713 l 150 676 l 144 643 l 151 618 l 153 586 l 153 551 l 154 521 l 153 488 l 153 415 l 168 432 l 187 457 l 227 471 l 268 467 l 296 463 l 322 453 l 353 435 l 374 406 l 383 389 l 390 350 l 396 322 l 396 294 l 400 258 l 401 225 l 401 197 l 404 171 l 404 142 l 400 102 l 404 71 l 406 46 l 410 25 z "},"i":{"ha":231,"x_min":21,"x_max":171,"o":"m 94 750 l 83 743 l 72 746 l 75 758 l 85 762 l 94 750 m 163 725 l 160 714 l 149 701 l 139 688 l 139 675 l 146 663 l 153 653 l 153 633 l 146 616 l 135 603 l 121 591 l 103 590 l 83 591 l 72 599 l 58 608 l 46 623 l 31 642 l 24 660 l 21 673 l 24 686 l 31 701 l 40 713 l 60 724 l 77 726 l 102 729 l 126 736 l 143 737 l 155 736 l 163 725 m 171 431 l 167 424 l 153 416 l 143 408 l 139 392 l 136 370 l 129 347 l 134 328 l 127 311 l 126 289 l 123 265 l 123 241 l 126 212 l 123 191 l 123 167 l 127 149 l 134 131 l 127 110 l 135 92 l 135 60 l 136 47 l 142 29 l 143 9 l 149 -4 l 149 -17 l 154 -29 l 147 -41 l 139 -45 l 134 -41 l 127 -28 l 123 -12 l 121 0 l 114 14 l 114 26 l 104 47 l 104 66 l 102 81 l 102 100 l 97 117 l 94 158 l 92 170 l 90 196 l 92 214 l 90 233 l 90 250 l 83 264 l 72 271 l 64 279 l 56 306 l 53 321 l 53 375 l 56 399 l 52 424 l 50 440 l 45 456 l 50 472 l 58 485 l 69 489 l 85 493 l 102 489 l 114 478 l 126 468 l 142 468 l 153 457 l 163 450 l 171 443 l 171 431 z "},"j":{"ha":311,"x_min":-164,"x_max":249,"o":"m 208 632 l 207 612 l 191 600 l 171 593 l 129 579 l 106 572 l 86 572 l 68 575 l 54 582 l 43 599 l 40 614 l 41 632 l 56 650 l 75 660 l 102 665 l 123 676 l 138 694 l 151 733 l 164 747 l 176 758 l 191 758 l 200 747 l 200 733 l 197 711 l 193 696 l 196 676 l 200 664 l 197 656 l 203 644 l 208 632 m -9 204 l -16 196 l -24 193 l -29 203 l -21 211 l -9 204 m 249 403 l 241 389 l 232 364 l 222 343 l 220 319 l 216 298 l 212 275 l 208 254 l 208 228 l 203 204 l 203 174 l 200 154 l 200 140 l 197 113 l 197 87 l 201 75 l 200 61 l 197 36 l 196 9 l 196 -16 l 201 -39 l 201 -60 l 197 -83 l 191 -102 l 189 -118 l 189 -138 l 184 -157 l 176 -180 l 165 -201 l 155 -224 l 143 -237 l 125 -257 l 114 -272 l 98 -278 l 81 -292 l 61 -300 l 40 -310 l 21 -321 l -1 -326 l -17 -323 l -29 -329 l -53 -328 l -74 -328 l -92 -319 l -106 -317 l -134 -300 l -149 -300 l -157 -285 l -158 -275 l -164 -262 l -157 -256 l -146 -257 l -134 -268 l -123 -282 l -113 -289 l -106 -297 l -72 -307 l -54 -307 l -40 -310 l -21 -307 l 1 -297 l 21 -288 l 36 -272 l 54 -257 l 65 -240 l 75 -231 l 92 -211 l 98 -192 l 110 -168 l 118 -149 l 123 -129 l 125 -110 l 131 -92 l 134 -77 l 131 -53 l 125 -33 l 125 -14 l 119 5 l 119 24 l 123 37 l 117 58 l 114 78 l 110 97 l 107 113 l 106 132 l 107 151 l 102 171 l 98 186 l 98 208 l 102 225 l 97 244 l 104 260 l 97 273 l 94 292 l 94 309 l 86 325 l 82 347 l 74 370 l 68 390 l 66 411 l 74 431 l 81 447 l 87 461 l 102 467 l 114 468 l 131 475 l 151 475 l 170 472 l 189 465 l 207 458 l 222 446 l 235 436 l 244 416 l 249 403 z "},"k":{"ha":414,"x_min":50,"x_max":424,"o":"m 424 17 l 421 7 l 411 5 l 393 5 l 374 14 l 353 25 l 347 37 l 330 50 l 317 69 l 298 86 l 273 122 l 264 139 l 248 153 l 228 167 l 212 180 l 195 192 l 167 218 l 143 244 l 139 151 l 136 134 l 136 71 l 132 52 l 129 5 l 125 -16 l 113 -71 l 111 -89 l 104 -106 l 92 -109 l 81 -106 l 78 -92 l 78 -68 l 92 -39 l 98 -14 l 98 9 l 102 37 l 100 62 l 102 96 l 102 134 l 100 171 l 94 216 l 81 248 l 79 279 l 79 318 l 81 343 l 83 367 l 78 392 l 78 421 l 79 453 l 81 467 l 79 493 l 72 515 l 71 541 l 71 582 l 62 614 l 66 656 l 52 679 l 53 715 l 53 739 l 50 762 l 56 794 l 52 822 l 60 842 l 74 857 l 87 875 l 103 893 l 122 900 l 143 896 l 157 889 l 176 878 l 193 861 l 205 842 l 212 825 l 214 807 l 207 787 l 201 768 l 193 743 l 182 721 l 180 697 l 174 676 l 167 646 l 170 624 l 160 596 l 144 572 l 144 538 l 142 525 l 143 504 l 143 435 l 142 415 l 146 383 l 143 351 l 193 379 l 212 399 l 227 404 l 240 415 l 277 431 l 289 441 l 302 443 l 317 450 l 334 453 l 353 454 l 368 453 l 382 447 l 392 436 l 395 427 l 389 415 l 379 408 l 359 401 l 340 392 l 322 383 l 310 371 l 292 359 l 278 358 l 264 346 l 245 334 l 228 318 l 208 300 l 199 286 l 193 275 l 193 264 l 203 250 l 212 243 l 232 228 l 245 208 l 264 192 l 309 139 l 318 121 l 336 102 l 350 83 l 366 75 l 382 61 l 399 52 l 407 37 l 419 25 l 424 17 z "},"l":{"ha":248,"x_min":31,"x_max":229,"o":"m 195 854 l 191 842 l 191 825 l 189 800 l 183 778 l 178 747 l 183 724 l 178 703 l 175 676 l 170 611 l 164 591 l 163 570 l 164 538 l 153 515 l 149 485 l 142 452 l 136 415 l 131 390 l 122 371 l 123 357 l 123 338 l 118 319 l 115 296 l 114 277 l 110 250 l 110 228 l 103 203 l 103 142 l 104 122 l 104 103 l 107 83 l 115 68 l 134 52 l 143 39 l 165 17 l 163 7 l 149 7 l 132 14 l 113 29 l 94 56 l 82 78 l 81 100 l 79 127 l 79 149 l 75 172 l 72 196 l 72 222 l 79 249 l 81 275 l 85 294 l 89 315 l 86 338 l 89 363 l 89 390 l 93 411 l 89 433 l 86 461 l 89 496 l 82 534 l 81 572 l 82 604 l 79 675 l 81 704 l 79 733 l 72 760 l 65 787 l 60 817 l 49 836 l 37 854 l 31 875 l 31 900 l 43 916 l 62 925 l 82 933 l 100 933 l 117 932 l 136 922 l 155 905 l 170 895 l 183 880 l 195 854 m 229 275 l 220 268 l 208 273 l 215 288 l 228 286 l 229 275 z "},"m":{"ha":635,"x_min":40,"x_max":593,"o":"m 582 431 l 564 424 l 557 435 l 564 450 l 578 443 l 582 431 m 593 103 l 591 89 l 586 72 l 574 69 l 574 96 l 570 110 l 564 129 l 561 154 l 557 179 l 551 195 l 547 216 l 539 277 l 530 292 l 518 306 l 505 309 l 494 311 l 476 313 l 460 313 l 443 315 l 422 301 l 411 294 l 404 275 l 397 262 l 392 241 l 385 218 l 378 200 l 374 176 l 371 158 l 372 134 l 371 121 l 371 89 l 367 69 l 366 56 l 357 41 l 345 41 l 335 49 l 332 58 l 332 96 l 334 122 l 334 174 l 335 197 l 334 222 l 334 244 l 332 264 l 332 313 l 328 334 l 319 353 l 307 359 l 288 357 l 271 350 l 258 339 l 245 326 l 231 307 l 218 289 l 207 267 l 197 241 l 186 211 l 182 179 l 179 154 l 175 127 l 175 103 l 178 81 l 178 50 l 168 31 l 153 14 l 136 9 l 121 9 l 111 17 l 104 26 l 94 57 l 90 89 l 85 117 l 85 149 l 83 180 l 79 212 l 78 243 l 72 269 l 72 296 l 75 315 l 72 332 l 65 351 l 57 371 l 40 404 l 45 422 l 53 435 l 60 443 l 82 453 l 98 458 l 122 456 l 147 450 l 165 443 l 186 433 l 199 421 l 207 411 l 214 399 l 232 401 l 252 410 l 269 415 l 282 424 l 307 429 l 325 422 l 340 414 l 353 401 l 359 385 l 359 371 l 364 351 l 366 334 l 375 346 l 386 353 l 399 370 l 411 383 l 425 392 l 439 403 l 454 408 l 468 411 l 482 410 l 496 401 l 515 395 l 532 382 l 543 367 l 551 353 l 558 338 l 561 319 l 561 300 l 564 281 l 564 264 l 568 243 l 571 218 l 578 200 l 582 183 l 583 167 l 583 146 l 585 127 l 586 114 l 593 103 z "},"n":{"ha":476,"x_min":43,"x_max":415,"o":"m 415 79 l 410 72 l 403 66 l 389 68 l 376 79 l 372 92 l 371 110 l 371 125 l 366 144 l 364 164 l 364 182 l 358 200 l 357 221 l 346 254 l 343 304 l 332 339 l 315 354 l 296 363 l 288 374 l 273 380 l 252 374 l 236 368 l 222 353 l 208 336 l 191 311 l 183 294 l 179 279 l 176 265 l 165 250 l 153 235 l 147 212 l 146 187 l 146 163 l 143 132 l 142 104 l 142 79 l 143 56 l 149 35 l 153 17 l 154 0 l 147 -8 l 142 -16 l 129 -18 l 117 -18 l 109 -12 l 102 -4 l 94 20 l 90 39 l 85 78 l 85 93 l 82 110 l 79 132 l 79 158 l 77 182 l 77 200 l 75 218 l 71 239 l 71 264 l 69 286 l 69 372 l 64 389 l 56 401 l 50 412 l 45 427 l 43 443 l 45 456 l 52 468 l 60 476 l 75 488 l 94 489 l 114 488 l 129 478 l 143 468 l 158 453 l 165 443 l 171 427 l 186 419 l 200 424 l 220 427 l 239 432 l 257 437 l 281 440 l 300 443 l 319 436 l 329 425 l 338 406 l 345 392 l 347 372 l 354 359 l 364 343 l 371 321 l 372 301 l 374 279 l 378 258 l 379 237 l 385 218 l 386 200 l 386 180 l 389 161 l 396 142 l 399 122 l 410 107 l 415 92 l 415 79 m 353 60 l 347 52 l 340 49 l 335 60 l 346 71 l 353 60 z "},"o":{"ha":439,"x_min":43,"x_max":396,"o":"m 257 359 l 249 357 l 240 364 l 245 370 l 254 368 l 257 359 m 396 208 l 393 184 l 389 163 l 379 146 l 372 127 l 361 109 l 345 97 l 334 81 l 311 69 l 289 61 l 262 58 l 236 54 l 211 52 l 184 57 l 163 61 l 142 69 l 125 77 l 107 93 l 92 111 l 75 121 l 64 139 l 56 158 l 46 176 l 45 197 l 43 224 l 46 243 l 53 269 l 53 296 l 61 322 l 75 364 l 90 378 l 93 393 l 107 404 l 125 416 l 142 427 l 167 432 l 183 429 l 197 421 l 205 406 l 208 392 l 207 374 l 196 359 l 183 343 l 175 325 l 174 307 l 160 294 l 153 269 l 146 253 l 144 228 l 144 207 l 149 184 l 158 167 l 170 153 l 184 142 l 199 127 l 216 122 l 239 121 l 241 117 l 267 118 l 289 122 l 314 139 l 329 154 l 340 176 l 345 197 l 345 225 l 338 241 l 326 262 l 314 279 l 298 294 l 282 307 l 269 317 l 260 325 l 257 339 l 262 349 l 275 349 l 288 340 l 304 334 l 315 325 l 338 310 l 353 298 l 363 283 l 375 265 l 386 249 l 392 233 l 396 208 z "},"p":{"ha":468,"x_min":14,"x_max":424,"o":"m 424 254 l 419 229 l 412 207 l 393 163 l 375 146 l 363 138 l 346 129 l 326 121 l 306 117 l 261 117 l 243 121 l 229 125 l 218 139 l 212 153 l 211 165 l 212 172 l 218 182 l 229 182 l 236 176 l 236 163 l 239 144 l 261 132 l 282 132 l 296 135 l 322 144 l 336 158 l 357 184 l 366 215 l 371 245 l 371 262 l 361 281 l 355 298 l 354 318 l 346 332 l 338 347 l 329 359 l 315 370 l 301 374 l 282 379 l 262 378 l 237 358 l 222 343 l 215 326 l 210 310 l 207 288 l 210 275 l 197 264 l 187 256 l 178 245 l 174 233 l 174 214 l 171 195 l 171 179 l 168 163 l 170 146 l 165 134 l 160 118 l 153 71 l 146 40 l 143 21 l 138 -4 l 135 -33 l 123 -60 l 122 -79 l 114 -102 l 107 -122 l 102 -149 l 96 -172 l 93 -193 l 92 -215 l 93 -241 l 94 -257 l 100 -271 l 97 -283 l 83 -296 l 77 -302 l 64 -288 l 60 -268 l 58 -250 l 58 -224 l 60 -204 l 62 -184 l 61 -163 l 65 -157 l 72 -139 l 79 -115 l 85 -102 l 90 -81 l 96 -62 l 103 -46 l 94 -22 l 93 5 l 93 26 l 94 41 l 90 65 l 93 107 l 103 125 l 97 151 l 102 180 l 102 205 l 104 227 l 102 250 l 103 267 l 97 283 l 87 290 l 92 306 l 100 322 l 102 342 l 97 359 l 97 375 l 92 389 l 71 421 l 62 461 l 61 473 l 61 486 l 71 500 l 85 515 l 107 515 l 150 504 l 170 498 l 180 475 l 184 452 l 191 441 l 210 443 l 229 452 l 279 458 l 300 457 l 323 450 l 336 443 l 353 435 l 371 419 l 395 380 l 400 359 l 408 336 l 414 317 l 418 298 l 421 279 l 424 254 m 35 232 l 31 221 l 20 218 l 14 233 l 25 239 l 35 232 m 62 -81 l 61 -92 l 52 -90 l 45 -83 l 56 -75 l 62 -81 z "},"q":{"ha":416,"x_min":50,"x_max":460,"o":"m 325 500 l 323 493 l 314 486 l 306 496 l 315 505 l 325 500 m 460 -74 l 454 -86 l 437 -115 l 425 -140 l 419 -167 l 397 -191 l 393 -215 l 382 -248 l 372 -272 l 364 -302 l 363 -328 l 361 -358 l 359 -382 l 355 -404 l 340 -424 l 339 -418 l 326 -411 l 314 -392 l 314 -372 l 309 -342 l 309 -317 l 298 -289 l 294 -245 l 292 -212 l 285 -164 l 279 -74 l 285 -47 l 285 39 l 283 61 l 272 68 l 267 72 l 257 71 l 243 62 l 229 49 l 208 36 l 174 28 l 139 29 l 121 45 l 93 49 l 81 61 l 69 81 l 61 102 l 58 122 l 50 146 l 50 218 l 52 241 l 56 253 l 50 267 l 60 288 l 61 304 l 71 325 l 83 349 l 94 371 l 106 383 l 126 395 l 143 399 l 167 401 l 199 400 l 214 404 l 235 404 l 253 403 l 268 400 l 278 401 l 283 415 l 283 429 l 282 441 l 289 447 l 292 461 l 301 468 l 311 472 l 323 471 l 334 464 l 339 456 l 336 440 l 336 424 l 329 406 l 321 387 l 355 367 l 364 351 l 374 332 l 374 319 l 364 304 l 353 283 l 325 275 l 329 241 l 329 211 l 336 184 l 336 158 l 342 135 l 339 111 l 339 68 l 346 50 l 340 36 l 345 24 l 350 -1 l 350 -26 l 343 -75 l 340 -111 l 345 -136 l 343 -154 l 350 -175 l 346 -191 l 353 -193 l 363 -191 l 376 -172 l 382 -151 l 399 -131 l 404 -111 l 419 -94 l 433 -69 l 443 -56 l 449 -56 l 457 -57 l 460 -65 l 460 -74 m 175 -16 l 154 -28 l 144 -49 l 144 -74 l 136 -92 l 115 -102 l 96 -74 l 97 -54 l 97 -29 l 103 -14 l 113 -4 l 126 7 l 154 16 l 174 5 l 175 -16 m 269 182 l 267 201 l 262 216 l 261 243 l 264 262 l 264 286 l 253 298 l 240 290 l 229 290 l 222 286 l 199 271 l 178 264 l 164 248 l 151 235 l 142 224 l 135 203 l 127 186 l 117 161 l 114 123 l 115 98 l 131 81 l 147 77 l 167 69 l 189 72 l 208 72 l 232 93 l 243 104 l 245 121 l 262 142 l 261 155 l 269 182 z "},"r":{"ha":345,"x_min":53,"x_max":345,"o":"m 345 375 l 335 372 l 322 374 l 310 374 l 292 371 l 269 358 l 258 343 l 236 334 l 227 322 l 208 306 l 200 289 l 195 273 l 195 253 l 189 237 l 183 221 l 178 203 l 176 183 l 176 139 l 175 119 l 170 100 l 168 81 l 165 60 l 165 40 l 155 20 l 143 8 l 125 3 l 113 0 l 102 3 l 92 14 l 86 26 l 81 40 l 82 56 l 81 78 l 81 110 l 79 125 l 81 142 l 82 164 l 82 183 l 85 205 l 86 228 l 85 253 l 85 273 l 82 290 l 81 306 l 69 325 l 60 340 l 54 357 l 53 375 l 56 392 l 62 404 l 74 412 l 93 419 l 114 429 l 132 427 l 155 416 l 158 403 l 168 385 l 168 357 l 176 349 l 184 347 l 196 350 l 210 361 l 228 372 l 249 382 l 267 392 l 288 395 l 310 400 l 322 400 l 339 395 l 345 385 l 345 375 z "},"s":{"ha":370,"x_min":0,"x_max":329,"o":"m 21 447 l 11 441 l 0 450 l 8 461 l 21 458 l 21 447 m 329 129 l 326 110 l 319 89 l 310 71 l 296 57 l 278 41 l 262 36 l 245 26 l 231 20 l 210 18 l 167 18 l 153 29 l 134 31 l 107 37 l 85 46 l 72 57 l 58 62 l 50 78 l 43 93 l 43 113 l 50 132 l 56 144 l 65 158 l 77 160 l 82 149 l 77 134 l 75 117 l 75 97 l 85 82 l 103 75 l 122 68 l 139 61 l 167 58 l 184 50 l 207 56 l 225 61 l 239 69 l 257 82 l 271 93 l 281 103 l 282 122 l 282 144 l 275 161 l 261 179 l 241 186 l 218 197 l 210 205 l 184 218 l 167 229 l 147 237 l 135 244 l 117 249 l 104 250 l 87 260 l 72 269 l 62 286 l 53 300 l 46 318 l 45 339 l 50 358 l 52 375 l 60 395 l 71 411 l 82 427 l 85 435 l 94 447 l 107 447 l 111 461 l 126 465 l 142 473 l 160 475 l 180 478 l 207 486 l 231 492 l 250 492 l 269 486 l 283 478 l 300 465 l 310 458 l 321 443 l 325 433 l 325 414 l 315 399 l 306 389 l 289 382 l 261 379 l 239 382 l 220 383 l 199 379 l 179 370 l 165 359 l 153 346 l 147 326 l 155 311 l 168 300 l 186 296 l 199 286 l 211 275 l 225 264 l 237 250 l 250 248 l 261 241 l 271 229 l 283 224 l 296 216 l 310 204 l 321 191 l 322 171 l 326 149 l 329 129 z "},"t":{"ha":378,"x_min":-9,"x_max":395,"o":"m 374 368 l 366 354 l 349 357 l 346 370 l 358 374 l 374 368 m 395 452 l 393 441 l 383 435 l 366 431 l 346 429 l 325 424 l 306 424 l 285 422 l 258 416 l 243 421 l 224 415 l 210 406 l 203 395 l 203 382 l 201 361 l 196 350 l 196 334 l 192 315 l 184 289 l 182 267 l 182 179 l 183 158 l 182 132 l 176 113 l 175 97 l 172 71 l 178 24 l 183 12 l 192 -7 l 205 -17 l 231 -26 l 245 -25 l 275 -25 l 268 -36 l 244 -45 l 212 -45 l 192 -41 l 171 -35 l 151 -22 l 131 -16 l 110 7 l 100 29 l 98 54 l 93 79 l 87 97 l 90 123 l 90 151 l 87 172 l 92 192 l 85 218 l 82 249 l 81 273 l 82 296 l 87 321 l 87 408 l 69 406 l 52 400 l 32 393 l 18 383 l 5 380 l -4 382 l -9 389 l -9 396 l -7 408 l 1 416 l 16 424 l 31 422 l 49 427 l 66 429 l 87 431 l 90 443 l 87 463 l 90 485 l 92 514 l 90 533 l 87 550 l 82 567 l 82 582 l 90 599 l 110 608 l 123 623 l 144 631 l 161 629 l 176 623 l 192 612 l 197 603 l 208 590 l 212 579 l 222 562 l 225 554 l 224 534 l 218 519 l 216 503 l 210 489 l 212 476 l 224 468 l 243 464 l 261 467 l 313 467 l 328 464 l 354 463 l 374 457 l 383 456 l 395 452 z "},"u":{"ha":469,"x_min":53,"x_max":461,"o":"m 461 78 l 454 66 l 446 61 l 435 60 l 425 62 l 419 69 l 408 82 l 395 93 l 385 103 l 367 142 l 364 158 l 359 172 l 355 183 l 350 183 l 343 175 l 335 161 l 330 149 l 326 135 l 319 121 l 311 109 l 301 97 l 290 82 l 272 72 l 258 65 l 232 58 l 211 57 l 195 60 l 176 69 l 154 75 l 139 87 l 121 97 l 110 109 l 94 122 l 89 143 l 81 165 l 75 187 l 69 214 l 64 229 l 68 250 l 61 275 l 60 289 l 58 310 l 56 328 l 53 340 l 54 358 l 58 372 l 72 387 l 90 395 l 104 396 l 122 393 l 139 385 l 151 375 l 163 358 l 170 343 l 175 322 l 172 307 l 163 294 l 154 279 l 153 260 l 146 237 l 146 218 l 147 192 l 154 164 l 164 151 l 175 134 l 195 119 l 214 110 l 237 103 l 256 110 l 273 119 l 288 134 l 301 155 l 311 174 l 319 192 l 326 211 l 332 236 l 335 265 l 329 290 l 325 313 l 321 322 l 323 340 l 322 358 l 325 372 l 329 385 l 332 403 l 339 414 l 347 419 l 359 415 l 366 404 l 367 395 l 372 380 l 371 367 l 371 346 l 366 325 l 366 315 l 359 307 l 363 290 l 366 271 l 372 253 l 374 225 l 380 207 l 386 183 l 389 164 l 396 143 l 404 127 l 415 114 l 427 102 l 457 87 l 461 78 m 228 254 l 225 222 l 205 203 l 189 218 l 178 241 l 179 267 l 172 281 l 180 289 l 195 288 l 208 279 l 228 254 z "},"v":{"ha":364,"x_min":0,"x_max":364,"o":"m 364 421 l 357 404 l 346 395 l 334 379 l 325 364 l 314 346 l 302 330 l 302 321 l 296 309 l 289 288 l 281 267 l 271 243 l 264 224 l 257 205 l 249 180 l 239 154 l 236 127 l 229 103 l 227 83 l 222 68 l 227 57 l 227 41 l 225 29 l 216 17 l 205 7 l 192 4 l 175 9 l 168 18 l 160 33 l 155 56 l 154 75 l 146 96 l 139 113 l 129 135 l 122 158 l 111 179 l 104 203 l 77 289 l 65 318 l 60 363 l 52 378 l 39 395 l 31 411 l 24 431 l 11 447 l 1 463 l 0 475 l 1 493 l 14 510 l 32 518 l 58 517 l 82 513 l 103 504 l 122 492 l 136 475 l 153 458 l 179 444 l 187 431 l 189 411 l 195 393 l 192 380 l 183 370 l 180 354 l 183 334 l 183 315 l 189 296 l 192 273 l 196 254 l 199 232 l 200 212 l 192 197 l 192 186 l 197 176 l 204 183 l 212 200 l 227 236 l 232 244 l 245 277 l 257 296 l 257 313 l 268 330 l 275 347 l 288 363 l 294 379 l 309 392 l 319 404 l 332 421 l 340 433 l 346 440 l 354 440 l 364 431 l 364 421 z "},"w":{"ha":498,"x_min":25,"x_max":475,"o":"m 399 380 l 395 374 l 387 379 l 387 385 l 395 387 l 399 380 m 475 416 l 471 406 l 465 395 l 458 375 l 446 359 l 440 346 l 433 325 l 425 301 l 424 278 l 418 258 l 418 237 l 416 225 l 412 208 l 410 187 l 407 161 l 406 139 l 403 119 l 395 98 l 385 79 l 383 61 l 383 45 l 378 26 l 378 7 l 375 -5 l 371 -17 l 355 -24 l 345 -24 l 336 -12 l 332 9 l 330 26 l 321 36 l 319 47 l 315 62 l 309 90 l 306 109 l 302 122 l 298 138 l 294 154 l 290 165 l 290 179 l 283 191 l 279 201 l 273 221 l 272 235 l 267 248 l 258 260 l 250 267 l 241 258 l 237 244 l 232 229 l 231 216 l 228 207 l 220 196 l 212 176 l 205 160 l 199 140 l 197 121 l 191 103 l 186 83 l 180 62 l 176 40 l 170 24 l 164 5 l 155 -7 l 142 -17 l 134 -18 l 122 -18 l 113 -12 l 111 -3 l 106 12 l 102 29 l 97 45 l 94 69 l 87 83 l 87 98 l 86 119 l 86 138 l 83 155 l 77 196 l 72 214 l 71 232 l 72 249 l 69 269 l 65 288 l 58 301 l 54 317 l 49 329 l 40 336 l 31 347 l 25 361 l 25 385 l 35 399 l 43 408 l 61 415 l 82 412 l 100 403 l 113 395 l 123 382 l 127 371 l 136 358 l 142 340 l 142 321 l 144 301 l 142 278 l 144 256 l 144 229 l 147 214 l 150 200 l 153 184 l 153 172 l 157 167 l 165 171 l 174 176 l 180 191 l 184 205 l 191 224 l 205 264 l 216 285 l 227 300 l 237 321 l 245 340 l 250 353 l 257 364 l 262 371 l 278 370 l 285 359 l 285 346 l 283 330 l 283 317 l 285 300 l 290 285 l 298 264 l 301 243 l 309 221 l 314 195 l 319 172 l 325 151 l 330 138 l 330 121 l 335 103 l 338 87 l 342 75 l 345 61 l 350 57 l 358 69 l 358 82 l 355 97 l 347 113 l 346 127 l 347 143 l 353 165 l 354 183 l 354 203 l 355 224 l 361 244 l 371 264 l 375 285 l 378 301 l 387 317 l 396 330 l 406 350 l 414 368 l 424 380 l 435 396 l 440 410 l 450 421 l 457 435 l 468 436 l 469 431 l 475 416 z "},"x":{"ha":440,"x_min":22,"x_max":418,"o":"m 418 -24 l 415 -32 l 407 -39 l 393 -39 l 382 -32 l 372 -20 l 367 -7 l 351 7 l 343 20 l 329 32 l 314 49 l 304 61 l 275 93 l 267 111 l 262 127 l 261 144 l 261 150 l 249 158 l 233 164 l 222 180 l 208 179 l 195 170 l 189 154 l 189 144 l 180 139 l 176 127 l 163 118 l 149 106 l 139 92 l 132 77 l 122 64 l 111 49 l 100 39 l 94 25 l 90 20 l 81 9 l 72 -3 l 61 -14 l 50 -22 l 35 -24 l 25 -14 l 24 -5 l 25 7 l 32 20 l 41 29 l 53 39 l 61 52 l 72 62 l 83 77 l 92 96 l 102 111 l 114 125 l 121 138 l 132 154 l 147 167 l 158 182 l 170 192 l 180 215 l 165 243 l 144 271 l 123 292 l 117 302 l 103 317 l 92 336 l 82 351 l 79 363 l 69 372 l 61 385 l 40 408 l 28 419 l 22 428 l 24 441 l 33 453 l 45 453 l 61 449 l 71 441 l 81 428 l 83 415 l 93 400 l 102 385 l 107 372 l 114 357 l 136 322 l 153 317 l 165 294 l 182 271 l 205 254 l 212 273 l 225 292 l 229 304 l 237 321 l 248 334 l 258 349 l 268 367 l 275 382 l 283 397 l 283 414 l 292 427 l 296 439 l 304 446 l 315 458 l 330 468 l 350 473 l 367 473 l 382 471 l 396 461 l 410 436 l 408 427 l 407 415 l 399 404 l 387 396 l 376 385 l 364 370 l 353 361 l 340 347 l 329 338 l 315 321 l 302 304 l 288 271 l 278 254 l 261 243 l 253 228 l 240 215 l 249 207 l 261 189 l 271 174 l 290 154 l 294 135 l 302 127 l 311 115 l 319 102 l 334 83 l 345 71 l 357 54 l 367 41 l 379 29 l 392 20 l 400 9 l 410 0 l 416 -12 l 418 -24 m 96 179 l 92 171 l 77 167 l 75 180 l 87 191 l 96 179 z "},"y":{"ha":500,"x_min":11,"x_max":425,"o":"m 35 306 l 28 298 l 20 301 l 11 309 l 21 318 l 31 315 l 35 306 m 425 56 l 424 36 l 418 0 l 418 -16 l 414 -35 l 415 -53 l 412 -69 l 406 -79 l 406 -98 l 401 -122 l 395 -143 l 383 -167 l 380 -179 l 374 -189 l 367 -201 l 357 -215 l 343 -229 l 339 -240 l 326 -253 l 315 -265 l 302 -277 l 290 -286 l 273 -293 l 264 -302 l 245 -310 l 222 -315 l 200 -314 l 144 -304 l 121 -297 l 106 -294 l 90 -279 l 82 -277 l 75 -267 l 71 -250 l 69 -236 l 69 -210 l 71 -187 l 75 -178 l 79 -171 l 85 -167 l 90 -171 l 90 -179 l 89 -192 l 92 -204 l 92 -222 l 89 -233 l 96 -253 l 104 -261 l 115 -267 l 127 -277 l 139 -278 l 149 -278 l 163 -282 l 179 -282 l 199 -285 l 216 -279 l 231 -278 l 249 -282 l 258 -271 l 269 -262 l 282 -256 l 293 -248 l 310 -222 l 330 -199 l 332 -184 l 342 -175 l 347 -161 l 354 -151 l 354 -140 l 361 -121 l 368 -106 l 372 -86 l 378 -62 l 375 -47 l 382 -29 l 382 -5 l 383 16 l 386 36 l 382 61 l 376 79 l 372 92 l 364 103 l 359 107 l 353 103 l 340 92 l 329 81 l 313 75 l 300 65 l 288 58 l 273 56 l 267 49 l 249 45 l 229 37 l 207 37 l 184 46 l 164 56 l 153 57 l 144 68 l 136 71 l 121 83 l 104 93 l 94 111 l 86 125 l 81 139 l 75 158 l 71 182 l 71 205 l 62 228 l 62 250 l 58 264 l 56 286 l 50 306 l 37 325 l 33 340 l 28 358 l 31 371 l 33 382 l 41 395 l 54 404 l 72 411 l 92 408 l 107 404 l 123 392 l 134 378 l 142 359 l 155 332 l 163 309 l 165 275 l 164 254 l 167 229 l 174 227 l 179 205 l 186 192 l 187 180 l 199 171 l 215 161 l 235 154 l 252 161 l 268 164 l 283 171 l 297 180 l 315 184 l 340 183 l 351 193 l 359 205 l 367 214 l 367 233 l 364 254 l 359 279 l 354 304 l 350 329 l 350 347 l 340 380 l 329 399 l 329 412 l 335 427 l 345 436 l 361 433 l 371 427 l 376 415 l 385 403 l 392 392 l 396 379 l 404 364 l 408 347 l 412 332 l 415 311 l 412 292 l 412 273 l 415 250 l 414 232 l 415 212 l 418 196 l 419 175 l 418 155 l 419 134 l 424 114 l 418 93 l 422 75 l 425 56 z "},"z":{"ha":498,"x_min":11,"x_max":478,"o":"m 478 40 l 471 33 l 458 33 l 444 36 l 425 40 l 403 37 l 382 41 l 349 41 l 325 43 l 298 49 l 254 49 l 236 47 l 215 49 l 196 41 l 175 40 l 153 40 l 132 37 l 113 41 l 104 37 l 75 36 l 60 36 l 41 31 l 35 22 l 22 22 l 11 29 l 11 40 l 18 54 l 31 75 l 50 89 l 66 110 l 81 125 l 93 140 l 107 154 l 123 167 l 136 184 l 157 204 l 180 225 l 203 248 l 227 267 l 248 286 l 271 301 l 296 315 l 319 321 l 332 339 l 347 350 l 368 359 l 383 372 l 389 382 l 393 389 l 386 395 l 370 390 l 349 390 l 335 385 l 319 385 l 304 378 l 281 371 l 254 364 l 227 351 l 195 340 l 165 338 l 138 334 l 106 338 l 78 340 l 54 350 l 36 364 l 29 382 l 28 396 l 29 414 l 41 429 l 60 441 l 81 447 l 104 450 l 129 450 l 158 443 l 197 441 l 228 441 l 272 443 l 302 447 l 336 447 l 370 454 l 395 456 l 414 453 l 435 446 l 452 446 l 469 440 l 472 431 l 476 416 l 471 410 l 458 392 l 437 372 l 411 353 l 386 334 l 363 321 l 347 311 l 302 281 l 272 267 l 253 249 l 197 205 l 168 180 l 146 158 l 132 140 l 118 127 l 106 119 l 97 103 l 85 90 l 81 83 l 87 78 l 106 78 l 123 75 l 153 75 l 207 78 l 241 81 l 273 81 l 310 77 l 342 75 l 364 69 l 386 65 l 414 65 l 435 61 l 457 58 l 467 58 l 476 57 l 478 40 z "},"{":{"ha":481,"x_min":-41,"x_max":446,"o":"m 446 -150 l 443 -160 l 440 -172 l 429 -175 l 404 -171 l 378 -172 l 338 -175 l 309 -172 l 288 -163 l 279 -164 l 264 -160 l 236 -150 l 216 -144 l 203 -127 l 187 -114 l 174 -100 l 158 -68 l 143 -35 l 140 -4 l 143 17 l 131 47 l 127 81 l 118 98 l 117 138 l 111 163 l 110 215 l 107 264 l 103 296 l 93 334 l 93 371 l 86 399 l 81 416 l 72 433 l 72 453 l 66 465 l 53 463 l 40 468 l 14 468 l -4 467 l -31 467 l -35 472 l -41 479 l -40 496 l -31 503 l -21 498 l -14 505 l 1 510 l 12 515 l 26 515 l 49 510 l 61 515 l 68 524 l 74 541 l 78 579 l 71 679 l 71 715 l 74 747 l 83 785 l 79 807 l 90 839 l 98 880 l 113 903 l 142 913 l 158 913 l 165 920 l 174 921 l 179 932 l 191 945 l 204 957 l 221 979 l 227 997 l 239 1010 l 250 1018 l 264 1018 l 281 1010 l 292 996 l 329 982 l 334 971 l 346 968 l 349 958 l 357 945 l 367 940 l 372 926 l 375 911 l 372 895 l 366 882 l 357 873 l 347 872 l 321 878 l 298 888 l 282 888 l 271 882 l 257 871 l 245 863 l 241 854 l 233 848 l 221 832 l 212 822 l 201 804 l 196 785 l 191 762 l 183 739 l 182 714 l 179 684 l 172 656 l 167 624 l 164 591 l 164 561 l 153 542 l 146 519 l 131 522 l 115 514 l 96 513 l 82 503 l 77 486 l 93 479 l 123 452 l 136 412 l 151 385 l 154 363 l 157 311 l 161 269 l 163 228 l 163 180 l 164 129 l 170 97 l 178 58 l 186 22 l 199 -7 l 210 -32 l 224 -54 l 241 -72 l 260 -87 l 283 -106 l 311 -111 l 340 -119 l 367 -127 l 383 -126 l 397 -132 l 437 -140 l 446 -150 m 187 -131 l 186 -140 l 176 -139 l 176 -127 l 183 -121 l 187 -131 z "},"|":{"ha":481,"x_min":191,"x_max":492,"o":"m 492 182 l 482 175 l 472 189 l 481 199 l 492 192 l 492 182 m 282 860 l 271 842 l 269 828 l 268 811 l 265 789 l 258 774 l 258 751 l 257 722 l 252 693 l 254 669 l 249 652 l 257 629 l 250 597 l 250 574 l 249 534 l 241 515 l 245 501 l 245 471 l 241 444 l 245 415 l 243 378 l 243 250 l 248 236 l 248 205 l 243 179 l 248 150 l 244 113 l 244 20 l 245 -12 l 250 -46 l 260 -61 l 264 -111 l 262 -140 l 265 -171 l 261 -186 l 262 -201 l 265 -224 l 262 -232 l 256 -237 l 250 -237 l 243 -232 l 236 -220 l 227 -208 l 224 -186 l 224 -153 l 222 -110 l 222 -46 l 216 -16 l 212 -5 l 214 28 l 212 49 l 216 71 l 212 97 l 211 122 l 211 142 l 205 184 l 205 265 l 207 298 l 205 319 l 210 342 l 205 368 l 204 393 l 204 412 l 199 456 l 199 579 l 191 591 l 204 610 l 197 661 l 197 732 l 192 754 l 199 779 l 195 804 l 195 821 l 200 835 l 199 844 l 200 856 l 192 876 l 192 900 l 200 913 l 195 936 l 210 950 l 232 956 l 252 958 l 271 956 l 275 933 l 278 914 l 282 899 l 281 879 l 282 860 z "},"}":{"ha":481,"x_min":18,"x_max":403,"o":"m 357 835 l 346 825 l 332 825 l 335 843 l 346 848 l 355 847 l 357 835 m 403 496 l 401 479 l 392 472 l 382 476 l 375 469 l 359 465 l 349 460 l 335 460 l 313 465 l 286 473 l 285 457 l 296 427 l 307 401 l 313 370 l 328 345 l 326 326 l 336 298 l 347 258 l 353 243 l 346 225 l 351 201 l 353 176 l 357 157 l 351 121 l 349 78 l 345 41 l 336 29 l 329 -1 l 317 -28 l 300 -60 l 272 -98 l 232 -136 l 204 -155 l 167 -175 l 127 -197 l 98 -205 l 85 -207 l 72 -196 l 57 -182 l 49 -161 l 58 -140 l 77 -119 l 96 -114 l 117 -113 l 150 -100 l 167 -86 l 174 -77 l 189 -60 l 208 -35 l 225 0 l 240 26 l 248 53 l 253 77 l 262 122 l 257 155 l 260 233 l 254 265 l 249 301 l 240 317 l 236 340 l 231 379 l 225 410 l 231 453 l 245 461 l 265 463 l 279 472 l 283 484 l 268 496 l 237 524 l 225 562 l 205 567 l 195 581 l 184 600 l 180 632 l 175 659 l 175 686 l 176 721 l 171 736 l 176 749 l 175 772 l 164 796 l 160 822 l 154 835 l 155 847 l 153 863 l 153 884 l 157 900 l 157 913 l 142 922 l 123 926 l 104 929 l 89 929 l 78 936 l 77 947 l 78 964 l 85 975 l 103 981 l 119 986 l 142 989 l 164 993 l 212 993 l 236 989 l 258 987 l 278 974 l 294 951 l 302 933 l 306 905 l 300 888 l 292 869 l 285 843 l 281 811 l 278 785 l 278 749 l 272 715 l 279 690 l 281 659 l 281 624 l 282 593 l 281 559 l 289 542 l 289 522 l 294 510 l 309 513 l 321 507 l 347 507 l 366 509 l 392 509 l 396 503 l 403 496 m 43 -210 l 32 -220 l 18 -220 l 21 -201 l 32 -196 l 41 -197 l 43 -210 z "},"~":{"ha":503,"x_min":-9,"x_max":488,"o":"m 488 768 l 485 699 l 478 671 l 460 637 l 444 614 l 419 589 l 387 575 l 325 566 l 294 564 l 271 575 l 252 596 l 235 612 l 235 611 l 231 602 l 224 597 l 211 590 l 199 595 l 183 602 l 172 615 l 168 628 l 170 639 l 182 647 l 193 647 l 204 653 l 200 663 l 183 690 l 172 705 l 151 725 l 123 737 l 96 726 l 72 711 l 57 682 l 45 653 l 41 621 l 40 590 l 40 570 l 28 551 l 12 546 l 9 557 l 17 572 l 18 596 l 24 614 l 24 639 l 31 663 l 33 690 l 41 715 l 50 745 l 74 768 l 113 782 l 140 789 l 179 793 l 216 783 l 241 762 l 253 745 l 267 718 l 292 668 l 310 660 l 335 663 l 353 671 l 367 682 l 376 699 l 380 718 l 389 736 l 386 758 l 397 781 l 419 800 l 456 802 l 481 793 l 488 768 m 16 454 l 4 444 l -9 444 l -7 463 l 4 468 l 14 467 l 16 454 z "},"":{"ha":699,"x_min":35,"x_max":679,"o":"m 667 385 l 665 379 l 660 376 l 656 376 l 656 380 l 657 386 l 660 387 l 667 385 m 677 -16 l 672 -22 l 661 -26 l 657 -20 l 650 -9 l 640 9 l 627 28 l 607 62 l 593 96 l 587 119 l 578 132 l 561 180 l 547 197 l 536 222 l 521 248 l 509 258 l 479 290 l 473 309 l 450 325 l 421 330 l 390 326 l 358 321 l 335 311 l 310 289 l 286 277 l 281 265 l 262 252 l 224 229 l 216 221 l 211 191 l 211 171 l 201 160 l 201 136 l 197 111 l 201 71 l 197 43 l 189 14 l 176 -9 l 161 -28 l 136 -50 l 113 -54 l 90 -57 l 83 -52 l 71 -52 l 61 -40 l 54 -35 l 54 -21 l 47 -11 l 47 17 l 54 35 l 53 50 l 57 60 l 65 64 l 65 77 l 78 83 l 83 96 l 92 113 l 103 118 l 114 143 l 118 171 l 125 175 l 122 193 l 127 221 l 127 239 l 115 265 l 107 289 l 104 315 l 103 334 l 107 339 l 104 349 l 104 354 l 125 379 l 125 387 l 136 400 l 151 424 l 170 450 l 174 469 l 175 484 l 174 494 l 180 529 l 186 562 l 197 604 l 200 628 l 205 639 l 204 675 l 201 707 l 204 737 l 215 762 l 225 782 l 237 791 l 241 810 l 250 822 l 254 833 l 250 842 l 253 860 l 243 882 l 245 904 l 237 914 l 241 932 l 250 932 l 265 943 l 273 945 l 279 956 l 301 958 l 319 950 l 335 926 l 342 922 l 353 901 l 366 876 l 371 852 l 383 825 l 399 804 l 400 793 l 411 781 l 418 766 l 431 749 l 429 732 l 441 707 l 443 696 l 450 682 l 457 659 l 468 639 l 472 606 l 478 582 l 486 549 l 486 536 l 493 518 l 503 486 l 511 457 l 514 433 l 521 416 l 539 404 l 561 397 l 587 399 l 612 399 l 637 393 l 642 386 l 647 379 l 642 375 l 637 368 l 627 357 l 612 355 l 607 349 l 586 345 l 562 334 l 553 325 l 553 309 l 557 289 l 566 269 l 576 250 l 586 222 l 593 205 l 602 179 l 611 155 l 625 126 l 635 102 l 640 64 l 647 60 l 656 40 l 665 21 l 665 9 l 672 3 l 677 -16 m 679 -65 q 672 -68 678 -66 l 668 -66 l 667 -62 l 671 -58 l 677 -60 l 679 -65 m 134 446 l 132 439 l 126 435 l 118 440 l 118 447 l 125 454 l 132 457 l 134 453 l 134 446 m 47 104 l 41 102 l 35 104 l 35 111 l 39 114 l 46 113 l 47 109 l 47 104 m 72 -77 l 71 -82 l 61 -81 l 57 -71 l 64 -69 l 72 -69 l 72 -77 m 424 424 l 418 439 l 404 464 l 401 488 l 395 498 l 390 513 l 382 526 l 383 562 l 366 586 l 371 596 l 364 612 l 355 661 l 345 684 l 343 701 l 328 721 l 322 732 l 309 761 l 281 733 l 283 715 l 273 700 l 273 684 l 271 675 l 265 647 l 262 623 l 262 615 l 256 606 l 256 586 l 253 547 l 253 529 l 245 513 l 250 496 l 243 475 l 254 458 l 286 444 l 319 432 l 347 416 l 363 406 l 390 400 l 408 404 l 414 408 l 424 424 m 358 421 l 350 419 l 343 424 l 345 429 l 351 429 l 355 432 l 358 428 l 358 421 m 467 1103 l 464 1093 l 454 1083 l 444 1075 l 439 1063 l 432 1053 l 425 1050 l 420 1039 l 410 1029 l 399 1022 l 383 1021 l 370 1023 l 361 1030 l 355 1047 l 351 1053 l 346 1059 l 339 1063 l 336 1071 l 336 1079 l 334 1086 l 334 1100 l 345 1111 l 370 1126 l 392 1136 l 424 1136 l 435 1132 l 441 1123 l 453 1122 l 464 1115 l 467 1103 m 258 1093 l 237 1075 l 232 1063 l 225 1053 l 220 1050 l 212 1039 l 201 1029 l 192 1022 l 179 1021 l 163 1023 l 153 1030 l 149 1047 l 143 1053 l 139 1059 l 131 1063 l 127 1071 l 127 1079 l 126 1086 l 125 1100 l 138 1111 l 163 1126 l 184 1136 l 217 1136 l 231 1132 l 233 1123 l 246 1122 l 258 1115 l 258 1093 m 233 1008 l 217 1000 l 208 1015 l 216 1022 l 231 1018 l 233 1008 z "},"":{"ha":699,"x_min":35,"x_max":679,"o":"m 667 385 l 665 379 l 660 376 l 656 376 l 656 380 l 657 386 l 660 387 l 667 385 m 677 -16 l 672 -22 l 661 -26 l 657 -20 l 650 -9 l 640 9 l 627 28 l 607 62 l 593 96 l 587 119 l 578 132 l 561 180 l 547 197 l 536 222 l 521 248 l 509 258 l 479 290 l 473 309 l 450 325 l 421 330 l 390 326 l 358 321 l 335 311 l 310 289 l 286 277 l 281 265 l 262 252 l 224 229 l 216 221 l 211 191 l 211 171 l 201 160 l 201 136 l 197 111 l 201 71 l 197 43 l 189 14 l 176 -9 l 161 -28 l 136 -50 l 113 -54 l 90 -57 l 83 -52 l 71 -52 l 61 -40 l 54 -35 l 54 -21 l 47 -11 l 47 17 l 54 35 l 53 50 l 57 60 l 65 64 l 65 77 l 78 83 l 83 96 l 92 113 l 103 118 l 114 143 l 118 171 l 125 175 l 122 193 l 127 221 l 127 239 l 115 265 l 107 289 l 104 315 l 103 334 l 107 339 l 104 349 l 104 354 l 125 379 l 125 387 l 136 400 l 151 424 l 170 450 l 174 469 l 175 484 l 174 494 l 180 529 l 186 562 l 197 604 l 200 628 l 205 639 l 204 675 l 201 707 l 204 737 l 215 762 l 225 782 l 237 791 l 241 810 l 250 822 l 254 833 l 250 842 l 253 860 l 243 882 l 245 904 l 237 914 l 241 932 l 250 932 l 265 943 l 273 945 l 279 956 l 301 958 l 319 950 l 335 926 l 342 922 l 353 901 l 366 876 l 371 852 l 383 825 l 399 804 l 400 793 l 411 781 l 418 766 l 431 749 l 429 732 l 441 707 l 443 696 l 450 682 l 457 659 l 468 639 l 472 606 l 478 582 l 486 549 l 486 536 l 493 518 l 503 486 l 511 457 l 514 433 l 521 416 l 539 404 l 561 397 l 587 399 l 612 399 l 637 393 l 642 386 l 647 379 l 642 375 l 637 368 l 627 357 l 612 355 l 607 349 l 586 345 l 562 334 l 553 325 l 553 309 l 557 289 l 566 269 l 576 250 l 586 222 l 593 205 l 602 179 l 611 155 l 625 126 l 635 102 l 640 64 l 647 60 l 656 40 l 665 21 l 665 9 l 672 3 l 677 -16 m 679 -65 q 672 -68 678 -66 l 668 -66 l 667 -62 l 671 -58 l 677 -60 l 679 -65 m 134 446 l 132 439 l 126 435 l 118 440 l 118 447 l 125 454 l 132 457 l 134 453 l 134 446 m 47 104 l 41 102 l 35 104 l 35 111 l 39 114 l 46 113 l 47 109 l 47 104 m 72 -77 l 71 -82 l 61 -81 l 57 -71 l 64 -69 l 72 -69 l 72 -77 m 424 424 l 418 439 l 404 464 l 401 488 l 395 498 l 390 513 l 382 526 l 383 562 l 366 586 l 371 596 l 364 612 l 355 661 l 345 684 l 343 701 l 328 721 l 322 732 l 309 761 l 281 733 l 283 715 l 273 700 l 273 684 l 271 675 l 265 647 l 262 623 l 262 615 l 256 606 l 256 586 l 253 547 l 253 529 l 245 513 l 250 496 l 243 475 l 254 458 l 286 444 l 319 432 l 347 416 l 363 406 l 390 400 l 408 404 l 414 408 l 424 424 m 358 421 l 350 419 l 343 424 l 345 429 l 351 429 l 355 432 l 358 428 l 358 421 m 421 1119 l 420 1103 l 403 1090 l 386 1075 l 375 1061 l 366 1042 l 357 1037 l 347 1018 l 329 1005 l 315 994 l 294 991 l 268 996 l 256 1006 l 248 1031 l 240 1042 l 232 1051 l 220 1061 l 214 1071 l 214 1082 l 211 1094 l 211 1112 l 228 1132 l 268 1157 l 306 1172 l 353 1172 l 374 1165 l 380 1151 l 400 1148 l 420 1137 l 421 1119 m 375 1093 l 374 1103 l 364 1111 l 353 1112 l 349 1119 l 338 1122 l 310 1122 l 290 1114 l 268 1101 l 260 1091 l 260 1080 l 261 1072 l 261 1065 l 269 1057 l 277 1051 l 279 1044 l 285 1031 l 290 1026 l 306 1022 l 317 1023 l 326 1030 l 334 1037 l 342 1047 l 345 1051 l 353 1061 l 357 1071 l 366 1079 l 374 1083 l 375 1093 z "},"":{"ha":668,"x_min":49,"x_max":627,"o":"m 627 370 l 616 339 l 614 319 l 576 265 l 575 237 l 566 222 l 547 200 l 526 180 l 513 158 l 484 140 l 429 129 l 404 125 l 390 127 l 385 104 l 383 90 l 385 81 l 392 72 l 410 60 l 429 47 l 446 33 l 464 14 l 475 -4 l 481 -16 l 488 -37 l 489 -60 l 485 -79 l 475 -97 l 463 -111 l 446 -129 l 439 -132 l 429 -143 l 406 -157 l 380 -171 l 351 -178 l 321 -182 l 296 -180 l 277 -174 l 267 -167 l 262 -158 l 262 -150 l 275 -149 l 293 -143 l 314 -140 l 343 -138 l 364 -129 l 385 -119 l 403 -106 l 410 -83 l 412 -64 l 411 -47 l 403 -25 l 390 -8 l 383 -1 l 372 3 l 343 3 l 326 0 l 315 5 l 301 14 l 293 25 l 293 36 l 296 49 l 304 61 l 309 81 l 310 93 l 309 109 l 309 117 l 300 127 l 301 149 l 277 160 l 232 186 l 191 215 l 155 250 l 134 265 l 119 289 l 92 315 l 58 385 l 50 424 l 50 475 l 49 530 l 56 579 l 69 621 l 87 660 l 90 697 l 100 737 l 114 755 l 122 768 l 142 779 l 171 798 l 197 807 l 235 811 l 281 831 l 321 843 l 340 859 l 378 854 l 419 852 l 443 833 l 463 829 l 492 802 l 505 775 l 515 755 l 517 739 l 497 736 l 478 729 l 460 726 l 436 717 l 400 721 l 370 734 l 336 739 l 304 729 l 262 721 l 228 704 l 205 686 l 191 664 l 174 633 l 155 589 l 143 505 l 142 468 l 149 427 l 164 380 l 175 374 l 193 347 l 225 319 l 257 289 l 281 273 l 298 256 l 343 241 l 400 237 l 446 254 l 484 277 l 503 307 l 534 347 l 555 353 l 576 359 l 591 385 l 608 395 l 627 392 l 627 370 m 541 -240 l 536 -250 l 529 -252 l 519 -240 l 524 -232 q 533 -229 529 -225 l 541 -240 m 515 -254 l 507 -258 l 497 -252 l 501 -243 l 509 -235 l 515 -243 l 515 -254 z "},"":{"ha":596,"x_min":53,"x_max":624,"o":"m 624 798 l 623 785 l 612 781 l 603 781 l 583 789 l 566 798 l 518 798 l 486 787 l 450 781 l 406 758 l 375 753 l 355 753 l 336 745 l 285 743 l 241 743 l 196 739 l 157 732 l 136 725 l 123 704 l 118 681 l 114 646 l 111 611 l 104 551 l 106 539 l 100 500 l 106 496 l 117 498 l 134 505 l 157 526 l 178 534 l 222 534 l 281 533 l 318 530 l 325 525 l 336 515 l 371 515 l 383 507 l 396 509 l 422 500 l 450 496 l 452 489 l 447 484 l 431 472 l 415 472 l 403 475 l 357 476 l 306 468 l 258 463 l 215 456 l 172 453 l 138 440 l 104 464 l 100 427 l 102 400 l 104 367 l 113 330 l 125 290 l 138 254 l 176 200 l 197 176 l 227 158 l 256 143 l 292 125 l 335 119 l 380 111 l 415 103 l 437 104 l 457 98 l 510 90 l 521 81 l 518 71 l 514 58 l 498 56 l 465 60 l 431 58 l 376 56 l 339 58 l 311 68 l 298 66 l 279 71 l 241 81 l 216 86 l 197 103 l 176 117 l 158 131 l 139 163 l 118 196 l 114 227 l 118 248 l 102 278 l 97 311 l 85 329 l 82 368 l 75 393 l 79 419 l 72 457 l 79 482 l 69 500 l 74 507 l 72 528 l 79 550 l 75 572 l 86 596 l 82 628 l 82 653 l 92 669 l 89 693 l 94 707 l 92 732 l 79 746 l 54 771 l 53 785 l 54 808 l 60 839 l 69 861 l 94 878 l 117 885 l 134 892 l 163 884 l 195 868 l 236 867 l 293 868 l 368 871 l 412 871 l 447 861 l 482 859 l 509 854 l 533 847 l 551 842 l 564 842 l 590 827 l 612 812 l 624 798 m 178 100 l 175 90 l 163 92 l 163 103 l 172 110 l 178 100 m 472 1132 l 468 1119 l 458 1112 l 458 1099 l 459 1082 l 447 1063 l 430 1054 l 414 1043 l 387 1039 l 365 1030 l 347 1022 l 334 1019 l 318 1013 l 297 1002 l 283 996 l 268 991 l 255 998 l 255 1017 l 272 1036 l 293 1048 l 311 1068 l 332 1086 l 357 1111 l 378 1128 l 395 1145 l 416 1161 l 429 1166 l 447 1166 l 467 1154 l 472 1144 l 472 1132 z "},"":{"ha":661,"x_min":31,"x_max":664,"o":"m 415 804 l 399 794 l 399 812 l 414 811 l 415 804 m 664 920 l 663 900 l 663 878 l 654 863 l 657 851 l 652 832 l 636 812 l 624 794 l 618 754 l 618 729 l 611 694 l 612 676 l 606 646 l 604 618 l 591 593 l 586 561 l 583 529 l 542 441 l 528 431 l 524 410 l 511 390 l 505 358 l 498 339 l 498 313 l 482 269 l 471 249 l 467 216 l 464 191 l 457 165 l 458 144 l 454 122 l 457 110 l 446 96 l 433 68 l 422 68 l 408 71 l 403 90 l 376 104 l 367 129 l 361 150 l 346 175 l 346 192 l 332 208 l 345 233 l 330 258 l 326 296 l 306 340 l 298 379 l 292 410 l 282 458 l 277 475 l 269 498 l 258 528 l 239 586 l 216 619 l 201 591 l 196 581 l 196 503 l 191 465 l 195 431 l 187 390 l 180 347 l 170 326 l 164 292 l 158 250 l 155 171 l 146 151 l 151 134 l 136 114 l 111 103 l 79 102 l 54 117 l 47 142 l 37 172 l 31 200 l 31 222 l 49 250 l 61 262 l 72 277 l 85 306 l 86 343 l 100 375 l 104 404 l 117 427 l 111 492 l 104 513 l 100 550 l 107 587 l 117 612 l 125 644 l 146 664 l 155 746 l 175 771 l 180 799 l 200 823 l 207 831 l 216 838 l 220 854 l 228 860 l 240 860 l 249 850 l 253 829 l 261 796 l 268 757 l 278 665 l 283 624 l 293 599 l 297 572 l 300 547 l 310 510 l 314 468 l 332 440 l 342 399 l 345 359 l 354 326 l 364 288 l 371 262 l 376 249 l 387 249 l 396 262 l 412 277 l 418 306 l 428 313 l 425 326 l 435 359 l 431 382 l 435 410 l 447 422 l 460 443 l 471 468 l 485 493 l 498 509 l 498 534 l 511 559 l 518 576 l 528 607 l 533 632 l 530 672 l 521 703 l 510 734 l 498 758 l 498 786 l 496 822 l 510 838 l 510 857 l 521 871 l 528 914 l 538 940 l 549 935 l 572 943 l 586 960 l 611 970 l 628 975 l 643 964 l 652 943 l 660 945 l 664 920 m 104 31 l 92 25 l 81 31 l 85 45 l 100 41 l 104 31 m 442 1164 l 433 1160 l 421 1157 l 418 1166 l 420 1177 l 431 1179 l 440 1172 l 442 1164 m 600 1164 l 596 1151 l 595 1133 l 592 1119 l 592 1100 l 588 1082 l 586 1059 l 579 1040 l 574 1018 l 557 1000 l 526 989 l 506 983 l 475 980 l 446 987 l 427 1004 l 417 1018 l 385 1078 l 371 1083 l 351 1082 l 338 1075 l 327 1066 l 319 1054 l 317 1039 l 311 1025 l 314 1006 l 306 990 l 289 975 l 261 973 l 242 980 l 236 1000 l 236 1054 l 241 1075 l 253 1101 l 265 1119 l 283 1139 l 309 1149 l 336 1154 l 357 1157 l 380 1158 l 399 1149 l 414 1133 l 445 1103 l 456 1082 l 469 1059 l 478 1048 l 496 1033 l 517 1023 l 539 1031 l 555 1044 l 567 1066 l 576 1088 l 578 1114 l 578 1154 l 586 1168 l 597 1172 l 600 1164 z "},"":{"ha":644,"x_min":49,"x_max":596,"o":"m 296 799 l 283 789 l 279 799 l 283 812 l 296 810 l 296 799 m 596 382 l 586 318 l 561 253 l 543 215 l 526 192 l 504 164 l 478 138 l 447 121 l 401 107 l 353 100 l 306 106 l 264 114 l 231 132 l 168 170 l 132 204 l 114 224 l 90 253 l 75 290 l 65 328 l 60 367 l 65 396 l 58 433 l 50 461 l 60 494 l 60 511 l 69 522 l 69 549 l 78 566 l 93 583 l 103 619 l 122 652 l 143 675 l 158 701 l 176 704 l 197 721 l 212 728 l 232 737 l 252 753 l 273 761 l 294 782 l 314 806 l 321 812 l 338 821 l 364 815 l 389 799 l 410 775 l 418 739 l 414 714 l 387 688 l 353 672 l 306 669 l 275 628 l 256 586 l 233 555 l 214 503 l 208 450 l 197 403 l 216 354 l 222 307 l 248 278 l 272 222 l 290 218 l 300 208 l 322 203 l 353 199 l 389 208 l 424 220 l 446 237 l 447 286 l 463 296 l 461 335 l 471 361 l 475 389 l 484 412 l 478 436 l 475 472 l 461 497 l 443 510 l 429 538 l 406 570 l 410 596 l 418 619 l 433 629 l 456 629 l 485 611 l 513 596 l 526 570 l 545 553 l 550 525 l 561 497 l 570 475 l 585 453 l 589 416 l 596 382 m 72 591 l 61 583 l 50 578 l 49 591 l 56 606 l 68 606 l 72 591 m 511 1103 l 508 1093 l 498 1083 l 488 1075 l 483 1063 l 476 1053 l 469 1050 l 464 1039 l 454 1029 l 443 1022 l 427 1021 l 414 1023 l 406 1030 l 399 1047 l 395 1053 l 390 1059 l 383 1063 l 380 1071 l 380 1079 l 378 1086 l 378 1100 l 389 1111 l 414 1126 l 436 1136 l 468 1136 l 479 1132 l 486 1123 l 497 1122 l 508 1115 l 511 1103 m 302 1093 l 281 1075 l 276 1063 l 269 1053 l 264 1050 l 256 1039 l 245 1029 l 236 1022 l 223 1021 l 207 1023 l 197 1030 l 193 1047 l 187 1053 l 183 1059 l 175 1063 l 172 1071 l 172 1079 l 170 1086 l 169 1100 l 182 1111 l 207 1126 l 229 1136 l 261 1136 l 275 1132 l 277 1123 l 290 1122 l 302 1115 l 302 1093 m 277 1008 l 261 1000 l 252 1015 l 260 1022 l 275 1018 l 277 1008 z "},"":{"ha":604,"x_min":71,"x_max":595,"o":"m 595 656 l 591 646 l 579 646 l 574 659 l 581 672 l 591 669 l 595 656 m 532 669 l 529 628 l 530 604 l 526 567 l 526 542 l 518 513 l 518 486 l 510 467 l 511 446 l 500 421 l 504 408 l 498 399 l 494 378 l 493 343 l 481 319 l 473 294 l 468 268 l 458 257 l 449 229 l 435 200 l 414 171 l 390 146 l 364 125 l 334 114 l 301 107 l 272 103 l 236 103 l 199 107 l 174 114 l 151 127 l 129 140 l 113 161 l 100 184 l 90 211 l 81 235 l 78 264 l 74 292 l 71 321 l 74 358 l 74 389 l 77 422 l 83 441 l 78 454 l 78 473 l 87 493 l 90 521 l 89 542 l 94 572 l 102 602 l 102 628 l 109 656 l 109 685 l 94 708 l 89 734 l 87 749 l 94 774 l 106 790 l 115 794 l 139 806 l 167 810 l 193 804 l 215 790 l 228 781 l 235 771 l 249 760 l 256 742 l 254 717 l 240 692 l 225 669 l 210 640 l 204 619 l 196 581 l 180 547 l 171 510 l 161 475 l 151 443 l 142 408 l 140 370 l 132 339 l 139 298 l 140 249 l 146 215 l 160 193 l 180 176 l 192 167 l 210 161 l 244 154 l 268 151 l 293 153 l 338 161 l 372 183 l 392 204 l 407 228 l 422 248 l 424 267 l 433 279 l 446 309 l 454 334 l 460 358 l 473 382 l 472 396 l 473 410 l 485 424 l 481 447 l 490 485 l 494 517 l 504 545 l 500 576 l 505 604 l 507 637 l 505 664 l 505 690 l 511 711 l 504 721 l 507 736 l 504 753 l 505 768 l 507 787 l 510 807 l 510 818 l 522 822 l 526 817 l 522 798 l 525 768 l 525 753 l 529 715 l 532 669 m 500 1103 l 497 1093 l 488 1083 l 477 1075 l 472 1063 l 465 1053 l 458 1050 l 453 1039 l 443 1029 l 432 1022 l 416 1021 l 403 1023 l 395 1030 l 389 1047 l 385 1053 l 379 1059 l 372 1063 l 370 1071 l 370 1079 l 367 1086 l 367 1100 l 378 1111 l 403 1126 l 425 1136 l 457 1136 l 468 1132 l 475 1123 l 486 1122 l 497 1115 l 500 1103 m 292 1093 l 271 1075 l 265 1063 l 258 1053 l 253 1050 l 245 1039 l 235 1029 l 225 1022 l 212 1021 l 196 1023 l 186 1030 l 182 1047 l 176 1053 l 172 1059 l 164 1063 l 161 1071 l 161 1079 l 159 1086 l 158 1100 l 171 1111 l 196 1126 l 218 1136 l 250 1136 l 264 1132 l 267 1123 l 279 1122 l 292 1115 l 292 1093 m 267 1008 l 250 1000 l 241 1015 l 249 1022 l 264 1018 l 267 1008 z "},"":{"ha":421,"x_min":0,"x_max":378,"o":"m 374 179 l 366 174 l 358 176 l 358 184 l 371 191 l 374 179 m 378 58 l 376 49 l 367 39 l 357 39 l 346 50 l 340 68 l 332 82 l 326 102 l 321 107 l 313 103 l 301 96 l 289 81 l 269 69 l 257 57 l 236 46 l 212 37 l 192 31 l 174 25 l 160 20 l 146 24 l 126 26 l 103 36 l 82 49 l 69 65 l 60 83 l 58 113 l 58 132 l 62 154 l 75 176 l 87 197 l 104 212 l 122 225 l 146 229 l 167 232 l 191 237 l 211 250 l 237 264 l 250 269 l 264 273 l 269 288 l 258 307 l 245 325 l 218 350 l 191 358 l 168 359 l 160 358 l 146 358 l 129 350 l 114 340 l 96 338 l 75 338 l 52 332 l 31 332 l 14 340 l 1 353 l 0 370 l 4 385 l 18 401 l 33 421 l 52 436 l 72 447 l 94 465 l 115 475 l 154 482 l 187 485 l 211 478 l 231 468 l 252 461 l 275 446 l 288 433 l 300 414 l 309 389 l 315 364 l 325 332 l 334 307 l 335 286 l 334 260 l 340 229 l 345 197 l 357 142 l 364 121 l 371 102 l 376 78 l 378 58 m 319 62 l 314 58 l 302 62 l 306 71 l 314 75 l 319 62 m 283 203 l 278 211 l 258 216 l 241 215 l 227 208 l 210 203 l 192 193 l 175 191 l 160 183 l 147 174 l 139 161 l 129 146 l 126 132 l 121 119 l 121 103 l 127 89 l 146 83 l 165 83 l 187 89 l 197 100 l 211 103 l 243 125 l 258 135 l 269 153 l 281 167 l 282 186 l 283 203 m 285 715 l 281 703 l 271 696 l 271 682 l 272 665 l 260 647 l 243 637 l 227 627 l 200 623 l 178 614 l 160 606 l 147 603 l 131 596 l 110 586 l 96 579 l 81 575 l 68 582 l 68 600 l 85 619 l 106 632 l 123 652 l 144 669 l 170 694 l 191 711 l 208 729 l 229 745 l 241 750 l 260 750 l 279 737 l 285 728 l 285 715 z "},"":{"ha":421,"x_min":0,"x_max":378,"o":"m 374 179 l 366 174 l 358 176 l 358 184 l 371 191 l 374 179 m 378 58 l 376 49 l 367 39 l 357 39 l 346 50 l 340 68 l 332 82 l 326 102 l 321 107 l 313 103 l 301 96 l 289 81 l 269 69 l 257 57 l 236 46 l 212 37 l 192 31 l 174 25 l 160 20 l 146 24 l 126 26 l 103 36 l 82 49 l 69 65 l 60 83 l 58 113 l 58 132 l 62 154 l 75 176 l 87 197 l 104 212 l 122 225 l 146 229 l 167 232 l 191 237 l 211 250 l 237 264 l 250 269 l 264 273 l 269 288 l 258 307 l 245 325 l 218 350 l 191 358 l 168 359 l 160 358 l 146 358 l 129 350 l 114 340 l 96 338 l 75 338 l 52 332 l 31 332 l 14 340 l 1 353 l 0 370 l 4 385 l 18 401 l 33 421 l 52 436 l 72 447 l 94 465 l 115 475 l 154 482 l 187 485 l 211 478 l 231 468 l 252 461 l 275 446 l 288 433 l 300 414 l 309 389 l 315 364 l 325 332 l 334 307 l 335 286 l 334 260 l 340 229 l 345 197 l 357 142 l 364 121 l 371 102 l 376 78 l 378 58 m 319 62 l 314 58 l 302 62 l 306 71 l 314 75 l 319 62 m 283 203 l 278 211 l 258 216 l 241 215 l 227 208 l 210 203 l 192 193 l 175 191 l 160 183 l 147 174 l 139 161 l 129 146 l 126 132 l 121 119 l 121 103 l 127 89 l 146 83 l 165 83 l 187 89 l 197 100 l 211 103 l 243 125 l 258 135 l 269 153 l 281 167 l 282 186 l 283 203 m 264 582 l 248 575 l 235 579 l 222 586 l 182 603 l 170 606 l 151 614 l 129 623 l 102 627 l 87 637 l 71 647 l 57 665 l 58 682 l 58 696 l 49 703 l 44 715 l 44 728 l 50 737 l 69 750 l 87 750 l 100 745 l 122 729 l 139 711 l 161 694 l 184 669 l 225 635 l 244 616 l 261 600 l 264 582 z "},"":{"ha":421,"x_min":0,"x_max":378,"o":"m 374 179 l 366 174 l 358 176 l 358 184 l 371 191 l 374 179 m 378 58 l 376 49 l 367 39 l 357 39 l 346 50 l 340 68 l 332 82 l 326 102 l 321 107 l 313 103 l 301 96 l 289 81 l 269 69 l 257 57 l 236 46 l 212 37 l 192 31 l 174 25 l 160 20 l 146 24 l 126 26 l 103 36 l 82 49 l 69 65 l 60 83 l 58 113 l 58 132 l 62 154 l 75 176 l 87 197 l 104 212 l 122 225 l 146 229 l 167 232 l 191 237 l 211 250 l 237 264 l 250 269 l 264 273 l 269 288 l 258 307 l 245 325 l 218 350 l 191 358 l 168 359 l 160 358 l 146 358 l 129 350 l 114 340 l 96 338 l 75 338 l 52 332 l 31 332 l 14 340 l 1 353 l 0 370 l 4 385 l 18 401 l 33 421 l 52 436 l 72 447 l 94 465 l 115 475 l 154 482 l 187 485 l 211 478 l 231 468 l 252 461 l 275 446 l 288 433 l 300 414 l 309 389 l 315 364 l 325 332 l 334 307 l 335 286 l 334 260 l 340 229 l 345 197 l 357 142 l 364 121 l 371 102 l 376 78 l 378 58 m 319 62 l 314 58 l 302 62 l 306 71 l 314 75 l 319 62 m 283 203 l 278 211 l 258 216 l 241 215 l 227 208 l 210 203 l 192 193 l 175 191 l 160 183 l 147 174 l 139 161 l 129 146 l 126 132 l 121 119 l 121 103 l 127 89 l 146 83 l 165 83 l 187 89 l 197 100 l 211 103 l 243 125 l 258 135 l 269 153 l 281 167 l 282 186 l 283 203 m 366 574 l 357 568 l 342 574 l 315 595 l 304 603 l 290 611 l 273 624 l 258 636 l 245 643 l 228 657 l 217 665 l 210 661 l 199 652 l 182 642 l 161 631 l 140 623 l 118 614 l 100 606 l 87 603 l 71 596 l 50 586 l 36 579 l 21 575 l 8 582 l 8 600 l 25 616 l 46 635 l 64 652 l 85 669 l 110 694 l 131 711 l 149 729 l 170 745 l 182 750 l 200 750 l 220 737 l 231 726 l 243 717 l 261 700 l 274 686 l 286 675 l 300 664 l 315 643 l 326 625 l 343 606 l 354 589 l 366 574 z "},"":{"ha":421,"x_min":0,"x_max":378,"o":"m 374 179 l 366 174 l 358 176 l 358 184 l 371 191 l 374 179 m 378 58 l 376 49 l 367 39 l 357 39 l 346 50 l 340 68 l 332 82 l 326 102 l 321 107 l 313 103 l 301 96 l 289 81 l 269 69 l 257 57 l 236 46 l 212 37 l 192 31 l 174 25 l 160 20 l 146 24 l 126 26 l 103 36 l 82 49 l 69 65 l 60 83 l 58 113 l 58 132 l 62 154 l 75 176 l 87 197 l 104 212 l 122 225 l 146 229 l 167 232 l 191 237 l 211 250 l 237 264 l 250 269 l 264 273 l 269 288 l 258 307 l 245 325 l 218 350 l 191 358 l 168 359 l 160 358 l 146 358 l 129 350 l 114 340 l 96 338 l 75 338 l 52 332 l 31 332 l 14 340 l 1 353 l 0 370 l 4 385 l 18 401 l 33 421 l 52 436 l 72 447 l 94 465 l 115 475 l 154 482 l 187 485 l 211 478 l 231 468 l 252 461 l 275 446 l 288 433 l 300 414 l 309 389 l 315 364 l 325 332 l 334 307 l 335 286 l 334 260 l 340 229 l 345 197 l 357 142 l 364 121 l 371 102 l 376 78 l 378 58 m 319 62 l 314 58 l 302 62 l 306 71 l 314 75 l 319 62 m 283 203 l 278 211 l 258 216 l 241 215 l 227 208 l 210 203 l 192 193 l 175 191 l 160 183 l 147 174 l 139 161 l 129 146 l 126 132 l 121 119 l 121 103 l 127 89 l 146 83 l 165 83 l 187 89 l 197 100 l 211 103 l 243 125 l 258 135 l 269 153 l 281 167 l 282 186 l 283 203 m 349 686 l 346 676 l 336 667 l 326 659 l 321 647 l 314 636 l 307 633 l 302 623 l 292 612 l 281 606 l 265 604 l 252 607 l 243 614 l 237 631 l 233 636 l 228 643 l 221 647 l 218 654 l 218 663 l 216 669 l 216 684 l 227 694 l 252 710 l 274 720 l 306 720 l 317 715 l 323 707 l 335 705 l 346 699 l 349 686 m 140 676 l 119 659 l 114 647 l 107 636 l 102 633 l 94 623 l 83 612 l 74 606 l 61 604 l 45 607 l 35 614 l 31 631 l 25 636 l 21 643 l 13 647 l 9 654 l 9 663 l 8 669 l 7 684 l 20 694 l 45 710 l 66 720 l 99 720 l 113 715 l 115 707 l 128 705 l 140 699 l 140 676 m 115 591 l 99 583 l 90 599 l 98 606 l 113 602 l 115 591 z "},"":{"ha":421,"x_min":0,"x_max":386,"o":"m 374 179 l 366 174 l 358 176 l 358 184 l 371 191 l 374 179 m 378 58 l 376 49 l 367 39 l 357 39 l 346 50 l 340 68 l 332 82 l 326 102 l 321 107 l 313 103 l 301 96 l 289 81 l 269 69 l 257 57 l 236 46 l 212 37 l 192 31 l 174 25 l 160 20 l 146 24 l 126 26 l 103 36 l 82 49 l 69 65 l 60 83 l 58 113 l 58 132 l 62 154 l 75 176 l 87 197 l 104 212 l 122 225 l 146 229 l 167 232 l 191 237 l 211 250 l 237 264 l 250 269 l 264 273 l 269 288 l 258 307 l 245 325 l 218 350 l 191 358 l 168 359 l 160 358 l 146 358 l 129 350 l 114 340 l 96 338 l 75 338 l 52 332 l 31 332 l 14 340 l 1 353 l 0 370 l 4 385 l 18 401 l 33 421 l 52 436 l 72 447 l 94 465 l 115 475 l 154 482 l 187 485 l 211 478 l 231 468 l 252 461 l 275 446 l 288 433 l 300 414 l 309 389 l 315 364 l 325 332 l 334 307 l 335 286 l 334 260 l 340 229 l 345 197 l 357 142 l 364 121 l 371 102 l 376 78 l 378 58 m 319 62 l 314 58 l 302 62 l 306 71 l 314 75 l 319 62 m 283 203 l 278 211 l 258 216 l 241 215 l 227 208 l 210 203 l 192 193 l 175 191 l 160 183 l 147 174 l 139 161 l 129 146 l 126 132 l 121 119 l 121 103 l 127 89 l 146 83 l 165 83 l 187 89 l 197 100 l 211 103 l 243 125 l 258 135 l 269 153 l 281 167 l 282 186 l 283 203 m 228 747 l 219 743 l 207 741 l 204 750 l 205 761 l 216 762 l 226 755 l 228 747 m 386 747 l 382 734 l 380 717 l 378 703 l 378 684 l 374 665 l 372 643 l 365 624 l 359 602 l 342 583 l 312 572 l 292 567 l 261 564 l 232 571 l 212 587 l 203 602 l 171 661 l 157 667 l 137 665 l 123 659 l 113 650 l 105 637 l 102 623 l 97 608 l 100 590 l 92 574 l 75 558 l 47 557 l 28 564 l 22 583 l 22 637 l 26 659 l 39 685 l 51 703 l 69 722 l 94 733 l 122 737 l 143 741 l 166 742 l 184 733 l 200 717 l 231 686 l 241 665 l 255 643 l 264 632 l 281 616 l 302 607 l 325 615 l 341 628 l 353 650 l 362 672 l 363 697 l 363 737 l 372 751 l 383 755 l 386 747 z "},"":{"ha":421,"x_min":0,"x_max":378,"o":"m 374 179 l 366 174 l 358 176 l 358 184 l 371 191 l 374 179 m 378 58 l 376 49 l 367 39 l 357 39 l 346 50 l 340 68 l 332 82 l 326 102 l 321 107 l 313 103 l 301 96 l 289 81 l 269 69 l 257 57 l 236 46 l 212 37 l 192 31 l 174 25 l 160 20 l 146 24 l 126 26 l 103 36 l 82 49 l 69 65 l 60 83 l 58 113 l 58 132 l 62 154 l 75 176 l 87 197 l 104 212 l 122 225 l 146 229 l 167 232 l 191 237 l 211 250 l 237 264 l 250 269 l 264 273 l 269 288 l 258 307 l 245 325 l 218 350 l 191 358 l 168 359 l 160 358 l 146 358 l 129 350 l 114 340 l 96 338 l 75 338 l 52 332 l 31 332 l 14 340 l 1 353 l 0 370 l 4 385 l 18 401 l 33 421 l 52 436 l 72 447 l 94 465 l 115 475 l 154 482 l 187 485 l 211 478 l 231 468 l 252 461 l 275 446 l 288 433 l 300 414 l 309 389 l 315 364 l 325 332 l 334 307 l 335 286 l 334 260 l 340 229 l 345 197 l 357 142 l 364 121 l 371 102 l 376 78 l 378 58 m 319 62 l 314 58 l 302 62 l 306 71 l 314 75 l 319 62 m 283 203 l 278 211 l 258 216 l 241 215 l 227 208 l 210 203 l 192 193 l 175 191 l 160 183 l 147 174 l 139 161 l 129 146 l 126 132 l 121 119 l 121 103 l 127 89 l 146 83 l 165 83 l 187 89 l 197 100 l 211 103 l 243 125 l 258 135 l 269 153 l 281 167 l 282 186 l 283 203 m 279 703 l 278 686 l 261 673 l 244 659 l 233 644 l 224 625 l 215 621 l 205 602 l 187 589 l 174 578 l 153 575 l 126 579 l 114 590 l 106 615 l 98 625 l 90 635 l 78 644 l 72 654 l 72 665 l 69 677 l 69 696 l 86 715 l 126 741 l 164 755 l 211 755 l 232 749 l 239 734 l 258 732 l 278 721 l 279 703 m 233 676 l 232 686 l 222 694 l 211 696 l 207 703 l 196 705 l 168 705 l 149 697 l 126 685 l 118 675 l 118 664 l 119 656 l 119 648 l 127 640 l 135 635 l 138 628 l 143 615 l 149 610 l 164 606 l 175 607 l 184 614 l 192 621 l 200 631 l 203 635 l 211 644 l 215 654 l 224 663 l 232 667 l 233 676 z "},"":{"ha":421,"x_min":11,"x_max":389,"o":"m 32 311 l 25 301 l 18 307 l 11 315 l 20 325 l 32 325 l 32 311 m 389 371 l 386 353 l 379 339 l 361 326 l 342 321 l 315 321 l 293 328 l 275 330 l 252 338 l 231 338 l 216 332 l 192 318 l 163 283 l 153 264 l 147 248 l 139 225 l 134 208 l 127 180 l 126 160 l 126 121 l 135 100 l 153 82 l 168 75 l 192 68 l 207 61 l 258 61 l 281 65 l 293 71 l 302 78 l 315 77 l 322 65 l 319 56 l 306 45 l 288 36 l 264 26 l 243 20 l 233 9 l 229 -12 l 228 -26 l 229 -35 l 236 -45 l 253 -57 l 300 -83 l 317 -97 l 335 -117 l 345 -134 l 351 -146 l 358 -168 l 361 -192 l 354 -211 l 345 -227 l 334 -243 l 317 -258 l 310 -262 l 300 -273 l 278 -288 l 252 -300 l 222 -307 l 192 -314 l 165 -310 l 146 -304 l 138 -296 l 134 -288 l 134 -279 l 146 -278 l 164 -273 l 184 -272 l 212 -267 l 236 -258 l 257 -250 l 273 -236 l 281 -214 l 283 -193 l 282 -178 l 273 -157 l 261 -139 l 254 -131 l 243 -127 l 212 -127 l 197 -131 l 186 -125 l 171 -117 l 164 -106 l 163 -94 l 167 -83 l 175 -68 l 179 -49 l 180 -36 l 179 -22 l 178 -16 l 171 -3 l 170 14 l 158 17 l 139 25 l 121 33 l 102 46 l 87 52 l 79 71 l 71 87 l 65 107 l 62 132 l 56 160 l 52 191 l 52 212 l 50 241 l 52 264 l 56 288 l 65 307 l 69 321 l 69 347 l 75 367 l 102 390 l 114 396 l 123 399 l 149 408 l 165 414 l 180 415 l 205 421 l 231 431 l 250 436 l 271 441 l 290 440 l 313 436 l 334 429 l 354 414 l 371 403 l 385 389 l 389 371 z "},"":{"ha":475,"x_min":43,"x_max":441,"o":"m 441 306 l 429 288 l 410 277 l 386 267 l 357 257 l 325 254 l 296 248 l 275 237 l 252 229 l 232 224 l 200 222 l 175 225 l 158 224 l 143 218 l 136 203 l 139 174 l 147 158 l 163 139 l 192 107 l 207 93 l 236 78 l 252 71 l 271 62 l 293 62 l 314 68 l 332 71 l 351 78 l 371 82 l 383 82 l 385 77 l 378 69 l 366 61 l 345 50 l 322 39 l 301 31 l 281 25 l 250 26 l 220 33 l 195 46 l 165 65 l 139 87 l 121 100 l 107 113 l 96 129 l 87 135 l 71 176 l 56 212 l 46 241 l 43 264 l 45 289 l 50 315 l 56 338 l 62 353 l 69 370 l 75 378 l 87 389 l 97 390 l 114 414 l 134 431 l 154 441 l 179 446 l 211 446 l 237 447 l 273 443 l 302 435 l 383 395 l 404 382 l 424 364 l 435 350 l 441 326 l 441 306 m 372 100 l 364 93 l 357 100 l 361 109 l 371 109 l 372 100 m 313 346 l 301 358 l 283 367 l 264 375 l 241 378 l 220 378 l 200 372 l 180 364 l 163 351 l 153 346 l 142 334 l 146 325 l 155 326 l 171 325 l 197 325 l 220 319 l 243 319 l 268 321 l 290 326 l 310 332 l 313 346 m 391 715 l 387 703 l 376 696 l 376 682 l 378 665 l 366 647 l 349 637 l 332 627 l 306 623 l 283 614 l 266 606 l 253 603 l 237 596 l 216 586 l 201 579 l 186 575 l 174 582 l 174 600 l 191 619 l 212 632 l 229 652 l 250 669 l 275 694 l 296 711 l 314 729 l 335 745 l 347 750 l 366 750 l 385 737 l 391 728 l 391 715 z "},"":{"ha":475,"x_min":43,"x_max":441,"o":"m 441 306 l 429 288 l 410 277 l 386 267 l 357 257 l 325 254 l 296 248 l 275 237 l 252 229 l 232 224 l 200 222 l 175 225 l 158 224 l 143 218 l 136 203 l 139 174 l 147 158 l 163 139 l 192 107 l 207 93 l 236 78 l 252 71 l 271 62 l 293 62 l 314 68 l 332 71 l 351 78 l 371 82 l 383 82 l 385 77 l 378 69 l 366 61 l 345 50 l 322 39 l 301 31 l 281 25 l 250 26 l 220 33 l 195 46 l 165 65 l 139 87 l 121 100 l 107 113 l 96 129 l 87 135 l 71 176 l 56 212 l 46 241 l 43 264 l 45 289 l 50 315 l 56 338 l 62 353 l 69 370 l 75 378 l 87 389 l 97 390 l 114 414 l 134 431 l 154 441 l 179 446 l 211 446 l 237 447 l 273 443 l 302 435 l 383 395 l 404 382 l 424 364 l 435 350 l 441 326 l 441 306 m 372 100 l 364 93 l 357 100 l 361 109 l 371 109 l 372 100 m 313 346 l 301 358 l 283 367 l 264 375 l 241 378 l 220 378 l 200 372 l 180 364 l 163 351 l 153 346 l 142 334 l 146 325 l 155 326 l 171 325 l 197 325 l 220 319 l 243 319 l 268 321 l 290 326 l 310 332 l 313 346 m 313 582 l 297 575 l 283 579 l 271 586 l 231 603 l 218 606 l 200 614 l 178 623 l 151 627 l 136 637 l 119 647 l 106 665 l 107 682 l 107 696 l 98 703 l 93 715 l 93 728 l 99 737 l 118 750 l 136 750 l 149 745 l 171 729 l 188 711 l 210 694 l 233 669 l 274 635 l 293 616 l 310 600 l 313 582 z "},"":{"ha":475,"x_min":43,"x_max":441,"o":"m 441 306 l 429 288 l 410 277 l 386 267 l 357 257 l 325 254 l 296 248 l 275 237 l 252 229 l 232 224 l 200 222 l 175 225 l 158 224 l 143 218 l 136 203 l 139 174 l 147 158 l 163 139 l 192 107 l 207 93 l 236 78 l 252 71 l 271 62 l 293 62 l 314 68 l 332 71 l 351 78 l 371 82 l 383 82 l 385 77 l 378 69 l 366 61 l 345 50 l 322 39 l 301 31 l 281 25 l 250 26 l 220 33 l 195 46 l 165 65 l 139 87 l 121 100 l 107 113 l 96 129 l 87 135 l 71 176 l 56 212 l 46 241 l 43 264 l 45 289 l 50 315 l 56 338 l 62 353 l 69 370 l 75 378 l 87 389 l 97 390 l 114 414 l 134 431 l 154 441 l 179 446 l 211 446 l 237 447 l 273 443 l 302 435 l 383 395 l 404 382 l 424 364 l 435 350 l 441 326 l 441 306 m 372 100 l 364 93 l 357 100 l 361 109 l 371 109 l 372 100 m 313 346 l 301 358 l 283 367 l 264 375 l 241 378 l 220 378 l 200 372 l 180 364 l 163 351 l 153 346 l 142 334 l 146 325 l 155 326 l 171 325 l 197 325 l 220 319 l 243 319 l 268 321 l 290 326 l 310 332 l 313 346 m 414 574 l 406 568 l 391 574 l 364 595 l 353 603 l 339 611 l 321 624 l 307 636 l 294 643 l 277 657 l 266 665 l 258 661 l 248 652 l 231 642 l 210 631 l 189 623 l 167 614 l 149 606 l 136 603 l 120 596 l 99 586 l 85 579 l 70 575 l 57 582 l 57 600 l 74 616 l 95 635 l 113 652 l 134 669 l 159 694 l 180 711 l 197 729 l 218 745 l 231 750 l 249 750 l 269 737 l 279 726 l 292 717 l 310 700 l 323 686 l 335 675 l 349 664 l 364 643 l 375 625 l 392 606 l 403 589 l 414 574 z "},"":{"ha":475,"x_min":43,"x_max":441,"o":"m 441 306 l 429 288 l 410 277 l 386 267 l 357 257 l 325 254 l 296 248 l 275 237 l 252 229 l 232 224 l 200 222 l 175 225 l 158 224 l 143 218 l 136 203 l 139 174 l 147 158 l 163 139 l 192 107 l 207 93 l 236 78 l 252 71 l 271 62 l 293 62 l 314 68 l 332 71 l 351 78 l 371 82 l 383 82 l 385 77 l 378 69 l 366 61 l 345 50 l 322 39 l 301 31 l 281 25 l 250 26 l 220 33 l 195 46 l 165 65 l 139 87 l 121 100 l 107 113 l 96 129 l 87 135 l 71 176 l 56 212 l 46 241 l 43 264 l 45 289 l 50 315 l 56 338 l 62 353 l 69 370 l 75 378 l 87 389 l 97 390 l 114 414 l 134 431 l 154 441 l 179 446 l 211 446 l 237 447 l 273 443 l 302 435 l 383 395 l 404 382 l 424 364 l 435 350 l 441 326 l 441 306 m 372 100 l 364 93 l 357 100 l 361 109 l 371 109 l 372 100 m 313 346 l 301 358 l 283 367 l 264 375 l 241 378 l 220 378 l 200 372 l 180 364 l 163 351 l 153 346 l 142 334 l 146 325 l 155 326 l 171 325 l 197 325 l 220 319 l 243 319 l 268 321 l 290 326 l 310 332 l 313 346 m 411 686 l 408 676 l 399 667 l 389 659 l 383 647 l 376 636 l 370 633 l 364 623 l 354 612 l 343 606 l 328 604 l 314 607 l 306 614 l 300 631 l 296 636 l 290 643 l 283 647 l 281 654 l 281 663 l 278 669 l 278 684 l 289 694 l 314 710 l 336 720 l 368 720 l 379 715 l 386 707 l 397 705 l 408 699 l 411 686 m 203 676 l 182 659 l 176 647 l 170 636 l 164 633 l 157 623 l 146 612 l 136 606 l 123 604 l 107 607 l 97 614 l 93 631 l 87 636 l 83 643 l 75 647 l 72 654 l 72 663 l 71 669 l 69 684 l 82 694 l 107 710 l 129 720 l 161 720 l 175 715 l 178 707 l 191 705 l 203 699 l 203 676 m 178 591 l 161 583 l 153 599 l 160 606 l 175 602 l 178 591 z "},"":{"ha":231,"x_min":45,"x_max":289,"o":"m 171 431 l 167 424 l 153 416 l 143 408 l 139 392 l 136 370 l 129 347 l 134 328 l 127 311 l 126 289 l 123 265 l 123 241 l 126 212 l 123 191 l 123 167 l 127 149 l 134 131 l 127 110 l 135 92 l 135 60 l 136 47 l 142 29 l 143 9 l 149 -4 l 149 -17 l 154 -29 l 147 -41 l 139 -45 l 134 -41 l 127 -28 l 123 -12 l 121 0 l 114 14 l 114 26 l 104 47 l 104 66 l 102 81 l 102 100 l 97 117 l 94 158 l 92 170 l 90 196 l 92 214 l 90 233 l 90 250 l 83 264 l 72 271 l 64 279 l 56 306 l 53 321 l 53 375 l 56 399 l 52 424 l 50 440 l 45 456 l 50 472 l 58 485 l 69 489 l 85 493 l 102 489 l 114 478 l 126 468 l 142 468 l 153 457 l 163 450 l 171 443 l 171 431 m 289 715 l 285 703 l 275 696 l 275 682 l 276 665 l 264 647 l 247 637 l 231 627 l 204 623 l 182 614 l 164 606 l 151 603 l 135 596 l 114 586 l 100 579 l 85 575 l 72 582 l 72 600 l 89 619 l 110 632 l 127 652 l 149 669 l 174 694 l 195 711 l 212 729 l 233 745 l 245 750 l 264 750 l 283 737 l 289 728 l 289 715 z "},"":{"ha":231,"x_min":0,"x_max":220,"o":"m 171 431 l 167 424 l 153 416 l 143 408 l 139 392 l 136 370 l 129 347 l 134 328 l 127 311 l 126 289 l 123 265 l 123 241 l 126 212 l 123 191 l 123 167 l 127 149 l 134 131 l 127 110 l 135 92 l 135 60 l 136 47 l 142 29 l 143 9 l 149 -4 l 149 -17 l 154 -29 l 147 -41 l 139 -45 l 134 -41 l 127 -28 l 123 -12 l 121 0 l 114 14 l 114 26 l 104 47 l 104 66 l 102 81 l 102 100 l 97 117 l 94 158 l 92 170 l 90 196 l 92 214 l 90 233 l 90 250 l 83 264 l 72 271 l 64 279 l 56 306 l 53 321 l 53 375 l 56 399 l 52 424 l 50 440 l 45 456 l 50 472 l 58 485 l 69 489 l 85 493 l 102 489 l 114 478 l 126 468 l 142 468 l 153 457 l 163 450 l 171 443 l 171 431 m 220 582 l 204 575 l 191 579 l 178 586 l 138 603 l 125 606 l 107 614 l 85 623 l 58 627 l 43 637 l 26 647 l 13 665 l 14 682 l 14 696 l 5 703 l 0 715 l 0 728 l 6 737 l 25 750 l 43 750 l 56 745 l 78 729 l 95 711 l 117 694 l 140 669 l 181 635 l 200 616 l 217 600 l 220 582 z "},"":{"ha":231,"x_min":-70,"x_max":288,"o":"m 171 431 l 167 424 l 153 416 l 143 408 l 139 392 l 136 370 l 129 347 l 134 328 l 127 311 l 126 289 l 123 265 l 123 241 l 126 212 l 123 191 l 123 167 l 127 149 l 134 131 l 127 110 l 135 92 l 135 60 l 136 47 l 142 29 l 143 9 l 149 -4 l 149 -17 l 154 -29 l 147 -41 l 139 -45 l 134 -41 l 127 -28 l 123 -12 l 121 0 l 114 14 l 114 26 l 104 47 l 104 66 l 102 81 l 102 100 l 97 117 l 94 158 l 92 170 l 90 196 l 92 214 l 90 233 l 90 250 l 83 264 l 72 271 l 64 279 l 56 306 l 53 321 l 53 375 l 56 399 l 52 424 l 50 440 l 45 456 l 50 472 l 58 485 l 69 489 l 85 493 l 102 489 l 114 478 l 126 468 l 142 468 l 153 457 l 163 450 l 171 443 l 171 431 m 288 574 l 279 568 l 264 574 l 237 595 l 227 603 l 212 611 l 195 624 l 180 636 l 167 643 l 150 657 l 139 665 l 132 661 l 121 652 l 104 642 l 83 631 l 62 623 l 40 614 l 22 606 l 9 603 l -7 596 l -28 586 l -42 579 l -57 575 l -70 582 l -70 600 l -53 616 l -32 635 l -14 652 l 7 669 l 32 694 l 53 711 l 71 729 l 92 745 l 104 750 l 122 750 l 142 737 l 153 726 l 165 717 l 183 700 l 196 686 l 208 675 l 222 664 l 237 643 l 248 625 l 265 606 l 276 589 l 288 574 z "},"":{"ha":231,"x_min":-54,"x_max":288,"o":"m 171 431 l 167 424 l 153 416 l 143 408 l 139 392 l 136 370 l 129 347 l 134 328 l 127 311 l 126 289 l 123 265 l 123 241 l 126 212 l 123 191 l 123 167 l 127 149 l 134 131 l 127 110 l 135 92 l 135 60 l 136 47 l 142 29 l 143 9 l 149 -4 l 149 -17 l 154 -29 l 147 -41 l 139 -45 l 134 -41 l 127 -28 l 123 -12 l 121 0 l 114 14 l 114 26 l 104 47 l 104 66 l 102 81 l 102 100 l 97 117 l 94 158 l 92 170 l 90 196 l 92 214 l 90 233 l 90 250 l 83 264 l 72 271 l 64 279 l 56 306 l 53 321 l 53 375 l 56 399 l 52 424 l 50 440 l 45 456 l 50 472 l 58 485 l 69 489 l 85 493 l 102 489 l 114 478 l 126 468 l 142 468 l 153 457 l 163 450 l 171 443 l 171 431 m 288 686 l 285 676 l 275 667 l 265 659 l 260 647 l 253 636 l 246 633 l 241 623 l 231 612 l 220 606 l 204 604 l 191 607 l 182 614 l 176 631 l 172 636 l 167 643 l 160 647 l 157 654 l 157 663 l 155 669 l 155 684 l 165 694 l 191 710 l 213 720 l 245 720 l 256 715 l 262 707 l 274 705 l 285 699 l 288 686 m 79 676 l 58 659 l 53 647 l 46 636 l 41 633 l 33 623 l 22 612 l 13 606 l 0 604 l -16 607 l -26 614 l -31 631 l -36 636 l -40 643 l -48 647 l -52 654 l -52 663 l -53 669 l -54 684 l -41 694 l -16 710 l 5 720 l 38 720 l 52 715 l 54 707 l 67 705 l 79 699 l 79 676 m 54 591 l 38 583 l 29 599 l 37 606 l 52 602 l 54 591 z "},"":{"ha":476,"x_min":43,"x_max":415,"o":"m 415 79 l 410 72 l 403 66 l 389 68 l 376 79 l 372 92 l 371 110 l 371 125 l 366 144 l 364 164 l 364 182 l 358 200 l 357 221 l 346 254 l 343 304 l 332 339 l 315 354 l 296 363 l 288 374 l 273 380 l 252 374 l 236 368 l 222 353 l 208 336 l 191 311 l 183 294 l 179 279 l 176 265 l 165 250 l 153 235 l 147 212 l 146 187 l 146 163 l 143 132 l 142 104 l 142 79 l 143 56 l 149 35 l 153 17 l 154 0 l 147 -8 l 142 -16 l 129 -18 l 117 -18 l 109 -12 l 102 -4 l 94 20 l 90 39 l 85 78 l 85 93 l 82 110 l 79 132 l 79 158 l 77 182 l 77 200 l 75 218 l 71 239 l 71 264 l 69 286 l 69 372 l 64 389 l 56 401 l 50 412 l 45 427 l 43 443 l 45 456 l 52 468 l 60 476 l 75 488 l 94 489 l 114 488 l 129 478 l 143 468 l 158 453 l 165 443 l 171 427 l 186 419 l 200 424 l 220 427 l 239 432 l 257 437 l 281 440 l 300 443 l 319 436 l 329 425 l 338 406 l 345 392 l 347 372 l 354 359 l 364 343 l 371 321 l 372 301 l 374 279 l 378 258 l 379 237 l 385 218 l 386 200 l 386 180 l 389 161 l 396 142 l 399 122 l 410 107 l 415 92 l 415 79 m 353 60 l 347 52 l 340 49 l 335 60 l 346 71 l 353 60 m 257 747 l 248 743 l 236 741 l 233 750 l 235 761 l 245 762 l 255 755 l 257 747 m 415 747 l 411 734 l 410 717 l 407 703 l 407 684 l 403 665 l 401 643 l 394 624 l 389 602 l 372 583 l 341 572 l 321 567 l 290 564 l 261 571 l 241 587 l 232 602 l 200 661 l 186 667 l 166 665 l 153 659 l 142 650 l 134 637 l 132 623 l 126 608 l 129 590 l 121 574 l 104 558 l 76 557 l 57 564 l 51 583 l 51 637 l 56 659 l 68 685 l 80 703 l 98 722 l 123 733 l 151 737 l 172 741 l 195 742 l 214 733 l 229 717 l 260 686 l 271 665 l 284 643 l 293 632 l 311 616 l 332 607 l 354 615 l 370 628 l 382 650 l 391 672 l 393 697 l 393 737 l 401 751 l 412 755 l 415 747 z "},"":{"ha":439,"x_min":43,"x_max":396,"o":"m 257 359 l 249 357 l 240 364 l 245 370 l 254 368 l 257 359 m 396 208 l 393 184 l 389 163 l 379 146 l 372 127 l 361 109 l 345 97 l 334 81 l 311 69 l 289 61 l 262 58 l 236 54 l 211 52 l 184 57 l 163 61 l 142 69 l 125 77 l 107 93 l 92 111 l 75 121 l 64 139 l 56 158 l 46 176 l 45 197 l 43 224 l 46 243 l 53 269 l 53 296 l 61 322 l 75 364 l 90 378 l 93 393 l 107 404 l 125 416 l 142 427 l 167 432 l 183 429 l 197 421 l 205 406 l 208 392 l 207 374 l 196 359 l 183 343 l 175 325 l 174 307 l 160 294 l 153 269 l 146 253 l 144 228 l 144 207 l 149 184 l 158 167 l 170 153 l 184 142 l 199 127 l 216 122 l 239 121 l 241 117 l 267 118 l 289 122 l 314 139 l 329 154 l 340 176 l 345 197 l 345 225 l 338 241 l 326 262 l 314 279 l 298 294 l 282 307 l 269 317 l 260 325 l 257 339 l 262 349 l 275 349 l 288 340 l 304 334 l 315 325 l 338 310 l 353 298 l 363 283 l 375 265 l 386 249 l 392 233 l 396 208 m 343 715 l 339 703 l 329 696 l 329 682 l 330 665 l 318 647 l 301 637 l 285 627 l 258 623 l 236 614 l 218 606 l 205 603 l 189 596 l 168 586 l 154 579 l 139 575 l 126 582 l 126 600 l 143 619 l 164 632 l 182 652 l 203 669 l 228 694 l 249 711 l 267 729 l 288 745 l 300 750 l 318 750 l 338 737 l 343 728 l 343 715 z "},"":{"ha":439,"x_min":43,"x_max":396,"o":"m 257 359 l 249 357 l 240 364 l 245 370 l 254 368 l 257 359 m 396 208 l 393 184 l 389 163 l 379 146 l 372 127 l 361 109 l 345 97 l 334 81 l 311 69 l 289 61 l 262 58 l 236 54 l 211 52 l 184 57 l 163 61 l 142 69 l 125 77 l 107 93 l 92 111 l 75 121 l 64 139 l 56 158 l 46 176 l 45 197 l 43 224 l 46 243 l 53 269 l 53 296 l 61 322 l 75 364 l 90 378 l 93 393 l 107 404 l 125 416 l 142 427 l 167 432 l 183 429 l 197 421 l 205 406 l 208 392 l 207 374 l 196 359 l 183 343 l 175 325 l 174 307 l 160 294 l 153 269 l 146 253 l 144 228 l 144 207 l 149 184 l 158 167 l 170 153 l 184 142 l 199 127 l 216 122 l 239 121 l 241 117 l 267 118 l 289 122 l 314 139 l 329 154 l 340 176 l 345 197 l 345 225 l 338 241 l 326 262 l 314 279 l 298 294 l 282 307 l 269 317 l 260 325 l 257 339 l 262 349 l 275 349 l 288 340 l 304 334 l 315 325 l 338 310 l 353 298 l 363 283 l 375 265 l 386 249 l 392 233 l 396 208 m 306 582 l 290 575 l 277 579 l 264 586 l 224 603 l 212 606 l 193 614 l 171 623 l 144 627 l 130 637 l 113 647 l 99 665 l 100 682 l 100 696 l 91 703 l 86 715 l 86 728 l 92 737 l 111 750 l 130 750 l 142 745 l 164 729 l 181 711 l 203 694 l 227 669 l 267 635 l 286 616 l 303 600 l 306 582 z "},"":{"ha":439,"x_min":43,"x_max":400,"o":"m 257 359 l 249 357 l 240 364 l 245 370 l 254 368 l 257 359 m 396 208 l 393 184 l 389 163 l 379 146 l 372 127 l 361 109 l 345 97 l 334 81 l 311 69 l 289 61 l 262 58 l 236 54 l 211 52 l 184 57 l 163 61 l 142 69 l 125 77 l 107 93 l 92 111 l 75 121 l 64 139 l 56 158 l 46 176 l 45 197 l 43 224 l 46 243 l 53 269 l 53 296 l 61 322 l 75 364 l 90 378 l 93 393 l 107 404 l 125 416 l 142 427 l 167 432 l 183 429 l 197 421 l 205 406 l 208 392 l 207 374 l 196 359 l 183 343 l 175 325 l 174 307 l 160 294 l 153 269 l 146 253 l 144 228 l 144 207 l 149 184 l 158 167 l 170 153 l 184 142 l 199 127 l 216 122 l 239 121 l 241 117 l 267 118 l 289 122 l 314 139 l 329 154 l 340 176 l 345 197 l 345 225 l 338 241 l 326 262 l 314 279 l 298 294 l 282 307 l 269 317 l 260 325 l 257 339 l 262 349 l 275 349 l 288 340 l 304 334 l 315 325 l 338 310 l 353 298 l 363 283 l 375 265 l 386 249 l 392 233 l 396 208 m 400 574 l 391 568 l 376 574 l 350 595 l 339 603 l 325 611 l 307 624 l 293 636 l 279 643 l 262 657 l 252 665 l 244 661 l 233 652 l 216 642 l 196 631 l 175 623 l 153 614 l 135 606 l 122 603 l 106 596 l 85 586 l 71 579 l 56 575 l 43 582 l 43 600 l 60 616 l 81 635 l 98 652 l 119 669 l 144 694 l 165 711 l 183 729 l 204 745 l 216 750 l 235 750 l 254 737 l 265 726 l 278 717 l 296 700 l 309 686 l 321 675 l 334 664 l 350 643 l 361 625 l 378 606 l 389 589 l 400 574 z "},"":{"ha":439,"x_min":43,"x_max":396,"o":"m 257 359 l 249 357 l 240 364 l 245 370 l 254 368 l 257 359 m 396 208 l 393 184 l 389 163 l 379 146 l 372 127 l 361 109 l 345 97 l 334 81 l 311 69 l 289 61 l 262 58 l 236 54 l 211 52 l 184 57 l 163 61 l 142 69 l 125 77 l 107 93 l 92 111 l 75 121 l 64 139 l 56 158 l 46 176 l 45 197 l 43 224 l 46 243 l 53 269 l 53 296 l 61 322 l 75 364 l 90 378 l 93 393 l 107 404 l 125 416 l 142 427 l 167 432 l 183 429 l 197 421 l 205 406 l 208 392 l 207 374 l 196 359 l 183 343 l 175 325 l 174 307 l 160 294 l 153 269 l 146 253 l 144 228 l 144 207 l 149 184 l 158 167 l 170 153 l 184 142 l 199 127 l 216 122 l 239 121 l 241 117 l 267 118 l 289 122 l 314 139 l 329 154 l 340 176 l 345 197 l 345 225 l 338 241 l 326 262 l 314 279 l 298 294 l 282 307 l 269 317 l 260 325 l 257 339 l 262 349 l 275 349 l 288 340 l 304 334 l 315 325 l 338 310 l 353 298 l 363 283 l 375 265 l 386 249 l 392 233 l 396 208 m 393 686 l 390 676 l 380 667 l 370 659 l 365 647 l 358 636 l 351 633 l 346 623 l 336 612 l 325 606 l 309 604 l 296 607 l 288 614 l 281 631 l 277 636 l 272 643 l 265 647 l 262 654 l 262 663 l 260 669 l 260 684 l 271 694 l 296 710 l 318 720 l 350 720 l 361 715 l 368 707 l 379 705 l 390 699 l 393 686 m 184 676 l 163 659 l 158 647 l 151 636 l 146 633 l 138 623 l 127 612 l 118 606 l 105 604 l 89 607 l 79 614 l 75 631 l 69 636 l 65 643 l 57 647 l 54 654 l 54 663 l 52 669 l 51 684 l 64 694 l 89 710 l 111 720 l 143 720 l 157 715 l 159 707 l 172 705 l 184 699 l 184 676 m 159 591 l 143 583 l 134 599 l 142 606 l 157 602 l 159 591 z "},"":{"ha":439,"x_min":43,"x_max":411,"o":"m 257 359 l 249 357 l 240 364 l 245 370 l 254 368 l 257 359 m 396 208 l 393 184 l 389 163 l 379 146 l 372 127 l 361 109 l 345 97 l 334 81 l 311 69 l 289 61 l 262 58 l 236 54 l 211 52 l 184 57 l 163 61 l 142 69 l 125 77 l 107 93 l 92 111 l 75 121 l 64 139 l 56 158 l 46 176 l 45 197 l 43 224 l 46 243 l 53 269 l 53 296 l 61 322 l 75 364 l 90 378 l 93 393 l 107 404 l 125 416 l 142 427 l 167 432 l 183 429 l 197 421 l 205 406 l 208 392 l 207 374 l 196 359 l 183 343 l 175 325 l 174 307 l 160 294 l 153 269 l 146 253 l 144 228 l 144 207 l 149 184 l 158 167 l 170 153 l 184 142 l 199 127 l 216 122 l 239 121 l 241 117 l 267 118 l 289 122 l 314 139 l 329 154 l 340 176 l 345 197 l 345 225 l 338 241 l 326 262 l 314 279 l 298 294 l 282 307 l 269 317 l 260 325 l 257 339 l 262 349 l 275 349 l 288 340 l 304 334 l 315 325 l 338 310 l 353 298 l 363 283 l 375 265 l 386 249 l 392 233 l 396 208 m 253 747 l 244 743 l 232 741 l 229 750 l 231 761 l 241 762 l 251 755 l 253 747 m 411 747 l 407 734 l 406 717 l 403 703 l 403 684 l 399 665 l 397 643 l 390 624 l 385 602 l 368 583 l 337 572 l 317 567 l 286 564 l 257 571 l 237 587 l 228 602 l 196 661 l 182 667 l 162 665 l 149 659 l 138 650 l 130 637 l 127 623 l 122 608 l 125 590 l 117 574 l 100 558 l 72 557 l 53 564 l 47 583 l 47 637 l 52 659 l 64 685 l 76 703 l 94 722 l 119 733 l 147 737 l 168 741 l 191 742 l 210 733 l 225 717 l 256 686 l 267 665 l 280 643 l 289 632 l 307 616 l 328 607 l 350 615 l 366 628 l 378 650 l 387 672 l 389 697 l 389 737 l 397 751 l 408 755 l 411 747 z "},"":{"ha":469,"x_min":53,"x_max":461,"o":"m 461 78 l 454 66 l 446 61 l 435 60 l 425 62 l 419 69 l 408 82 l 395 93 l 385 103 l 367 142 l 364 158 l 359 172 l 355 183 l 350 183 l 343 175 l 335 161 l 330 149 l 326 135 l 319 121 l 311 109 l 301 97 l 290 82 l 272 72 l 258 65 l 232 58 l 211 57 l 195 60 l 176 69 l 154 75 l 139 87 l 121 97 l 110 109 l 94 122 l 89 143 l 81 165 l 75 187 l 69 214 l 64 229 l 68 250 l 61 275 l 60 289 l 58 310 l 56 328 l 53 340 l 54 358 l 58 372 l 72 387 l 90 395 l 104 396 l 122 393 l 139 385 l 151 375 l 163 358 l 170 343 l 175 322 l 172 307 l 163 294 l 154 279 l 153 260 l 146 237 l 146 218 l 147 192 l 154 164 l 164 151 l 175 134 l 195 119 l 214 110 l 237 103 l 256 110 l 273 119 l 288 134 l 301 155 l 311 174 l 319 192 l 326 211 l 332 236 l 335 265 l 329 290 l 325 313 l 321 322 l 323 340 l 322 358 l 325 372 l 329 385 l 332 403 l 339 414 l 347 419 l 359 415 l 366 404 l 367 395 l 372 380 l 371 367 l 371 346 l 366 325 l 366 315 l 359 307 l 363 290 l 366 271 l 372 253 l 374 225 l 380 207 l 386 183 l 389 164 l 396 143 l 404 127 l 415 114 l 427 102 l 457 87 l 461 78 m 228 254 l 225 222 l 205 203 l 189 218 l 178 241 l 179 267 l 172 281 l 180 289 l 195 288 l 208 279 l 228 254 m 326 715 l 322 703 l 312 696 l 312 682 l 313 665 l 301 647 l 284 637 l 268 627 l 241 623 l 219 614 l 201 606 l 189 603 l 172 596 l 151 586 l 137 579 l 122 575 l 109 582 l 109 600 l 126 619 l 147 632 l 165 652 l 186 669 l 211 694 l 232 711 l 250 729 l 271 745 l 283 750 l 301 750 l 321 737 l 326 728 l 326 715 z "},"":{"ha":469,"x_min":53,"x_max":461,"o":"m 461 78 l 454 66 l 446 61 l 435 60 l 425 62 l 419 69 l 408 82 l 395 93 l 385 103 l 367 142 l 364 158 l 359 172 l 355 183 l 350 183 l 343 175 l 335 161 l 330 149 l 326 135 l 319 121 l 311 109 l 301 97 l 290 82 l 272 72 l 258 65 l 232 58 l 211 57 l 195 60 l 176 69 l 154 75 l 139 87 l 121 97 l 110 109 l 94 122 l 89 143 l 81 165 l 75 187 l 69 214 l 64 229 l 68 250 l 61 275 l 60 289 l 58 310 l 56 328 l 53 340 l 54 358 l 58 372 l 72 387 l 90 395 l 104 396 l 122 393 l 139 385 l 151 375 l 163 358 l 170 343 l 175 322 l 172 307 l 163 294 l 154 279 l 153 260 l 146 237 l 146 218 l 147 192 l 154 164 l 164 151 l 175 134 l 195 119 l 214 110 l 237 103 l 256 110 l 273 119 l 288 134 l 301 155 l 311 174 l 319 192 l 326 211 l 332 236 l 335 265 l 329 290 l 325 313 l 321 322 l 323 340 l 322 358 l 325 372 l 329 385 l 332 403 l 339 414 l 347 419 l 359 415 l 366 404 l 367 395 l 372 380 l 371 367 l 371 346 l 366 325 l 366 315 l 359 307 l 363 290 l 366 271 l 372 253 l 374 225 l 380 207 l 386 183 l 389 164 l 396 143 l 404 127 l 415 114 l 427 102 l 457 87 l 461 78 m 228 254 l 225 222 l 205 203 l 189 218 l 178 241 l 179 267 l 172 281 l 180 289 l 195 288 l 208 279 l 228 254 m 289 582 l 273 575 l 260 579 l 248 586 l 207 603 l 195 606 l 176 614 l 154 623 l 127 627 l 113 637 l 96 647 l 82 665 l 83 682 l 83 696 l 74 703 l 69 715 l 69 728 l 75 737 l 94 750 l 113 750 l 125 745 l 147 729 l 164 711 l 186 694 l 210 669 l 250 635 l 269 616 l 286 600 l 289 582 z "},"":{"ha":469,"x_min":52,"x_max":461,"o":"m 461 78 l 454 66 l 446 61 l 435 60 l 425 62 l 419 69 l 408 82 l 395 93 l 385 103 l 367 142 l 364 158 l 359 172 l 355 183 l 350 183 l 343 175 l 335 161 l 330 149 l 326 135 l 319 121 l 311 109 l 301 97 l 290 82 l 272 72 l 258 65 l 232 58 l 211 57 l 195 60 l 176 69 l 154 75 l 139 87 l 121 97 l 110 109 l 94 122 l 89 143 l 81 165 l 75 187 l 69 214 l 64 229 l 68 250 l 61 275 l 60 289 l 58 310 l 56 328 l 53 340 l 54 358 l 58 372 l 72 387 l 90 395 l 104 396 l 122 393 l 139 385 l 151 375 l 163 358 l 170 343 l 175 322 l 172 307 l 163 294 l 154 279 l 153 260 l 146 237 l 146 218 l 147 192 l 154 164 l 164 151 l 175 134 l 195 119 l 214 110 l 237 103 l 256 110 l 273 119 l 288 134 l 301 155 l 311 174 l 319 192 l 326 211 l 332 236 l 335 265 l 329 290 l 325 313 l 321 322 l 323 340 l 322 358 l 325 372 l 329 385 l 332 403 l 339 414 l 347 419 l 359 415 l 366 404 l 367 395 l 372 380 l 371 367 l 371 346 l 366 325 l 366 315 l 359 307 l 363 290 l 366 271 l 372 253 l 374 225 l 380 207 l 386 183 l 389 164 l 396 143 l 404 127 l 415 114 l 427 102 l 457 87 l 461 78 m 228 254 l 225 222 l 205 203 l 189 218 l 178 241 l 179 267 l 172 281 l 180 289 l 195 288 l 208 279 l 228 254 m 410 574 l 401 568 l 386 574 l 359 595 l 349 603 l 334 611 l 317 624 l 302 636 l 289 643 l 272 657 l 261 665 l 254 661 l 243 652 l 226 642 l 205 631 l 184 623 l 162 614 l 144 606 l 132 603 l 115 596 l 94 586 l 80 579 l 65 575 l 52 582 l 52 600 l 69 616 l 90 635 l 108 652 l 129 669 l 154 694 l 175 711 l 193 729 l 214 745 l 226 750 l 244 750 l 264 737 l 275 726 l 288 717 l 305 700 l 318 686 l 330 675 l 344 664 l 359 643 l 370 625 l 387 606 l 398 589 l 410 574 z "},"":{"ha":469,"x_min":52,"x_max":461,"o":"m 461 78 l 454 66 l 446 61 l 435 60 l 425 62 l 419 69 l 408 82 l 395 93 l 385 103 l 367 142 l 364 158 l 359 172 l 355 183 l 350 183 l 343 175 l 335 161 l 330 149 l 326 135 l 319 121 l 311 109 l 301 97 l 290 82 l 272 72 l 258 65 l 232 58 l 211 57 l 195 60 l 176 69 l 154 75 l 139 87 l 121 97 l 110 109 l 94 122 l 89 143 l 81 165 l 75 187 l 69 214 l 64 229 l 68 250 l 61 275 l 60 289 l 58 310 l 56 328 l 53 340 l 54 358 l 58 372 l 72 387 l 90 395 l 104 396 l 122 393 l 139 385 l 151 375 l 163 358 l 170 343 l 175 322 l 172 307 l 163 294 l 154 279 l 153 260 l 146 237 l 146 218 l 147 192 l 154 164 l 164 151 l 175 134 l 195 119 l 214 110 l 237 103 l 256 110 l 273 119 l 288 134 l 301 155 l 311 174 l 319 192 l 326 211 l 332 236 l 335 265 l 329 290 l 325 313 l 321 322 l 323 340 l 322 358 l 325 372 l 329 385 l 332 403 l 339 414 l 347 419 l 359 415 l 366 404 l 367 395 l 372 380 l 371 367 l 371 346 l 366 325 l 366 315 l 359 307 l 363 290 l 366 271 l 372 253 l 374 225 l 380 207 l 386 183 l 389 164 l 396 143 l 404 127 l 415 114 l 427 102 l 457 87 l 461 78 m 228 254 l 225 222 l 205 203 l 189 218 l 178 241 l 179 267 l 172 281 l 180 289 l 195 288 l 208 279 l 228 254 m 394 686 l 391 676 l 382 667 l 372 659 l 366 647 l 359 636 l 353 633 l 347 623 l 337 612 l 326 606 l 311 604 l 297 607 l 289 614 l 283 631 l 279 636 l 273 643 l 267 647 l 264 654 l 264 663 l 261 669 l 261 684 l 272 694 l 297 710 l 319 720 l 351 720 l 362 715 l 369 707 l 380 705 l 391 699 l 394 686 m 186 676 l 165 659 l 159 647 l 153 636 l 147 633 l 140 623 l 129 612 l 119 606 l 106 604 l 90 607 l 80 614 l 76 631 l 71 636 l 66 643 l 58 647 l 55 654 l 55 663 l 54 669 l 52 684 l 65 694 l 90 710 l 112 720 l 144 720 l 158 715 l 161 707 l 174 705 l 186 699 l 186 676 m 161 591 l 144 583 l 136 599 l 143 606 l 158 602 l 161 591 z "},"":{"ha":838,"x_min":69,"x_max":768,"o":"m 113 896 l 106 884 l 94 878 l 81 884 l 78 901 l 94 909 l 106 905 l 113 896 m 768 717 l 762 701 l 765 688 l 762 676 l 745 664 l 715 644 l 665 629 l 600 623 l 558 623 l 521 627 l 497 627 l 468 623 l 441 616 l 431 604 l 431 587 l 428 558 l 428 536 l 425 519 l 425 500 l 427 479 l 427 460 l 428 439 l 431 415 l 424 396 l 427 375 l 428 347 l 435 321 l 431 283 l 431 203 l 428 170 l 427 138 l 427 109 l 424 40 l 424 12 l 418 -33 l 418 -168 l 422 -196 l 414 -222 l 401 -241 l 385 -222 l 371 -147 l 367 -113 l 364 -68 l 364 -11 l 366 47 l 366 135 l 364 164 l 359 183 l 358 214 l 361 245 l 359 277 l 361 311 l 364 343 l 364 425 l 361 457 l 361 513 l 364 546 l 359 575 l 359 602 l 343 619 l 319 624 l 290 623 l 262 616 l 235 619 l 203 624 l 150 624 l 122 621 l 104 629 l 87 639 l 69 652 l 71 671 l 81 694 l 89 720 l 104 732 l 117 732 l 125 725 l 123 714 l 117 699 l 114 685 l 117 669 l 131 661 l 147 661 l 176 663 l 211 671 l 239 675 l 277 676 l 300 679 l 321 682 l 332 690 l 338 705 l 332 725 l 329 746 l 323 766 l 321 791 l 314 825 l 314 922 l 318 939 l 318 951 l 302 961 l 285 965 l 265 968 l 250 968 l 239 975 l 237 986 l 239 1003 l 245 1014 l 264 1019 l 281 1025 l 302 1028 l 325 1032 l 387 1032 l 412 1036 l 436 1036 l 463 1040 l 479 1040 l 492 1043 l 505 1046 l 521 1046 l 538 1044 l 550 1036 l 554 1025 l 554 1008 l 543 1003 l 525 999 l 509 997 l 492 994 l 479 985 l 464 982 l 456 970 l 453 950 l 450 896 l 446 871 l 441 848 l 441 831 l 452 819 l 452 807 l 446 772 l 447 754 l 450 732 l 450 707 l 452 696 l 469 686 l 489 685 l 514 679 l 538 675 l 567 675 l 596 672 l 623 676 l 642 676 l 671 686 l 694 694 l 715 708 l 734 721 l 746 739 l 761 739 l 765 732 l 768 717 z "},"":{"ha":439,"x_min":115,"x_max":326,"o":"m 243 905 l 237 904 l 233 908 l 236 911 l 241 911 l 243 905 m 326 815 l 325 802 l 322 787 l 317 778 l 313 766 l 306 755 l 296 749 l 289 739 l 275 732 l 262 726 l 245 725 l 231 722 l 215 721 l 200 724 l 186 726 l 174 732 l 164 736 l 153 746 l 144 757 l 134 762 l 117 796 l 115 808 l 115 823 l 117 836 l 121 851 l 121 868 l 125 884 l 131 899 l 134 908 l 143 917 l 144 926 l 153 932 l 164 940 l 174 946 l 189 949 l 199 947 l 207 943 l 212 933 l 214 925 l 212 914 l 212 907 l 215 899 l 216 890 l 216 882 l 215 875 l 212 867 l 210 860 l 208 852 l 204 848 l 201 840 l 199 833 l 197 825 l 197 817 l 203 803 l 207 799 l 212 794 l 218 789 l 232 786 l 233 785 l 250 787 l 260 793 l 264 799 l 268 807 l 271 814 l 271 823 l 264 838 l 260 843 l 254 848 l 248 852 l 243 857 l 239 860 l 235 865 l 233 873 l 233 884 l 237 895 l 245 899 l 254 899 l 261 895 l 271 890 l 278 885 l 292 876 l 300 869 l 307 860 l 314 848 l 321 839 l 323 831 l 326 815 z "},"":{"ha":414,"x_min":43,"x_max":371,"o":"m 371 338 l 361 328 l 340 325 l 325 318 l 298 306 l 272 294 l 264 292 l 260 285 l 260 268 l 257 254 l 253 245 l 260 235 l 267 208 l 271 183 l 279 149 l 281 117 l 283 103 l 289 93 l 300 86 l 313 71 l 313 56 l 310 47 l 302 40 l 294 36 l 282 33 l 271 37 l 260 49 l 249 66 l 240 87 l 239 110 l 233 123 l 232 144 l 220 245 l 218 277 l 205 279 l 197 283 l 193 277 l 193 272 l 200 160 l 200 139 l 204 113 l 207 87 l 212 69 l 220 56 l 221 46 l 216 39 l 210 36 l 204 36 l 191 41 l 184 52 l 178 72 l 171 98 l 165 171 l 165 205 l 163 236 l 160 262 l 155 281 l 144 300 l 123 315 l 100 338 l 75 367 l 60 392 l 49 421 l 43 447 l 43 475 l 46 510 l 60 550 l 69 572 l 79 596 l 90 612 l 103 633 l 115 653 l 129 669 l 139 685 l 135 713 l 132 765 l 129 785 l 127 810 l 123 836 l 115 860 l 104 882 l 102 908 l 102 926 l 109 945 l 125 954 l 135 957 l 149 958 l 164 953 l 184 950 l 197 943 l 210 937 l 218 942 l 222 947 l 227 957 l 233 958 l 240 961 l 249 961 l 260 971 l 269 974 l 278 972 l 288 965 l 292 958 l 290 951 l 288 940 l 275 932 l 271 922 l 269 913 l 264 885 l 261 847 l 261 812 l 260 777 l 271 775 l 290 778 l 314 768 l 332 753 l 343 734 l 347 724 l 346 708 l 342 703 l 334 693 l 315 685 l 293 669 l 272 663 l 258 650 l 249 604 l 249 576 l 245 551 l 245 521 l 249 488 l 245 461 l 249 427 l 250 390 l 249 361 l 241 338 l 252 329 l 261 328 l 273 330 l 289 334 l 309 334 l 319 340 l 332 338 l 346 339 l 363 342 l 363 350 l 371 347 l 371 338 m 157 154 l 146 153 l 143 161 l 149 170 l 155 161 l 157 154 m 224 761 l 216 787 l 220 810 l 220 832 l 216 847 l 215 871 l 201 876 l 199 833 l 195 812 l 195 785 l 191 764 l 191 755 l 196 741 l 210 751 l 224 761 m 218 456 l 216 476 l 210 504 l 210 526 l 207 555 l 207 621 l 184 593 l 176 572 l 184 501 l 184 473 l 180 453 l 184 415 l 184 363 l 210 349 l 218 456 m 160 371 l 157 399 l 155 416 l 150 437 l 146 461 l 144 501 l 134 543 l 111 465 l 113 437 l 118 419 l 126 399 l 135 387 l 143 379 l 160 371 z "},"":{"ha":696,"x_min":-43,"x_max":653,"o":"m 653 528 l 637 524 l 615 518 l 570 518 l 549 517 l 518 521 l 489 521 l 461 525 l 428 521 l 397 519 l 358 513 l 322 510 l 304 503 l 294 489 l 293 463 l 290 437 l 290 416 l 288 380 l 290 353 l 283 325 l 282 296 l 275 264 l 271 237 l 268 225 l 261 215 l 273 200 l 300 176 l 343 140 l 385 122 l 399 113 l 414 111 l 427 103 l 457 97 l 481 87 l 503 82 l 529 78 l 541 72 l 555 68 l 581 68 l 600 66 l 625 61 l 636 58 l 643 49 l 644 36 l 642 28 l 632 21 l 614 33 l 591 40 l 574 45 l 564 41 l 542 49 l 518 58 l 489 69 l 424 81 l 397 83 l 378 86 l 350 92 l 330 97 l 311 107 l 264 135 l 248 139 l 232 135 l 229 122 l 220 110 l 208 97 l 204 81 l 189 69 l 175 61 l 163 57 l 150 60 l 143 68 l 127 82 l 117 93 l 100 102 l 90 107 l 82 117 l 74 121 l 65 132 l 62 154 l 65 172 l 74 186 l 90 196 l 111 201 l 142 205 l 149 212 l 165 208 l 192 208 l 208 221 l 211 235 l 212 250 l 216 289 l 218 330 l 222 361 l 222 432 l 228 464 l 227 485 l 220 493 l 207 489 l 195 484 l 178 479 l 160 476 l 129 475 l 107 478 l 92 479 l 74 493 l 62 498 l 50 515 l 39 538 l 46 557 l 53 581 l 74 589 l 83 600 l 102 604 l 118 618 l 144 621 l 168 621 l 191 618 l 220 618 l 232 631 l 233 650 l 236 675 l 237 694 l 243 701 l 248 739 l 250 753 l 254 779 l 261 807 l 268 833 l 278 860 l 281 882 l 293 900 l 319 929 l 347 946 l 374 961 l 397 977 l 425 983 l 457 983 l 468 978 l 492 978 l 517 964 l 545 951 l 564 935 l 576 924 l 585 903 l 583 884 l 571 871 l 543 860 l 521 860 l 498 868 l 472 869 l 444 863 l 424 852 l 408 836 l 392 819 l 385 800 l 361 775 l 357 755 l 345 733 l 334 707 l 322 694 l 322 665 l 317 656 l 315 635 l 314 608 l 317 591 l 334 582 l 357 579 l 386 576 l 399 572 l 415 575 l 440 571 l 471 567 l 497 567 l 518 566 l 550 557 l 581 555 l 603 550 l 624 545 l 637 536 l 653 528 m -18 721 l -24 711 l -37 707 l -43 715 l -35 726 l -24 726 l -18 721 m 184 146 l 175 154 l 154 149 l 147 139 l 155 139 l 171 135 l 184 146 z "},"":{"ha":514,"x_min":53,"x_max":534,"o":"m 534 737 l 533 722 l 515 718 l 503 720 l 489 732 l 501 743 l 521 745 l 534 737 m 437 693 l 427 676 l 410 676 l 392 684 l 374 693 l 355 708 l 351 721 l 329 726 l 317 730 l 292 726 l 248 726 l 218 713 l 196 699 l 176 681 l 160 664 l 153 644 l 142 616 l 144 586 l 154 559 l 164 543 l 182 529 l 196 519 l 214 501 l 235 486 l 252 469 l 271 453 l 311 428 l 332 408 l 346 390 l 359 379 l 364 364 l 374 346 l 383 329 l 393 307 l 397 282 l 407 256 l 414 232 l 415 195 l 410 168 l 396 138 l 389 110 l 374 93 l 367 77 l 349 54 l 332 40 l 307 31 l 300 29 l 304 25 l 317 22 l 328 17 l 338 4 l 350 -1 l 363 -8 l 376 -21 l 387 -35 l 389 -54 l 393 -77 l 396 -96 l 393 -115 l 386 -136 l 376 -154 l 363 -168 l 345 -183 l 329 -189 l 313 -199 l 297 -205 l 277 -207 l 233 -207 l 220 -196 l 200 -195 l 174 -187 l 151 -179 l 139 -168 l 125 -163 l 117 -147 l 110 -132 l 110 -113 l 117 -93 l 122 -81 l 132 -66 l 143 -65 l 149 -77 l 143 -92 l 142 -109 l 142 -127 l 151 -143 l 170 -150 l 189 -157 l 205 -164 l 233 -167 l 252 -175 l 273 -170 l 292 -164 l 306 -155 l 323 -143 l 338 -132 l 347 -122 l 349 -103 l 349 -81 l 342 -64 l 328 -46 l 309 -39 l 285 -28 l 277 -20 l 252 -7 l 233 4 l 214 12 l 201 20 l 183 24 l 171 25 l 154 35 l 139 45 l 129 61 l 119 75 l 113 93 l 111 114 l 117 134 l 118 150 l 126 170 l 138 186 l 149 201 l 151 210 l 161 222 l 174 222 l 178 236 l 193 240 l 208 249 l 227 250 l 248 253 l 273 261 l 297 267 l 317 267 l 336 261 l 350 253 l 367 240 l 376 233 l 387 218 l 395 205 l 396 211 l 386 232 l 382 257 l 370 278 l 363 301 l 351 326 l 345 347 l 329 357 l 318 371 l 300 385 l 285 401 l 258 415 l 241 433 l 222 437 l 205 453 l 183 471 l 171 482 l 147 490 l 126 510 l 109 534 l 96 559 l 85 586 l 85 637 l 96 667 l 109 694 l 121 718 l 138 737 l 153 753 l 171 768 l 195 782 l 214 789 l 243 790 l 271 794 l 297 800 l 321 814 l 346 822 l 357 832 l 382 828 l 395 814 l 403 789 l 412 775 l 425 761 l 432 741 l 435 720 l 437 693 m 74 494 l 64 489 l 53 497 l 61 509 l 74 505 l 74 494 m 387 178 l 382 174 l 372 164 l 355 157 l 328 154 l 306 157 l 286 158 l 265 154 l 245 144 l 232 135 l 220 121 l 214 102 l 222 86 l 235 75 l 253 71 l 265 61 l 278 50 l 283 45 l 297 49 l 321 58 l 338 71 l 350 82 l 355 97 l 368 119 l 375 143 l 383 161 l 387 178 z "},"":{"ha":416,"x_min":50,"x_max":367,"o":"m 367 475 l 359 464 l 358 450 l 351 441 l 349 427 l 343 415 l 334 404 l 326 389 l 317 375 l 307 367 l 290 359 l 268 347 l 237 334 l 208 332 l 196 329 l 184 336 l 171 338 l 163 345 l 147 347 l 136 353 l 125 363 l 110 370 l 96 379 l 87 389 l 81 406 l 68 428 l 54 458 l 54 488 l 50 500 l 57 511 l 58 525 l 65 533 l 74 546 l 85 551 l 97 558 l 110 567 l 115 578 l 122 595 l 132 610 l 150 623 l 179 642 l 208 643 l 221 646 l 232 639 l 245 637 l 254 631 l 269 628 l 281 623 l 292 612 l 307 606 l 321 596 l 329 586 l 336 570 l 349 547 l 363 517 l 364 488 l 367 475 z "},"":{"ha":561,"x_min":50,"x_max":492,"o":"m 456 778 l 453 762 l 453 746 l 440 732 l 425 732 l 412 739 l 400 751 l 399 764 l 406 770 l 408 783 l 418 790 l 428 794 l 440 793 l 450 786 l 456 778 m 203 363 l 193 358 l 183 368 l 192 375 l 203 371 l 203 363 m 492 -21 l 486 -33 l 469 -77 l 472 -102 l 471 -123 l 473 -146 l 469 -157 l 471 -170 l 473 -186 l 471 -192 l 464 -196 l 458 -196 l 452 -192 l 444 -182 l 435 -174 l 432 -157 l 425 -151 l 406 -174 l 401 -199 l 390 -231 l 380 -256 l 372 -286 l 371 -311 l 370 -342 l 368 -366 l 364 -387 l 349 -407 l 347 -401 l 335 -395 l 322 -375 l 322 -355 l 317 -325 l 317 -300 l 307 -272 l 302 -229 l 300 -196 l 293 -147 l 288 -57 l 278 -1 l 277 41 l 279 126 l 283 172 l 286 227 l 282 279 l 286 350 l 285 378 l 285 464 l 283 486 l 272 493 l 267 497 l 257 496 l 243 488 l 229 473 l 208 461 l 174 453 l 139 454 l 121 469 l 93 473 l 81 486 l 69 505 l 61 526 l 58 547 l 50 571 l 50 643 l 52 667 l 56 677 l 50 692 l 60 713 l 61 729 l 71 750 l 83 774 l 94 796 l 106 808 l 126 819 l 143 823 l 167 827 l 199 825 l 214 829 l 235 829 l 253 828 l 268 825 l 288 822 l 306 818 l 321 812 l 355 791 l 364 777 l 374 757 l 374 745 l 364 729 l 353 708 l 325 700 l 329 667 l 329 636 l 336 610 l 336 583 l 342 559 l 339 536 l 339 493 l 346 475 l 340 461 l 345 449 l 346 424 l 351 397 l 347 367 l 351 340 l 350 314 l 354 289 l 346 267 l 345 244 l 342 224 l 347 205 l 342 191 l 343 178 l 347 154 l 346 129 l 359 102 l 351 79 l 350 57 l 347 36 l 353 18 l 347 3 l 349 -9 l 353 -33 l 351 -58 l 349 -94 l 353 -119 l 351 -138 l 358 -158 l 354 -174 l 361 -176 l 371 -174 l 385 -155 l 390 -135 l 407 -114 l 412 -94 l 431 -75 l 431 -53 l 425 -29 l 421 -22 l 422 3 l 421 18 l 425 35 l 421 56 l 419 74 l 419 89 l 414 121 l 414 180 l 415 205 l 414 222 l 418 239 l 414 258 l 412 277 l 412 292 l 407 323 l 407 416 l 399 428 l 412 439 l 406 478 l 406 530 l 400 547 l 407 567 l 403 585 l 403 597 l 408 608 l 407 615 l 408 624 l 400 639 l 400 657 l 408 667 l 403 686 l 418 694 l 440 699 l 460 703 l 479 699 l 484 682 l 486 669 l 490 656 l 489 642 l 490 627 l 479 615 l 476 590 l 473 574 l 467 562 l 467 546 l 465 524 l 460 501 l 463 486 l 457 471 l 465 454 l 458 432 l 458 412 l 457 383 l 450 368 l 454 358 l 454 335 l 450 315 l 454 293 l 452 265 l 452 170 l 456 160 l 456 136 l 452 117 l 456 94 l 453 66 l 453 -3 l 454 -28 l 457 -33 l 465 -17 l 475 -3 l 484 -5 l 489 -4 l 492 -12 l 492 -21 m 269 607 l 267 627 l 262 642 l 261 668 l 264 688 l 264 711 l 253 724 l 240 715 l 229 715 l 222 711 l 199 696 l 178 689 l 164 672 l 151 660 l 142 648 l 135 628 l 127 611 l 117 586 l 114 549 l 115 524 l 131 505 l 147 501 l 167 494 l 189 497 l 208 497 l 232 518 l 243 529 l 245 546 l 262 567 l 261 581 l 269 607 m 174 533 l 172 526 l 163 519 l 154 529 l 164 539 l 174 533 z "},"":{"ha":572,"x_min":9,"x_max":521,"o":"m 29 812 l 21 810 l 11 812 l 9 819 l 21 831 l 29 825 l 29 812 m 521 179 l 514 151 l 511 127 l 505 104 l 492 89 l 492 75 l 485 58 l 467 49 l 446 41 l 422 36 l 401 26 l 386 17 l 368 18 l 343 20 l 329 18 l 306 20 l 288 31 l 268 49 l 258 62 l 241 68 l 236 75 l 232 82 l 235 90 l 248 97 l 261 103 l 278 110 l 306 96 l 335 83 l 363 82 l 382 78 l 407 78 l 435 82 l 454 87 l 468 102 l 476 117 l 482 138 l 486 163 l 486 210 l 488 229 l 485 250 l 472 300 l 460 330 l 444 357 l 427 379 l 408 396 l 389 415 l 367 424 l 339 435 l 318 440 l 298 440 l 283 441 l 268 450 l 268 465 l 292 486 l 306 503 l 330 517 l 350 541 l 368 559 l 386 582 l 396 599 l 399 608 l 408 631 l 419 653 l 427 690 l 433 722 l 435 747 l 431 778 l 419 804 l 403 827 l 387 836 l 374 846 l 351 850 l 330 848 l 310 843 l 292 836 l 273 819 l 260 804 l 252 779 l 245 758 l 235 736 l 232 715 l 227 697 l 220 679 l 214 653 l 201 624 l 191 568 l 187 545 l 187 498 l 172 378 l 168 332 l 163 235 l 158 196 l 163 164 l 157 121 l 157 81 l 158 45 l 157 4 l 151 -41 l 151 -79 l 155 -109 l 153 -131 l 138 -147 l 118 -157 l 106 -161 l 86 -160 l 74 -153 l 62 -140 l 62 -117 l 69 -85 l 72 -50 l 72 17 l 82 37 l 82 81 l 86 114 l 89 142 l 86 164 l 85 180 l 92 197 l 104 208 l 111 222 l 111 254 l 107 283 l 107 313 l 106 332 l 81 367 l 68 382 l 61 395 l 60 408 l 62 416 l 74 436 l 86 463 l 85 492 l 81 517 l 81 547 l 82 586 l 85 612 l 86 652 l 85 684 l 86 721 l 92 749 l 82 760 l 85 774 l 100 774 l 106 781 l 106 800 l 100 817 l 100 832 l 111 854 l 132 868 l 163 880 l 184 890 l 207 905 l 227 916 l 245 926 l 260 935 l 288 935 l 310 937 l 330 935 l 354 926 l 375 920 l 393 908 l 418 895 l 439 878 l 457 854 l 471 832 l 485 806 l 492 781 l 496 753 l 492 724 l 486 688 l 472 665 l 464 643 l 450 624 l 419 568 l 403 547 l 393 530 l 380 515 l 379 498 l 396 486 l 396 468 l 419 441 l 439 422 l 460 396 l 471 379 l 482 359 l 496 334 l 503 307 l 510 277 l 514 254 l 521 229 l 518 205 l 521 179 z "},"":{"ha":781,"x_min":-4,"x_max":757,"o":"m 293 863 l 278 851 l 272 863 l 278 879 l 293 876 l 293 863 m 564 340 l 562 332 l 554 323 l 546 321 l 543 319 l 541 319 l 534 321 l 522 321 l 515 323 l 510 323 l 498 328 l 490 328 l 473 335 l 463 339 l 446 349 l 435 367 l 427 375 l 422 389 l 415 410 l 412 421 l 414 435 l 414 444 l 418 447 l 425 452 l 436 468 l 435 475 l 437 484 l 440 493 l 437 515 l 432 522 l 425 515 l 415 514 l 401 507 l 383 489 l 378 479 l 374 468 l 374 456 l 371 446 l 367 435 l 363 422 l 363 380 l 361 368 l 358 355 l 357 343 l 355 329 l 355 317 l 349 304 l 340 296 l 318 290 l 304 296 l 290 309 l 283 311 l 277 318 l 273 326 l 269 335 l 271 345 l 269 359 l 269 380 l 268 390 l 269 401 l 271 415 l 271 428 l 273 457 l 272 473 l 272 486 l 271 497 l 269 507 l 262 519 l 256 530 l 253 541 l 252 553 l 253 564 l 258 572 l 265 576 l 278 582 l 292 587 l 310 586 l 315 579 l 334 568 l 349 561 l 350 553 l 357 541 l 357 522 l 363 518 l 368 517 l 375 518 l 383 525 l 396 533 l 410 539 l 421 546 l 435 547 l 449 551 l 471 551 l 488 550 l 501 545 l 513 529 l 517 518 l 518 497 l 518 489 l 514 476 l 511 469 l 500 458 l 486 449 l 475 444 l 472 436 l 469 421 l 472 407 l 482 400 l 493 392 l 510 380 l 515 374 l 525 368 l 533 359 l 543 354 l 550 351 l 559 346 l 564 340 m 757 416 l 751 383 l 746 340 l 715 262 l 693 216 l 673 189 l 647 155 l 633 139 l 589 100 l 553 79 l 532 69 l 511 69 l 475 50 l 419 33 l 361 25 l 304 31 l 254 41 l 214 62 l 172 87 l 139 109 l 96 150 l 75 172 l 46 208 l 28 253 l 17 297 l 9 345 l 17 379 l 8 425 l -3 458 l 9 497 l 9 518 l 21 530 l 21 562 l 31 583 l 50 604 l 61 647 l 85 686 l 110 714 l 127 746 l 150 750 l 175 770 l 216 789 l 239 808 l 267 818 l 292 843 l 314 871 l 322 879 l 343 889 l 375 884 l 404 863 l 427 852 l 433 832 l 433 811 l 410 794 l 359 772 l 325 764 l 292 770 l 265 754 l 252 730 l 249 708 l 239 690 l 228 664 l 220 648 l 207 623 l 187 604 l 176 583 l 164 561 l 160 529 l 157 504 l 157 479 l 151 453 l 150 432 l 146 407 l 136 383 l 144 370 l 155 346 l 163 314 l 161 293 l 167 277 l 171 245 l 183 227 l 208 204 l 211 176 l 218 154 l 243 123 l 269 119 l 283 104 l 317 96 l 359 90 l 411 104 l 447 107 l 489 119 l 519 131 l 558 151 l 566 175 l 590 180 l 597 200 l 596 227 l 595 248 l 600 269 l 623 285 l 621 340 l 633 378 l 640 418 l 653 453 l 656 492 l 652 538 l 642 578 l 632 608 l 607 640 l 583 672 l 568 688 l 559 701 l 562 714 l 589 714 l 624 692 l 657 673 l 673 642 l 696 623 l 701 589 l 715 555 l 725 529 l 743 501 l 749 458 l 757 416 m 25 614 l 11 604 l -3 597 l -4 614 l 4 631 l 20 631 l 25 614 z "}}}
